<?xml version="1.0" encoding="utf-8"?>
<svg xmlns="http://www.w3.org/2000/svg" viewBox="0 0 100 100">
  <defs/>
  <rect width="100" height="100" fill="none" />
  <g>
    <path fill="none" stroke="#666666" stroke-miterlimit="10" stroke-width="5" d="M58.4 51.7c-.9-.9-1.4-2-1.4-2.3s.5-.4 1.4-1.4C70.8 43.8 79.8 30.5 80 15.5H20c.2 15 9.2 28.1 21.6 32.3.9.9 1.4 1.2 1.4 2.0s-.5 1.6-1.4 2.5C29.2 56.1 20.2 69.5 20 85.5h60c-.2-16-9.2-29.6-21.6-33.8z" />

    <clipPath id="a">
      <rect width="70" height="25" x="15" y="20">
        <animate attributeName="height" dur="2.0s" from="25" keyTimes="0;0.5;1" repeatCount="indefinite" to="0"/>
        <animate attributeName="y" dur="2.0s" from="20" keyTimes="0;0.5;1" repeatCount="indefinite" to="45"/>
      </rect>
    </clipPath>

    <clipPath id="b">
      <rect width="70" height="25" x="15" y="55">
        <animate attributeName="height" dur="2.0s" from="0" keyTimes="0;0.5;1" repeatCount="indefinite" to="25"/>
        <animate attributeName="y" dur="2.0s" from="80" keyTimes="0;0.5;1" repeatCount="indefinite" to="55"/>
      </rect>
    </clipPath>

    <path fill="#888888" d="M29 23c3.1 11.4 11.3 19.5 21 19.5S67.9 34.4 71 23H29z" clip-path="url(#a)"/>

    <path fill="#888888" d="M71.6 78c-3-11.6-11.5-20-21.5-20s-18.5 8.4-21.5 20h43z" clip-path="url(#b)"/>

    <animateTransform attributeName="transform" dur="2.0s" from="0 50 50" to="180 50 50" keyTimes="0;0.75;1" repeatCount="indefinite" type="rotate" values="0 50 50;0 50 50;180 50 50" />
  </g>
</svg>
