<?xml version="1.0" encoding="UTF-8"?>
<svg viewBox="0 0 512 128" version="1.1" xmlns="http://www.w3.org/2000/svg"
  xmlns:xlink="http://www.w3.org/1999/xlink">
  <title>com.youtube</title>
  <g id="页面-1" stroke="none" stroke-width="1" fill="none" fill-rule="evenodd">
    <g id="com.youtube" transform="translate(10.000000, 9.000000)" fill-rule="nonzero">
      <path
        d="M153.573813,17.2252747 C151.759949,10.4761905 146.419127,5.13736264 139.667522,3.32417582 C127.474326,0 78.3992298,0 78.3992298,0 C78.3992298,0 29.3241335,0.100732601 17.1309371,3.42490842 C10.3793325,5.23809524 5.03851091,10.5769231 3.22464698,17.3260073 C0,29.514652 0,55 0,55 C0,55 0,80.485348 3.3254172,92.7747253 C5.13928113,99.5238095 10.4801027,104.862637 17.2317073,106.675824 C29.4249037,110 78.5,110 78.5,110 C78.5,110 127.575096,110 139.768293,106.675824 C146.519897,104.862637 151.860719,99.5238095 153.674583,92.7747253 C157,80.5860806 157,55 157,55 C157,55 156.89923,29.514652 153.573813,17.2252747 Z"
        id="路径" fill="#FF0000"></path>
      <polygon id="路径" fill="#FFFFFF" points="103 56.5 63 33 63 80"></polygon>
      <g id="编组" transform="translate(173.000000, 3.000000)" fill="#282828">
        <path
          d="M55.4020814,96.8399592 C52.2737307,94.6992864 50.0536108,91.4373089 48.7417219,86.9520897 C47.4298329,82.4668705 46.8243456,76.5545362 46.8243456,69.1131498 L46.8243456,59.0214067 C46.8243456,51.5800204 47.5307474,45.4638124 49.0444655,40.9785933 C50.5581835,36.3914373 52.8792179,33.1294597 56.1084831,31.0907238 C59.3377483,29.0519878 63.4752444,27.930683 68.6218858,27.930683 C73.6676127,27.930683 77.8051088,28.950051 80.8325449,31.0907238 C83.8599811,33.2313965 86.1810155,36.4933741 87.593819,40.9785933 C89.0066225,45.4638124 89.7130243,51.4780836 89.7130243,58.9194699 L89.7130243,69.011213 C89.7130243,76.4525994 89.0066225,82.3649337 87.593819,86.8501529 C86.1810155,91.3353721 83.9608956,94.5973496 80.8325449,96.7380224 C77.7041943,98.7767584 73.4657837,99.8980632 68.2182277,99.8980632 C62.7688426,100 58.530432,98.8786952 55.4020814,96.8399592 L55.4020814,96.8399592 Z M72.8602964,85.9327217 C73.7685273,83.6901121 74.1721854,79.9184506 74.1721854,74.8216106 L74.1721854,53.1090724 C74.1721854,48.1141692 73.7685273,44.4444444 72.8602964,42.2018349 C71.9520656,39.8572885 70.4383475,38.7359837 68.3191422,38.7359837 C66.1999369,38.7359837 64.7871334,39.8572885 63.8789026,42.2018349 C62.9706717,44.5463812 62.5670136,48.1141692 62.5670136,53.1090724 L62.5670136,74.8216106 C62.5670136,79.9184506 62.9706717,83.6901121 63.777988,85.9327217 C64.5853043,88.1753313 66.0990224,89.2966361 68.3191422,89.2966361 C70.4383475,89.2966361 71.9520656,88.1753313 72.8602964,85.9327217 L72.8602964,85.9327217 Z M294.064964,69.3170234 L294.064964,72.8848114 L294.468622,82.9765545 C294.771365,85.2191641 295.275938,86.8501529 296.083254,87.8695209 C296.890571,88.8888889 298.20246,89.3985729 299.918007,89.3985729 C302.239041,89.3985729 303.853674,88.4811417 304.66099,86.6462793 C305.569221,84.8114169 305.972879,81.7533129 306.073794,77.5739042 L319.495427,78.3893986 C319.596342,79.0010194 319.596342,79.8165138 319.596342,80.8358818 C319.596342,87.2579001 317.880795,92.0489297 314.348786,95.2089704 C310.816777,98.3690112 305.972879,100 299.615263,100 C291.945758,100 286.597288,97.5535168 283.569852,92.7624873 C280.542416,87.9714577 278.927783,80.4281346 278.927783,70.3363914 L278.927783,58.0020387 C278.927783,47.6044852 280.542416,39.9592253 283.670766,35.1681957 C286.900032,30.3771662 292.349417,27.930683 300.018921,27.930683 C305.367392,27.930683 309.403974,28.950051 312.229581,30.8868502 C315.055188,32.8236493 317.073478,35.8817533 318.284453,40.0611621 C319.495427,44.2405708 320,49.9490316 320,57.2884811 L320,69.2150866 L294.064964,69.2150866 L294.064964,69.3170234 Z M296.083254,39.9592253 C295.275938,40.9785933 294.771365,42.5076453 294.468622,44.7502548 C294.165878,46.9928644 294.064964,50.3567788 294.064964,54.9439348 L294.064964,59.9388379 L305.367392,59.9388379 L305.367392,54.9439348 C305.367392,50.4587156 305.266477,47.0948012 304.963734,44.7502548 C304.66099,42.4057085 304.156418,40.7747197 303.349101,39.8572885 C302.541785,38.9398573 301.33081,38.4301733 299.716178,38.4301733 C298.000631,38.5321101 296.789656,39.0417941 296.083254,39.9592253 L296.083254,39.9592253 Z M17.6600442,67.9918451 L-2.84217094e-14,3.56778797 L15.4399243,3.56778797 L21.5957111,32.7217125 C23.2103437,39.9592253 24.3204037,46.0754332 25.12772,51.0703364 L25.5313781,51.0703364 C26.0359508,47.4006116 27.2469253,41.3863405 29.0633869,32.8236493 L35.4210028,3.56778797 L50.8609272,3.56778797 L32.9990539,67.8899083 L32.9990539,98.7767584 L17.7609587,98.7767584 L17.7609587,67.9918451 L17.6600442,67.9918451 Z"
          id="形状"></path>
        <path
          d="M139.766635,29.2558614 L139.766635,98.8786952 L127.656891,98.8786952 L126.345002,90.3160041 L126.042258,90.3160041 C122.712078,96.7380224 117.767266,100 111.207821,100 C106.666667,100 103.235572,98.470948 101.116367,95.412844 C98.8962472,92.3547401 97.8871019,87.6656473 97.8871019,81.243629 L97.8871019,29.2558614 L113.427941,29.2558614 L113.427941,80.3261978 C113.427941,83.3843017 113.730684,85.6269113 114.437086,86.9520897 C115.143488,88.2772681 116.253548,88.8888889 117.767266,88.8888889 C119.079155,88.8888889 120.391044,88.4811417 121.602018,87.6656473 C122.812993,86.8501529 123.721224,85.7288481 124.326711,84.5056065 L124.326711,29.2558614 L139.766635,29.2558614 Z"
          id="B"></path>
        <g id="B-link" transform="translate(177.508672, 29.255861)">
          <path
            d="M41.8795333,0 L41.8795333,69.6228338 L29.7697887,69.6228338 L28.4578997,61.0601427 L28.1551561,61.0601427 C24.8249763,67.4821611 19.880164,70.7441386 13.320719,70.7441386 C8.77956481,70.7441386 5.34847051,69.2150866 3.22926522,66.1569827 C1.00914538,63.0988787 0,58.4097859 0,51.9877676 L0,0 L15.5408389,0 L15.5408389,51.0703364 C15.5408389,54.1284404 15.8435825,56.3710499 16.5499842,57.6962283 C17.256386,59.0214067 18.3664459,59.6330275 19.880164,59.6330275 C21.192053,59.6330275 22.503942,59.2252803 23.7149164,58.4097859 C24.9258909,57.5942915 25.8341217,56.4729867 26.439609,55.2497452 L26.439609,0 L41.8795333,0 Z"
            id="B"></path>
        </g>
        <path
          d="M181.948912,16.2079511 L166.508988,16.2079511 L166.508988,98.8786952 L151.371807,98.8786952 L151.371807,16.2079511 L135.931883,16.2079511 L135.931883,3.56778797 L181.847997,3.56778797 L181.847997,16.2079511 L181.948912,16.2079511 Z M270.652791,40.3669725 C269.74456,35.9836901 268.230842,32.8236493 266.111637,30.7849134 C263.992431,28.8481142 261.166824,27.8287462 257.432986,27.8287462 C254.607379,27.8287462 251.882687,28.6442406 249.460738,30.2752294 C246.937874,31.9062181 245.121413,34.0468909 243.708609,36.6972477 L243.607695,36.6972477 L243.607695,0 L228.672343,0 L228.672343,98.7767584 L241.488489,98.7767584 L243.103122,92.1508665 L243.405866,92.1508665 C244.61684,94.4954128 246.433302,96.3302752 248.754336,97.7573904 C251.197348,99.1095286 253.940929,99.8111422 256.726585,99.7963625 C261.974141,99.7963625 265.808893,97.3496432 268.331757,92.4566769 C270.753705,87.5637105 272.065594,79.9184506 272.065594,69.6228338 L272.065594,58.6136595 C272.065594,50.8664628 271.561022,44.7502548 270.652791,40.3669725 Z M256.423841,68.8073394 C256.423841,73.9041794 256.222012,77.8797146 255.818354,80.733945 C255.414696,83.5881753 254.708294,85.6269113 253.699149,86.8501529 C252.690003,88.0733945 251.378114,88.6850153 249.763482,88.6850153 C248.451593,88.6850153 247.341533,88.3792049 246.231473,87.7675841 C245.121413,87.1559633 244.314096,86.2385321 243.607695,85.0152905 L243.607695,45.4638124 C244.112267,43.5270133 245.020498,41.9979613 246.332387,40.7747197 C247.644276,39.5514781 248.956165,38.9398573 250.469883,38.9398573 C252.084516,38.9398573 253.29549,39.5514781 254.102807,40.7747197 C255.011038,41.9979613 255.51561,44.138634 255.919268,47.0948012 C256.222012,50.0509684 256.423841,54.2303772 256.423841,59.7349643 L256.423841,68.8073394 Z"
          id="形状"></path>
      </g>
    </g>
  </g>
</svg>