<svg xmlns="http://www.w3.org/2000/svg" width="500" height="200" viewBox="0 0 500 200"><path fill="#0F88EB" d="M114.114536,170.487383 L129.789492,170.491671 L134.950236,188.16098 L163.062369,170.491671 L196.204622,170.491671 L196.204622,24.7198771 L114.114536,24.7198771 L114.114536,170.487383 Z M130.795944,40.5450586 L179.525356,40.5450586 L179.525356,154.66649 L160.831044,154.66649 L142.162428,166.402427 L138.764046,154.694366 L130.798085,154.668634 L130.798085,40.547203 L130.795944,40.5450586 Z M100.255476,91.419372 L65.243792,91.419372 C66.4108483,73.2632999 66.714925,56.8527151 66.714925,42.1961954 L100.949286,42.1961954 C100.949286,42.1961954 102.266239,27.078644 95.2103677,27.2501907 L35.9902984,27.2501907 C38.3244107,18.4584231 41.2581115,9.38360358 44.7699866,0 C44.7699866,0 28.6603292,0 23.1740947,14.4528081 C20.904224,20.4140553 14.3344474,43.3584243 2.63390653,66.7959899 C6.57405939,66.3671234 19.6086846,66.0025866 27.2855585,51.9143152 C28.6988743,47.9687414 28.9665477,47.4541012 30.7224854,42.1790408 L50.0377998,42.1790408 C50.0377998,49.2124547 49.2369212,86.9956118 48.91143,91.3914956 L13.9404321,91.3914956 C6.08154026,91.3914956 3.52686509,107.216677 3.52686509,107.216677 L47.4103177,107.216677 C44.46591,140.627538 28.6624707,168.782638 0,191.04082 C13.7113037,194.960661 27.3754968,190.418963 34.1272914,184.406252 C34.1272914,184.406252 49.5067356,170.403754 57.9395194,138.002874 L94.0497356,181.519979 C94.0497356,181.519979 99.3453868,163.503288 93.2188773,154.724387 C88.143789,148.745985 74.4431925,132.573421 68.6014874,126.710813 L58.8153472,134.488311 C61.7340578,125.121862 63.4899955,116.025599 64.0831599,107.233832 L105.334847,107.233832 C105.334847,107.233832 105.27703,91.4086503 100.255476,91.4086503 L100.255476,91.419372 Z M375.96339,90.3429167 C389.903822,73.160372 406.058449,51.0973241 406.058449,51.0973241 C406.058449,51.0973241 393.580584,41.1797814 387.736738,48.3740206 C383.723778,53.8377824 363.089369,80.6741165 363.089369,80.6741165 L375.96339,90.345061 L375.96339,90.3429167 Z M275.525896,50.7542307 C269.500031,45.2282831 258.189223,52.1845011 258.189223,52.1845011 C258.189223,52.1845011 284.635357,89.0670379 285.706051,90.681721 L298.725687,81.4825302 C298.725687,81.4825302 281.55176,56.2823226 275.534461,50.7542307 L275.525896,50.7542307 Z M428.256071,98.5771574 C415.022296,98.5771574 340.656194,99.2033028 340.559832,99.2033028 L340.559832,31.5281361 C343.778337,31.5281361 348.872697,31.2622387 355.849338,30.7218667 C383.201279,29.1071835 402.775702,28.0414498 414.58117,27.496789 C414.58117,27.496789 422.754847,9.27853126 414.185014,5.0885035 C412.129282,4.29510009 398.681369,8.15490047 398.681369,8.15490047 C398.681369,8.15490047 288.121536,19.2046512 243.195228,20.2489417 C244.265922,26.1587249 248.29173,31.6911055 253.752268,33.3508196 C262.66044,35.6817101 268.934705,34.4873164 286.643979,33.9448 C303.261145,32.8726332 315.873918,32.3151065 324.460881,32.3151065 L324.460881,99.1968697 L235.143612,99.1968697 C235.143612,99.1968697 237.028032,114.142875 252.210469,114.507411 L324.439467,114.507411 L324.439467,162.025842 C324.439467,171.383714 316.948894,176.757414 308.057853,176.178444 C298.635748,176.251351 290.605546,175.406484 280.161999,174.964751 C281.496084,177.623725 284.395522,184.605675 293.085272,189.597683 C299.695735,192.818472 303.907844,194 310.494752,194 C330.274748,194 341.05235,182.420599 340.531994,163.636237 L340.531994,114.509555 L422.407942,114.509555 C428.88778,114.509555 428.232515,98.5728687 428.232515,98.5728687 L428.256071,98.5771574 Z" transform="translate(36 3)"/></svg>