<svg xmlns="http://www.w3.org/2000/svg" width="500" height="200" viewBox="0 0 500 200"><path fill="#4882F2" d="M155.130882 97.0162338C155.130882 68.6295759 155.121296 40.2429375 155.102125 11.8563186 154.988005 6.13539996 159.063148 1.18609695 164.69961.200076365 165.329791.103415964 165.966978.0598701516 166.60445.0698983456 174.269527.0614050831 181.934609.0600057913 189.599696.0657004702 192.250456.0669876236 193.422936 1.26253378 193.423024 3.95882772 193.424272 37.2566879 193.424594 70.5545334 193.423989 103.852364 193.423989 104.343486 193.407081 104.83553 193.431142 105.325511 193.477029 106.789951 194.443752 108.065319 195.841322 108.50519 197.360946 108.980635 199.002681 108.297269 199.736131 106.883991 201.189723 104.326227 202.602754 101.745279 204.019237 99.1666138 214.950231 79.2668022 225.879076 59.3658058 236.80577 39.4636246 242.209592 29.6196505 247.607499 19.7724391 252.999492 9.92199025 254.739203 6.42514233 257.504966 3.54271965 260.926997 1.6601033 262.929956.601182151 265.162167.0499536907 267.427809.0547429449 275.141954.0801370663 282.856201.0613417005 290.570448.0657882306 293.872391.0676897073 295.348098 2.50745982 293.760248 5.40923026 285.733364 20.078099 277.696593 34.741551 269.649933 49.3995863 262.722708 62.0425925 255.728652 74.6499095 248.912546 87.3525636 245.499757 93.3410544 245.499674 100.685821 248.912326 106.67439 256.300982 120.406269 263.874476 134.038775 271.367727 147.714488 277.423404 158.766563 283.475692 169.82051 289.524592 180.876329 290.984648 183.542784 292.469774 186.195871 293.903488 188.876412 294.397579 189.624284 294.563138 190.542141 294.361479 191.415509 294.159821 192.288877 293.608613 193.041236 292.836657 193.496781 292.28805 193.827707 291.655537 193.993134 291.015159 193.973174 282.907892 193.962935 274.79884 194.06579 266.693985 193.92552 262.153025 193.84693 258.609345 191.504984 255.702777 188.136518 253.831372 185.675026 252.22338 183.023986 250.905205 180.226931 243.142939 166.140031 235.398049 152.043575 227.670535 137.937563 227.203435 136.723241 226.137503 135.839935 224.857549 135.606528 223.293152 135.387741 221.777461 136.249419 221.165291 137.705597 219.412627 140.939102 217.626511 144.154528 215.855139 147.377912 208.958834 159.927014 202.06171 172.475644 195.163767 185.023801 193.918569 187.426227 192.262858 189.592405 190.271443 191.424464 188.440811 193.098841 186.040346 194.011732 183.559713 193.976918 177.909402 193.944827 172.258652 193.976538 166.608136 193.9645 163.549985 194.003398 160.605994 192.804329 158.445277 190.639819 156.28456 188.475309 155.090657 185.52922 155.134919 182.471141 155.125431 153.986182 155.124085 125.501213 155.130882 97.0162338ZM76.0774125 53.9945924C76.0774125 39.8500193 76.1931101 25.704042 76.0223721 11.5615166 76.0962808 5.19617352 81.2592547.065189782 87.6249342.0308449398 103.397054.133700202 119.170432.103978659 134.942889.0238094761 136.026429-.101394296 137.108275.27163697 137.884373 1.03806172 138.66047 1.80448646 139.04704 2.88156991 138.935434 3.96659452 138.838898 5.92637341 138.932684 7.89485521 138.911476 9.85915376 138.883685 12.4370003 137.682229 13.6166326 135.079839 13.6179051 123.434509 13.6236095 111.788344 13.6960997 100.144403 13.5694467 98.4438887 13.5290747 96.8004033 14.1836818 95.5933278 15.382159 94.3862523 16.5806362 93.7199133 18.2194 93.7481279 19.9201595 93.8414466 26.9420935 93.7561288 33.9662215 93.7808333 40.989311 93.6466262 42.6837509 94.2640447 44.3515279 95.4692604 45.5501075 96.6744762 46.748687 98.3456368 47.3568876 100.03931 47.2133269 110.161416 47.2143898 120.283518 47.216106 130.405615 47.2184755 135.656695 47.0721873 140.318677 50.5570849 141.664726 55.6348209 141.974236 56.7207362 142.130112 57.8446534 142.127834 58.9738139 142.122865 71.4485541 142.119725 83.9232846 142.118389 96.3980053 142.204401 101.756863 138.563847 106.459272 133.354293 107.718359 132.540459 107.903976 131.706156 107.984305 130.871857 107.957375 116.327476 107.960475 101.782671 107.895547 87.2389198 107.990607 81.0910616 107.838673 76.153693 102.87134 76.0389588 96.7226751 76.1584593 82.4808487 76.0774125 68.2373695 76.0774125 53.9945924ZM124.262529 77.7459377C124.262529 74.1649598 124.182901 70.5817587 124.283752 67.0035745 124.324623 65.3223194 123.672123 63.6982754 122.479409 62.5126437 121.286695 61.327012 119.658794 60.6841956 117.977812 60.7350786 112.041767 60.8536723 106.100574 60.8387238 100.163652 60.7448639 98.4580353 60.6771371 96.8005002 61.3186321 95.5848597 62.5169363 94.3692193 63.7152405 93.7039838 65.363391 93.7472065 67.0698043 93.8386724 74.1324738 93.8379215 81.1960892 93.7449539 88.2606504 93.7093397 89.9162832 94.3505859 91.5148112 95.5205122 92.6868439 96.6904385 93.8588767 98.2878105 94.5029973 99.9435047 94.4703613 105.979172 94.3967205 112.015571 94.3975884 118.052701 94.4729649 119.736457 94.5483904 121.373837 93.9096249 122.561713 92.7139341 123.749588 91.5182433 124.377603 89.8767102 124.291138 88.1934844 124.160507 84.7154934 124.262646 81.2287848 124.262529 77.7459085L124.262529 77.7459377ZM339.436527 159.832745C339.436527 169.900216 339.436346 179.967686 339.435985 190.035157 339.43559 192.897055 338.378472 193.965699 335.54514 193.966387 327.53651 193.96785 319.527846 193.96785 311.519148 193.966387 308.613516 193.965699 307.51613 192.871268 307.515808 189.962477 307.513936 167.715799 307.481114 145.469063 307.529133 123.222488 307.328442 112.522721 311.62076 102.228491 319.363281 94.8407544 325.04012 89.3285934 332.311547 85.7482834 340.141887 84.6097713 342.956624 84.1872806 345.801436 83.9978841 348.647338 84.0435115 353.069208 84.0664901 357.492686 84.1169817 361.912566 84.0211911 362.918715 83.9608663 363.903203 84.3303302 364.621242 85.037717 365.33928 85.7451038 365.723415 86.7239607 365.678134 87.730899 365.564688 94.751736 365.638875 101.775498 365.633683 108.798237 365.760849 109.7689 365.434987 110.744169 364.749862 111.443426 364.064736 112.142683 363.096321 112.488383 362.123264 112.381058 359.179319 112.307973 356.233561 112.383563 353.297239 112.607538 346.155143 113.818109 340.62521 119.524244 339.63918 126.700786 339.478286 128.367196 339.438077 130.02663 339.437653 131.692996 339.435283 141.072854 339.434908 150.45277 339.436527 159.832745ZM62.8509455 54.1059312C62.8509455 68.2985825 62.7925848 82.4915701 62.878122 96.6837094 62.7611682 102.891208 57.7502844 107.891688 51.5425565 107.995741 35.6242712 107.888658 19.7045233 107.923923 3.78590169 107.998154 2.75387617 108.109474 1.72716029 107.745949.99511325 107.010031.263066215 106.274112-.0950384637 105.245493.0217238157 104.214069.170009744 102.11282.041060371 99.9927908.0565354659 97.8811863-.0222028622 96.9847913.286288075 96.0975313.904150052 95.4433369 1.52201203 94.7891424 2.39021764 94.4305118 3.28964553 94.4579578 3.68102794 94.4319808 4.07552585 94.4524436 4.46856108 94.4524436 15.8182268 94.4523119 27.1679802 94.4319661 38.5175289 94.468533 40.8198824 94.6777035 43.0445915 93.576005 44.2737376 91.618 44.8673151 90.6506824 45.1731753 89.534341 45.1555401 88.3995606 45.1639505 81.2295308 45.1892987 74.059501 45.1477587 66.889676 45.196824 65.2436471 44.5565465 63.6518575 43.3813686 62.4982652 42.2061907 61.3446728 40.6028059 60.7340117 38.9579694 60.8135804 29.2296929 60.8026396 19.5014017 60.8011769 9.77309597 60.8091924 6.72799807 60.808695 5.69100581 59.7763102 5.68930911 56.7545127 5.68825599 54.839243 5.68427751 52.9239441 5.69030373 51.0087036 5.53928579 49.9624779 5.89115022 48.9063729 6.63948298 48.1597856 7.38781574 47.4131982 8.44473948 47.0638009 9.49060966 47.2172615 19.268032 47.2091144 29.0465661 47.1296765 38.8221894 47.2641694 40.5030684 47.3226067 42.1341571 46.6880147 43.3335795 45.5089663 44.5330018 44.3299178 45.1954423 42.7099393 45.1658081 41.0283059 45.1479927 33.9565873 45.1468177 26.8848249 45.1622831 19.8130186 45.1967267 18.1276836 44.5328195 16.5031056 43.327887 15.3242595 42.1229545 14.1454135 40.4842367 13.5172175 38.8000591 13.5885346 27.205571 13.6729017 15.6100736 13.6168812 4.01498575 13.6258328 3.03092459 13.7385418 2.04017708 13.4804995 1.23612384 12.9020723.482301301 12.3267463.0416717109 11.4313946.045682422 10.483116.0697872957 8.02787082.0260387051 5.57182114.0634100354 3.11691235.0969344988 1.47148972 1.40502926.136239496 3.04941589.0689183538 3.34291613.0491429962 3.63887367.0644279435 3.93361718.0644279435 19.7052449.064340183 35.4768678.0646765981 51.2484858.0654371888 56.8300698-.0879525524 61.6942451 3.84087671 62.7184711 9.32982653 62.840283 10.0557964 62.8838178 10.7927443 62.8483273 11.5280067 62.8518572 25.7206482 62.8527299 39.9132897 62.8509455 54.1059312Z" transform="translate(67 3)"/></svg>