<?xml version="1.0" encoding="UTF-8"?>
<svg viewBox="0 0 512 179" version="1.1" xmlns="http://www.w3.org/2000/svg"
  xmlns:xlink="http://www.w3.org/1999/xlink">
  <title>com.baidu</title>
  <g id="页面-1" stroke="none" stroke-width="1" fill="none" fill-rule="evenodd">
    <g id="com.baidu" fill-rule="nonzero">
      <polygon id="路径" fill-opacity="0" fill="#FFFFFF" points="0 0 513 0 513 174 0 174"></polygon>
      <path
        d="M201.106199,93.8070953 C218.390311,90.0889455 215.986253,69.4253283 215.521251,64.9077764 C214.670298,57.9362456 206.476969,45.7778959 195.363429,46.7492626 C181.413379,47.9948427 179.320872,68.2029866 179.320872,68.2029866 C177.423665,77.5587809 183.845338,97.4834159 201.101549,93.7652661 M233.200614,59.1167582 C242.742448,59.1167582 250.405676,48.124978 250.405676,34.5490837 C250.405676,20.9731894 242.686648,10 233.200614,10 C223.71458,10 215.921152,20.9685418 215.921152,34.5490837 C215.921152,48.1296257 223.64948,59.1167582 233.200614,59.1167582 M274.334661,60.7341533 C287.108257,62.4073207 295.292286,48.7895972 296.933742,38.4252548 C298.607748,28.1213323 290.353968,16.1349471 281.332936,14.071374 C272.265404,11.9892101 260.956563,26.4899941 259.94286,35.9480375 C258.701305,47.5672555 261.584316,59.0470428 274.343961,60.6876764 M324.926842,78.0235496 C324.926842,73.0877058 320.834827,58.2104592 305.615323,58.2104592 C290.363269,58.2104592 288.345161,72.2464744 288.345161,82.1692866 C288.345161,91.6366254 289.135664,104.840705 308.079832,104.478185 C327.024,104.115665 324.931492,83.0384041 324.931492,78.0700265 M305.606023,121.442243 C305.606023,121.442243 285.862052,106.174591 274.334661,89.6706537 C258.687355,65.3353636 236.483526,75.2442327 229.062099,87.6024329 C221.622073,99.9931669 210.159782,107.819872 208.509026,109.892741 C206.84897,111.928428 184.663741,123.910165 189.583458,145.791476 C194.503176,167.672788 211.819838,167.240553 211.819838,167.240553 C211.819838,167.240553 224.570183,168.486133 239.357236,165.181627 C248.479491,163.258839 257.92882,163.536059 266.922535,165.990325 C266.922535,165.990325 301.486108,177.577009 310.934942,155.282054 C320.383776,132.987098 305.601373,121.446891 305.601373,121.446891"
        id="形状" fill="#2319DC"></path>
      <path
        d="M236.714828,99 L236.714828,113.833148 L224.672402,113.833148 C224.672402,113.833148 212.63933,114.832978 208.42565,128.525476 C206.957176,137.664761 209.721088,143.048818 210.202785,144.20355 C210.684482,145.358283 214.580148,152.042588 224.345035,154 L246.933352,154 L246.933352,99.1595972 L236.714828,99 Z M236.527761,145.001536 L227.426961,145.001536 C227.426961,145.001536 221.085396,144.672954 219.149255,137.340872 C218.153124,134.0926 219.298908,130.299821 219.803989,128.86814 C220.262302,127.38952 222.394864,123.976957 226.781581,122.662627 L236.527761,122.662627 L236.527761,145.00623 L236.527761,145.001536 Z M252.42844,115.16156 L252.42844,144.029871 C252.42844,144.029871 252.896107,151.211744 262.997714,153.831015 L289,153.831015 L289,115.152172 L277.775992,115.152172 L277.775992,144.189468 L267.01965,144.189468 C267.01965,144.189468 263.596328,143.691901 262.950947,140.927114 L262.950947,114.983187 L252.381673,115.152172 L252.42844,115.16156 Z"
        id="形状" fill="#FFFFFF"></path>
      <path
        d="M412.213241,96.9828738 L412.213241,84.8334231 L332.589195,84.8334231 L332.486635,97.1562365 L366.718448,97.1562365 L363.455167,104.531183 L334.342043,104.531183 L334.342043,165.508025 L403.542238,165.508025 C410.768074,165.508025 410.129403,158.165877 410.129403,158.165877 L410.129403,104.535868 L380.978984,104.535868 L383.54299,97.0390995 L412.213241,97.034414 L412.213241,96.9828738 Z M396.754615,152.482389 C396.754615,152.482389 395.915486,154.506517 394.731381,154.506517 L348.840332,154.506517 L348.840332,140.286084 L396.763938,140.286084 L396.759277,152.482389 L396.754615,152.482389 Z M396.675364,128.586439 L348.835671,128.586439 L348.835671,115.251562 L396.675364,115.251562 L396.675364,128.586439 Z M503.212151,85.1520358 L471.96857,85.1520358 L471.96857,79 L457.31644,79 L457.31644,84.8474795 L421.476296,84.8474795 L421.476296,165.36746 L434.370916,165.36746 L434.370916,95.2258186 L503.212151,95.2258186 L503.212151,85.1520358 Z M494.783563,101.81829 L494.783563,97.1562365 L482.1873,97.1562365 L482.1873,101.81829 L456.267529,101.81829 L456.267529,97.3202283 L444.333246,97.3202283 L444.333246,101.81829 L436.268281,101.81829 L436.426783,110.94092 L444.328584,110.94092 L444.328584,128.071036 L487.916689,128.071036 C493.963081,128.071036 494.769578,121.651928 494.769578,121.651928 L494.769578,110.931549 L504,110.931549 L504,101.808919 L494.778901,101.808919 L494.778901,101.813604 L494.783563,101.81829 Z M482.1873,117.167923 C482.1873,117.167923 481.068461,119.243591 479.623294,119.243591 L456.127674,119.243591 L456.127674,110.809726 L482.173315,110.809726 L482.173315,117.219464 L482.1873,117.167923 Z M438.039776,140.557841 L458.10429,152.252801 C456.519268,154.009856 449.712997,156.235459 449.712997,156.235459 L436.333546,156.235459 L436.333546,165.231581 L454.496034,165.231581 C459.917741,164.116437 469.945336,158.999892 469.945336,158.999892 C474.140983,162.832615 482.075416,164.425679 482.075416,164.425679 L502.773939,164.425679 L502.773939,155.457669 L487.175458,155.457669 C482.970488,154.825129 479.194406,152.412107 479.194406,152.412107 L502.783263,138.796101 L502.783263,131.42584 L438.0491,131.42584 L438.044438,140.562527 L438.039776,140.557841 Z M479.786458,140.407906 L468.309034,146.48966 L457.791947,140.407906 L479.786458,140.407906 Z M155.416369,97.9761956 L172.795669,97.9761956 L172.795669,82.5843925 L155.416369,82.5843925 L155.416369,97.9761956 Z M155.416369,165.048847 L172.795669,165.048847 L172.795669,104.681118 L155.416369,104.681118 L155.416369,165.048847 Z M127.156359,104.737344 L90.0761683,104.643634 L90.0761683,117.294431 L122.592428,117.294431 C122.592428,117.294431 130.331065,119.168623 130.331065,124.149289 L130.331065,128.619237 L100.905598,128.619237 C100.905598,128.619237 89.3349374,129.696898 85.6147975,143.584662 C84.9761269,150.144334 85.8292417,153.283606 86.2674537,154.473718 C86.7056656,155.66383 90.0761683,163.376131 100.159705,165.240952 L147.011091,165.240952 L147.011091,121.993968 C147.011091,121.993968 144.773413,107.155052 127.151697,104.657691 M130.321741,153.246122 L106.639648,153.246122 C103.455619,151.957615 102.444002,149.825722 102.173616,149.286891 C101.903229,148.748061 101.217941,146.850442 102.080379,144.920024 C103.945111,141.195067 107.171097,140.328253 107.171097,140.328253 L130.321741,140.328253 L130.321741,153.241437 L130.321741,153.246122 Z M81.8387157,143.875162 C82.3048987,129.17681 69.2284672,124.093063 69.2284672,124.093063 C80.3329448,118.254955 78.9250724,103.537861 78.9250724,103.537861 C77.7223204,81.0194421 50.3480582,82.0689897 50.3480582,82.0689897 L8,82.0689897 L8,166 L55.7697658,166 C83.8199932,165.887548 81.8014211,143.875162 81.8014211,143.875162 M54.7628106,150.39735 L54.7628106,150.434834 L26.1485018,150.434834 L26.1485018,132.334823 L54.6229558,132.334823 L55.5879544,132.531614 C55.5879544,132.531614 61.0050002,133.524935 62.9676304,138.425948 C62.9676304,138.425948 64.1051167,143.02709 61.6483326,146.44749 C61.6483326,146.44749 59.8442047,149.605504 54.7628106,150.411407 M60.8231888,111.498492 C60.8231888,111.498492 58.9025151,115.050086 53.7978119,115.818505 L26.14384,115.818505 L26.14384,98.4494291 L53.6812662,98.4494291 C53.6812662,98.4494291 59.6670552,98.1683003 61.6436708,102.94749 C61.6436708,102.94749 62.8324373,108.026551 60.8231888,111.498492"
        id="形状" fill="#E10601"></path>
    </g>
  </g>
</svg>