<?xml version="1.0" encoding="UTF-8"?>
<svg viewBox="0 0 620 190" version="1.1" xmlns="http://www.w3.org/2000/svg"
  xmlns:xlink="http://www.w3.org/1999/xlink">
  <title>com.github</title>
  <g id="页面-1" stroke="none" stroke-width="1" fill="none" fill-rule="evenodd">
    <g id="com.github" transform="translate(10.000000, 21.000000)" fill="#24292E">
      <path
        d="M367.9,114.5 L367.7,114.5 C367.8,114.5 367.8,114.6 367.9,114.6 L368,114.6 L367.9,114.5 Z M367.9,114.6 C367.1,114.6 365,115 362.8,115 C355.9,115 353.5,111.8 353.5,107.6 L353.5,79.8 L367.6,79.8 C368.4,79.8 369,79.1 369,78.1 L369,63 C369,62.2 368.3,61.5 367.6,61.5 L353.5,61.5 L353.5,42.7 C353.5,42 353,41.6 352.2,41.6 L333,41.6 C332.2,41.6 331.8,42.1 331.8,42.7 L331.8,62 C331.8,62 322.1,64.4 321.5,64.5 C320.8,64.7 320.4,65.3 320.4,66 L320.4,78.1 C320.4,79.1 321.1,79.8 321.9,79.8 L331.7,79.8 L331.7,109 C331.7,130.7 346.8,132.9 357.1,132.9 C361.8,132.9 367.5,131.4 368.4,130.9 C368.9,130.7 369.2,130.1 369.2,129.5 L369.2,116.2 C369.2,115.4 368.7,114.8 367.9,114.6 L367.9,114.6 Z M578.5,95.1 C578.5,79 572,76.9 565.2,77.6 C559.9,77.9 555.6,80.6 555.6,80.6 L555.6,111.9 C555.6,111.9 559.9,114.9 566.4,115.1 C575.5,115.3 578.5,112 578.5,95.1 L578.5,95.1 Z M600.1,93.7 C600.1,124.2 590.2,132.9 573,132.9 C558.4,132.9 550.6,125.5 550.6,125.5 C550.6,125.5 550.3,129.6 549.8,130.1 C549.5,130.6 549.1,130.8 548.5,130.8 L535.4,130.8 C534.5,130.8 533.7,130.1 533.7,129.3 L533.9,30.6 C533.9,29.8 534.6,29.1 535.4,29.1 L554.3,29.1 C555.1,29.1 555.8,29.8 555.8,30.6 L555.8,64.1 C555.8,64.1 563.1,59.4 573.8,59.4 L573.7,59.2 C584.3,59.2 600.1,63.2 600.1,93.7 L600.1,93.7 Z M522.6,61.6 L503.9,61.6 C502.9,61.6 502.4,62.3 502.4,63.3 L502.4,111.6 C502.4,111.6 497.5,115 490.8,115 C484.2,115 482.2,112 482.2,105.3 L482.2,63.1 C482.2,62.3 481.5,61.6 480.7,61.6 L461.7,61.6 C460.9,61.6 460.2,62.3 460.2,63.1 L460.2,108.6 C460.2,128.1 471.1,133 486.1,133 C498.5,133 508.5,126.2 508.5,126.2 C508.5,126.2 509,129.7 509.2,130.2 C509.4,130.6 510,131 510.6,131 L522.5,131 C523.5,131 524,130.3 524,129.5 L524.2,63.1 C524.3,62.3 523.5,61.6 522.6,61.6 L522.6,61.6 Z M312,61.5 L293.1,61.5 C292.3,61.5 291.6,62.3 291.6,63.3 L291.6,128.5 C291.6,130.3 292.8,130.9 294.3,130.9 L311.4,130.9 C313.2,130.9 313.6,130.1 313.6,128.5 L313.6,63 C313.5,62.2 312.8,61.5 312,61.5 L312,61.5 Z M302.6,31.4 C295.8,31.4 290.3,36.8 290.3,43.7 C290.3,50.5 295.7,56 302.6,56 C309.3,56 314.7,50.6 314.7,43.7 C314.7,36.9 309.3,31.4 302.6,31.4 L302.6,31.4 Z M449.2,29.2 L430.4,29.2 C429.6,29.2 428.9,29.9 428.9,30.7 L428.9,67 L399.5,67 L399.5,30.7 C399.5,29.9 398.8,29.2 398,29.2 L379.1,29.2 C378.3,29.2 377.6,29.9 377.6,30.7 L377.6,129.4 C377.6,130.2 378.4,130.9 379.1,130.9 L398,130.9 C398.8,130.9 399.5,130.2 399.5,129.4 L399.5,87.2 L428.9,87.2 L428.7,129.4 C428.7,130.2 429.4,130.9 430.2,130.9 L449.1,130.9 C449.9,130.9 450.6,130.2 450.6,129.4 L450.6,30.7 C450.7,29.9 450,29.2 449.2,29.2 L449.2,29.2 Z M281.5,72.9 L281.5,123.9 C281.5,124.2 281.4,124.9 281,125 C281,125 269.9,132.9 251.6,132.9 C229.5,132.9 203.2,126 203.2,80.3 C203.2,34.6 226.1,25.2 248.5,25.2992144 C267.9,25.2992144 275.7,29.7 276.9,30.5 C277.2,31 277.4,31.3 277.4,31.7 L273.8,47.6 C273.8,48.4 273,49.4 272,49.1 C268.8,48.1 264,46.2 252.7,46.2 C239.6,46.2 225.6,49.9 225.6,79.4 C225.6,108.8 238.9,112.3 248.5,112.3 C256.7,112.3 259.6,111.3 259.6,111.3 L259.6,90.9 L246.5,90.9 C245.5,90.9 244.8,90.2 244.8,89.4 L244.8,73 C244.8,72.2 245.5,71.5 246.5,71.5 L279.8,71.5 C280.8,71.4 281.5,72.1 281.5,72.9 L281.5,72.9 Z"
        id="形状" fill-rule="nonzero"></path>
      <path
        d="M76.2,0 C34.1,0 1.42108547e-14,34.1 1.42108547e-14,76.2 C1.42108547e-14,109.9 21.8,138.4 52.1,148.5 C55.9,149.1 57.4,146.9 57.4,144.9 C57.4,143.1 57.3,137.1 57.3,130.7 C38.2,134.2 33.2,126 31.7,121.8 C30.8,119.6 27.1,112.8 23.9,111 C21.2,109.6 17.4,106 23.8,105.9 C29.8,105.8 34.1,111.4 35.5,113.7 C42.4,125.2 53.3,122 57.7,120 C58.4,115.1 60.4,111.7 62.6,109.8 C45.7,107.9 27.9,101.3 27.9,72.2 C27.9,63.9 30.9,57 35.7,51.7 C34.9,49.8 32.3,42 36.5,31.5 C36.5,31.5 42.9,29.5 57.5,39.3 C63.6,37.6 70.1,36.7 76.5,36.7 C83,36.7 89.4,37.6 95.5,39.3 C110.1,29.4 116.4,31.5 116.4,31.5 C120.6,42 117.9,49.8 117.2,51.7 C122.1,57 125,63.8 125,72.2 C125,101.4 107.2,107.9 90.2,109.8 C93,112.2 95.4,116.7 95.4,123.9 C95.4,134.1 95.3,142.3 95.3,144.8 C95.3,146.8 96.7,149.2 100.5,148.4 C131.5,137.9 152.4,108.8 152.4,76.1 C152.4,34.1 118.3,0 76.2,0 L76.2,0 Z"
        id="路径"></path>
    </g>
  </g>
</svg>