<svg xmlns="http://www.w3.org/2000/svg" width="500" height="200" viewBox="0 0 500 200"><g fill="none" transform="translate(4 8.345)"><path fill="#757575" d="M27.6487698 111.051374 38.4372113 139.37781 17.5334764 139.37781 27.6532875 111.051374 27.6487698 111.051374ZM23.6008453 101.564051 0 163.593072 8.7644793 163.593072 14.8318482 146.741779 41.1252861 146.741779 47.192655 163.593072 55.9571343 163.593072 32.356289 101.564051 23.5918097 101.564051 23.6008453 101.564051ZM151.002039 163.647285 159.13403 163.647285 159.13403 101.609229 151.002039 101.609229 151.002039 163.63825 151.002039 163.647285ZM68.1009077 127.188859C70.7980181 123.140934 76.2328988 119.770676 81.5864596 119.770676 92.3749012 119.770676 97.7691219 127.188859 97.7691219 137.9773L97.7691219 164.270738 89.6371308 164.270738 89.6371308 139.323596C89.6371308 130.559117 84.9160582 127.184341 78.8486893 127.184341 72.1036545 127.184341 67.3870996 133.929376 67.3870996 139.996745L67.3870996 163.59759 59.2551085 163.59759 59.2551085 120.502555 67.3870996 120.502555 68.0647655 127.24759 68.1009077 127.188859ZM104.514157 150.834882C104.514157 141.347559 113.278636 135.998516 123.398447 135.998516 129.465816 135.998516 133.518258 137.353848 134.860037 138.695626L134.860037 137.340294C134.860037 130.595259 129.465816 127.220483 124.071595 127.220483 119.350523 127.220483 115.307116 129.244445 113.951784 133.287852L106.533601 129.917593C107.888933 125.869669 113.278636 119.797782 124.06256 119.797782 134.182371 119.797782 142.94685 125.865151 142.94685 138.004407L142.94685 163.629214 135.528667 163.629214 135.528667 157.561845 134.851001 157.561845C132.827039 160.932104 128.105967 164.980028 120.692301 164.980028 111.927822 164.980028 104.509639 159.585808 104.509639 150.821328M134.851001 145.427108C134.851001 145.427108 131.480743 142.729997 124.73119 142.729997 116.599199 142.729997 113.269601 147.45107 113.269601 150.861988 113.269601 155.583061 117.990673 157.607023 122.03408 157.607023 128.101449 157.607023 134.846484 152.212802 134.846484 145.467768M170.600138 182.531576 180.087461 160.281545 163.236168 121.171185 171.368159 121.171185 184.180563 150.839399 196.992967 121.171185 205.124958 121.171185 178.83152 182.531576 170.699529 182.531576 170.600138 182.531576ZM289.28203 135.32085C287.258068 129.926629 282.536995 126.55637 277.820441 126.55637 271.075406 126.55637 265.008037 132.623739 265.008037 141.392736 265.008037 150.161734 271.075406 156.229102 277.820441 156.229102 282.541513 156.229102 287.307763 152.858844 289.28203 148.097111L296.027065 152.145036C292.656807 159.563219 285.907254 164.284291 277.820441 164.284291 266.358851 164.284291 256.916706 154.16448 256.916706 141.356594 256.916706 127.871042 266.404029 118.428897 277.820441 118.428897 285.952432 118.428897 292.656807 123.14997 296.027065 130.568153L289.28203 135.289225 289.28203 135.32085ZM318.272579 164.993582C329.06102 164.993582 334.455241 158.926213 334.455241 151.50803 334.455241 135.325368 310.854396 141.388219 310.854396 131.955109 310.854396 128.58485 313.551506 126.560888 318.272579 126.560888 322.993651 126.560888 327.759901 128.58485 329.734168 131.955109L334.455241 127.234036C331.75813 123.863778 324.33543 119.102045 317.603948 119.102045 307.484137 119.102045 302.094434 125.169414 302.094434 132.587597 302.094434 148.097111 326.368427 142.707408 326.368427 150.794222 326.368427 154.842146 323.671317 157.539257 318.236436 157.539257 312.801556 157.539257 310.104445 154.168998 307.447995 150.794222L301.457428 155.560472C305.505352 159.608397 311.577239 165.047795 318.308721 165.047795L318.272579 164.993582ZM241.402674 163.647285 249.534665 163.647285 249.534665 120.493519 241.402674 120.493519 241.402674 163.647285 241.402674 163.647285ZM244.772932 99.6304443C248.143191 99.6304443 250.167153 102.327555 250.167153 105.024665 250.167153 108.394924 247.470043 110.418886 244.772932 110.418886 242.075822 110.418886 239.378711 107.721775 239.378711 105.024665 239.378711 102.327555 242.075822 99.6304443 244.772932 99.6304443ZM233.311343 156.947428 234.666674 163.014797 226.534683 163.014797C219.1165 163.014797 215.746242 157.620576 215.746242 149.529245L215.746242 128.54419 207.614251 128.54419 207.614251 120.412199 215.746242 120.412199 215.746242 107.681116 223.878233 107.681116 223.878233 120.493519 233.365556 120.493519 233.365556 128.62551 223.878233 128.62551 223.878233 150.875542C223.878233 156.942911 228.599305 156.942911 233.365556 156.942911L233.311343 156.947428ZM40.9987885 33.0294372 40.9987885 43.1492484 64.5996338 43.1492484C63.9219679 48.5434691 61.9025234 52.6365713 59.205413 55.288504 55.8351545 58.6587625 50.4409337 62.706687 40.9987885 62.706687 26.8400884 62.706687 15.373981 51.2450973 15.373981 36.4132491 15.373981 22.254549 26.8355706 10.1198112 40.9987885 10.1198112 49.1307796 10.1198112 54.4843404 13.4900697 58.5277471 16.864846L65.2727819 10.1198112C59.205413 4.72559039 51.78723 0 40.9987885 0 21.4458677 0 4.58553943 16.1826623 4.58553943 35.6904054 4.58553943 55.1981485 21.4368321 71.3808108 40.9987885 71.3808108 51.78723 71.3808108 59.8830789 68.0105523 65.9459301 61.2609997 72.6909649 54.5159648 74.7104094 45.7514855 74.7104094 38.3333025 74.7104094 36.3093403 74.7104094 33.6122299 74.0327435 32.2659336L40.9942707 32.2659336 40.9987885 33.0294372ZM101.003847 24.8974461C88.1914435 24.8974461 78.0761501 34.3847691 78.0761501 47.8251432 78.0761501 61.2655174 88.1959613 70.7528404 101.003847 70.7528404 107.101285 70.8076385 112.964927 68.4096494 117.27664 64.0979361 121.588353 59.7862228 123.986343 53.9225805 123.931544 47.8251432 123.931544 34.3395913 113.811733 24.8974461 101.003847 24.8974461L101.003847 24.8974461ZM101.003847 61.9431834C94.2588124 61.9431834 88.1914435 55.8758144 88.1914435 47.7844833 88.1914435 39.6931521 94.2588124 33.6709609 101.003847 33.6709609 107.748882 33.6709609 113.820769 39.0922883 113.820769 47.8115899 113.820769 56.5308915 107.7534 61.97029 101.008365 61.97029L101.003847 61.9431834ZM211.553749 29.6140009C208.856638 26.9168906 204.808714 24.2197802 198.741345 24.2197802 187.279755 24.2197802 177.164462 34.3395913 177.164462 47.1474773 177.164462 59.9553633 187.284273 70.0751745 198.741345 70.0751745 204.135566 70.0751745 208.861156 67.3780641 210.8806 64.6809537L211.558266 64.6809537 211.558266 68.0512122C211.558266 76.8156915 206.837194 81.5367641 199.419011 81.5367641 193.351642 81.5367641 189.2992 76.8156915 187.957421 73.404773L179.192942 76.7750316C181.890052 82.8424005 188.680265 90.2605835 199.423529 90.2605835 211.562784 90.2605835 221.67356 83.5155486 221.67356 65.98659L221.67356 24.183638 212.186237 24.183638 212.186237 29.5778588 211.553749 29.6140009ZM200.092159 61.9793255C193.347124 61.9793255 187.952903 55.9119566 187.952903 47.8206255 187.952903 39.7292943 193.347124 33.6619254 200.092159 33.6619254 206.837194 33.6619254 212.231415 39.7292943 212.231415 47.8206255 212.231415 55.9119566 206.837194 61.9793255 200.092159 61.9793255ZM150.861988 24.9335883C138.049585 24.9335883 127.934291 34.4209112 127.934291 47.8612854 127.934291 61.3016596 138.054102 70.7889826 150.861988 70.7889826 156.959426 70.8437806 162.823068 68.4457916 167.134781 64.1340783 171.446495 59.822365 173.844484 53.9587226 173.789685 47.8612854 174.467351 34.3757335 163.669874 24.9335883 150.861988 24.9335883ZM150.861988 61.9793255C144.116953 61.9793255 138.049585 55.9119566 138.049585 47.8206255 138.049585 39.7292943 144.116953 33.6619254 150.861988 33.6619254 157.607023 33.6619254 163.674392 39.0561462 163.674392 47.8206255 163.674392 56.5851048 157.607023 61.9793255 150.861988 61.9793255ZM229.173063.664112607 239.292874.664112607 239.292874 70.7889826 229.173063 70.7889826 229.173063.664112607ZM266.932608 62.0245033C261.538387 62.0245033 258.168129 59.3273929 255.471018 55.2794684L286.490047 42.4670647 285.134715 39.7699543C283.110753 34.3757335 277.002724 24.9335883 265.581794 24.9335883 253.442538 24.9335883 244.004911 34.4209112 244.004911 47.8612854 243.950113 53.9587226 246.348102 59.822365 250.659815 64.1340783 254.971528 68.4457916 260.835171 70.8437806 266.932608 70.7889826 277.72105 70.7889826 283.783901 64.0439477 286.485529 60.6691714L278.353538 55.2749506C275.656427 59.3228751 272.286169 62.0199855 266.891948 62.0199855L266.932608 62.0245033ZM266.254942 33.6980676C270.302867 33.6980676 273.673125 35.7220298 275.019421 39.0922883L254.115686 47.8567676C254.115686 37.7369565 260.860721 33.6980676 266.254942 33.6980676L266.254942 33.6980676Z" transform="translate(157.545)"/><g transform="translate(0 3.859)"><path fill="#F9AB00" d="M98.7037136,18.8433414 L98.7037136,137.287201 C98.7037136,150.540351 107.85624,157.925147 117.54715,157.925147 C126.520215,157.925147 136.390586,151.644033 136.390586,137.287201 L136.390586,19.7406433 C136.390586,7.59117466 127.417521,0 117.54715,0 C107.676778,0 98.7037136,8.37182738 98.7037136,18.8433414 Z"/><g fill="#E37400" transform="translate(0 60.12)"><path d="M49.3518568,18.8433414 L49.3518568,77.1679694 C49.3518568,90.4211195 58.504383,97.8059147 68.195293,97.8059147 C77.1683579,97.8059147 87.0387293,91.5248009 87.0387293,77.1679694 L87.0387293,19.7406433 C87.0387293,7.59117466 78.0656644,0 68.195293,0 C58.3249217,0 49.3518568,8.37182738 49.3518568,18.8433414 Z"/><circle cx="18.843" cy="78.963" r="18.843"/></g></g></g></svg>