<svg id="Layer_1" data-name="Layer 1" xmlns="http://www.w3.org/2000/svg" viewBox="0 0 300 300"><path d="M131.0528,150.003q0-29.11105-.01966-58.22206a7.9296,7.9296,0,0,1,6.5616-7.96913,7.7823,7.7823,0,0,1,1.3023-.089q7.86068-.00871,15.72137-.00287c1.81227.00088,2.61387.81825,2.61393,2.66165q.00128,34.14758.00066,68.29513c0,.33577-.01156.67217.00489,1.00716a2.35638,2.35638,0,0,0,1.64779,2.17388,2.24484,2.24484,0,0,0,2.6628-1.10838c.99379-1.74869,1.95985-3.51323,2.92827-5.27621q11.20994-20.40763,22.41547-40.81769,5.54172-10.09518,11.07131-20.197A13.11362,13.11362,0,0,1,203.3834,84.81a9.46621,9.46621,0,0,1,4.44447-1.09753c5.274.01734,10.54807.00449,15.82214.00753,2.25747.0013,3.26638,1.66932,2.1808,3.6532q-8.23172,15.0432-16.48372,30.07529c-4.736,8.64376-9.51769,17.26312-14.17772,25.94766a13.34008,13.34008,0,0,0-.00015,13.20993c5.05147,9.3882,10.22931,18.70846,15.35229,28.05826q6.21021,11.33411,12.41347,22.67206c.99821,1.823,2.01356,3.63686,2.99376,5.46949a2.23643,2.23643,0,0,1-.72937,3.15885,2.27385,2.27385,0,0,1-1.24532.3257c-5.54277-.007-11.08676.06332-16.62788-.03258-3.10456-.05373-5.5273-1.65487-7.51446-3.95782a30.2241,30.2241,0,0,1-3.28-5.40762q-7.96035-14.44638-15.88506-28.91236a2.55086,2.55086,0,0,0-1.92318-1.59368,2.38063,2.38063,0,0,0-2.52432,1.43509c-1.19826,2.21068-2.41939,4.409-3.63044,6.61276q-7.07229,12.86934-14.14626,25.73771a15.86838,15.86838,0,0,1-3.34478,4.376A6.66042,6.66042,0,0,1,150.489,216.293c-3.863-.02194-7.7263-.00026-11.58944-.00849a7.74629,7.74629,0,0,1-7.844-7.85777Q131.04583,179.21488,131.0528,150.003Z" fill="#4882f2"/><path d="M77.00559,120.59c0-9.67035.0791-19.34166-.03763-29.01061a7.976,7.976,0,0,1,7.93243-7.88328c10.78307.07032,21.567.05,32.3503-.00481a2.46014,2.46014,0,0,1,2.72962,2.6956c-.066,1.33986-.00188,2.68567-.01638,4.02862-.019,1.76242-.84041,2.56891-2.61961,2.56978-7.96167.0039-15.92391.05346-23.88463-.03313a4.27219,4.27219,0,0,0-4.373,4.34185c.0638,4.80075.00547,9.603.02236,14.40454a3.95694,3.95694,0,0,0,4.27879,4.25523q10.38041.00109,20.76081.00352a7.74049,7.74049,0,0,1,7.69762,5.75408,8.26667,8.26667,0,0,1,.3166,2.2828q-.00507,12.79308-.00644,25.58614a7.833,7.833,0,0,1-5.99183,7.73949,6.66534,6.66534,0,0,1-1.69719.16341c-9.94369.00212-19.88767-.04227-29.83093.02272a7.85255,7.85255,0,0,1-7.65718-7.70365C77.061,140.06546,77.00559,130.32749,77.00559,120.59Zm32.94316,16.2383c0-2.44824-.05444-4.898.01451-7.34433a4.18583,4.18583,0,0,0-4.31124-4.28564c-4.05835.08108-8.12022.07086-12.17917.00669a4.22068,4.22068,0,0,0-4.38679,4.32423q.0938,7.2429-.00154,14.48774a4.15686,4.15686,0,0,0,4.23782,4.24545q6.18969-.07552,12.38088.00178a4.08755,4.08755,0,0,0,4.26509-4.29315C109.879,141.59324,109.94883,139.20945,109.94875,136.82828Z" fill="#4882f2"/><path d="M257.05873,192.94934q0,10.32438-.00037,20.64876c-.00027,1.95662-.723,2.68723-2.66009,2.6877q-8.213.002-16.42607,0c-1.98652-.00047-2.73678-.74871-2.737-2.73739-.00128-15.20959-.02372-30.41922.00911-45.62874a26.14242,26.14242,0,0,1,8.09076-19.404,25.70089,25.70089,0,0,1,14.2059-6.99471,35.35657,35.35657,0,0,1,5.815-.38714c3.02314.01571,6.04738.05023,9.06916-.01526a2.43138,2.43138,0,0,1,2.57444,2.53625c-.07756,4.8-.02684,9.602-.03039,14.4033a2.17952,2.17952,0,0,1-2.4,2.4495,59.8186,59.8186,0,0,0-6.03417.15484,11.338,11.338,0,0,0-9.33773,9.63526c-.11,1.13929-.13749,2.27381-.13778,3.41307Q257.05707,183.33,257.05873,192.94934Z" fill="#4882f2"/><path d="M67.96293,120.66612c0,9.70322-.0399,19.40667.01858,29.10954a7.88341,7.88341,0,0,1-7.74989,7.7338c-10.883-.07321-21.767-.0491-32.65023.00165a2.33763,2.33763,0,0,1-2.57349-2.5871c.10138-1.43658.01322-2.886.0238-4.32966a2.153,2.153,0,0,1,2.21041-2.34039c.26758-.01776.53729-.00377.806-.00377,7.75953-.00009,15.51912-.014,23.27857.011a4.19809,4.19809,0,0,0,3.9354-1.94885,4.08573,4.08573,0,0,0,.60287-2.20038c.00575-4.902.02308-9.804-.00532-14.70586a4.03849,4.03849,0,0,0-4.23183-4.1541q-9.97653-.01122-19.95309-.003c-2.08187-.00034-2.79084-.70616-2.792-2.7721-.00072-1.30943-.00344-2.61888.00068-3.92829a2.28932,2.28932,0,0,1,2.59819-2.59213c6.68462-.00557,13.37-.05988,20.05339.03207a4.192,4.192,0,0,0,4.337-4.26333q-.01827-7.25218-.00241-14.50445a4.174,4.174,0,0,0-4.34972-4.25555c-7.92691.05768-15.85451.01938-23.78183.0255a2.72275,2.72275,0,0,1-1.89985-.49482,2.06941,2.06941,0,0,1-.81388-1.65379c.01648-1.6786-.01343-3.35775.01212-5.03612a2.129,2.129,0,0,1,2.04147-2.08385c.20066-.01352.403-.00307.60451-.00307q16.1741-.00009,32.34819.00069a7.76028,7.76028,0,0,1,7.84179,6.33387,7.03279,7.03279,0,0,1,.08878,1.50285Q67.96476,106.1113,67.96293,120.66612Z" fill="#4882f2"/></svg>