<?xml version="1.0" encoding="UTF-8"?>
<svg viewBox="0 0 512 180" version="1.1" xmlns="http://www.w3.org/2000/svg"
  xmlns:xlink="http://www.w3.org/1999/xlink">
  <title>com.google</title>
  <g id="页面-1" stroke="none" stroke-width="1" fill="none" fill-rule="evenodd">
    <g id="com.google" transform="translate(7.000000, 9.000000)" fill-rule="nonzero">
      <path
        d="M121.969067,57.3499414 L64.0888897,57.3499414 L64.0888897,74.4986079 L105.141284,74.4986079 C103.107156,98.5021249 83.075622,108.805173 64.158235,108.805173 C52.0521945,108.858281 40.4325884,104.05167 31.9110169,95.4656633 C23.3894454,86.8796569 18.6808115,75.2345643 18.8434188,63.147714 C18.8434188,37.1869871 38.9720364,17.1994431 64.2137112,17.1994431 C83.6858603,17.1994431 95.1601894,29.5935668 95.1601894,29.5935668 L107.180035,17.1578986 C107.180035,17.1578986 91.7391566,0 63.5849808,0 C27.7334812,0 0,30.212119 0,62.8430539 C0,94.8185082 26.087687,126 64.4910922,126 C98.2714801,126 123,102.891999 123,68.7239156 C123,61.5136284 121.950575,57.3499414 121.950575,57.3499414 L121.969067,57.3499414 Z"
        id="路径" fill="#4885ED"></path>
      <g id="A-link" transform="translate(129.000000, 45.000000)" fill="#DB3236">
        <path
          d="M41.0395506,0.00461643679 C17.1323838,0.00461643679 0,18.548843 0,40.1676166 C0,62.1141571 16.6112467,81 41.3187312,81 C63.6810986,81 82,64.0438277 82,40.6384931 C82,13.8631597 60.689213,0 41.0395506,0 L41.0395506,0.00461643679 Z M41.2722011,15.9128576 C53.025705,15.9128576 64.1650116,25.344238 64.1650116,40.5369315 C64.1650116,55.401858 53.0722351,65.1056081 41.216365,65.1056081 C28.1879362,65.1056081 17.9513136,54.7555568 17.9513136,40.4169041 C17.9513136,26.3829363 28.094876,15.9128576 41.3094252,15.9128576 L41.2722011,15.9128576 Z"
          id="A"></path>
      </g>
      <g id="A-link" transform="translate(218.000000, 45.000000)" fill="#F4C20D">
        <path
          d="M41.0395506,0.00461643679 C17.1323838,0.00461643679 0,18.548843 0,40.1676166 C0,62.1141571 16.6112467,81 41.3187312,81 C63.6810986,81 82,64.0438277 82,40.6384931 C82,13.8631597 60.689213,0 41.0395506,0 L41.0395506,0.00461643679 Z M41.2722011,15.9128576 C53.025705,15.9128576 64.1650116,25.344238 64.1650116,40.5369315 C64.1650116,55.401858 53.0722351,65.1056081 41.216365,65.1056081 C28.1879362,65.1056081 17.9513136,54.7555568 17.9513136,40.4169041 C17.9513136,26.3829363 28.094876,15.9128576 41.3094252,15.9128576 L41.2722011,15.9128576 Z"
          id="A"></path>
      </g>
      <path
        d="M346.060293,45 C324.188013,45 307,64.1639796 307,85.6758946 C307,110.176091 326.929005,126.426032 345.679986,126.426032 C357.274706,126.426032 363.443097,121.818325 367.941848,116.53315 L367.941848,124.560676 C367.941848,138.606528 359.41741,147.01919 346.551909,147.01919 C334.122369,147.01919 327.889047,137.771294 325.681413,132.52788 L310.042455,139.024145 C315.589369,150.763822 326.757403,163 346.68177,163 C368.479843,163 385,149.297523 385,120.556193 L385,47.4453795 L368.006778,47.4453795 L368.006778,54.3407 C362.765965,48.6796697 355.586514,45 346.069568,45 L346.060293,45 Z M347.637174,60.9622493 C358.359971,60.9622493 369.370318,70.1219819 369.370318,85.7640582 C369.370318,101.665985 358.378523,110.426661 347.400642,110.426661 C335.740992,110.426661 324.892972,100.960676 324.892972,85.9125442 C324.892972,70.2843885 336.16304,60.9576091 347.637174,60.9576091 L347.637174,60.9622493 Z"
        id="形状" fill="#4885ED"></path>
      <path
        d="M461.169351,45 C440.421792,45 423,61.3263679 423,85.4008427 C423,110.88658 442.418185,126 463.114435,126 C480.428945,126 491.10125,116.637704 497.398283,108.243922 L483.250948,98.9369698 C479.580011,104.563571 473.44157,110.074873 463.20306,110.074873 C451.700479,110.074873 446.410971,103.848716 443.131849,97.8070375 L498,75.300632 L495.201318,68.7055173 C489.902481,55.7920059 477.536974,45 461.174016,45 L461.169351,45 Z M461.883015,60.5607812 C469.360159,60.5607812 474.738292,64.4901782 477.023882,69.2036099 L440.379812,84.3447019 C438.793893,72.6210784 450.035263,60.5607812 461.83637,60.5607812 L461.883015,60.5607812 Z"
        id="形状" fill="#DB3236"></path>
      <polygon id="路径" fill="#3CBA54" points="397 124 415 124 415 4 397 4"></polygon>
    </g>
  </g>
</svg>