<svg xmlns="http://www.w3.org/2000/svg" width="500" height="200" viewBox="0 0 500 200"><g fill="none" transform="translate(4 20)"><path fill="#4885ED" d="M119.98583,56.4396249 L63.0467939,56.4396249 L63.0467939,73.3160903 L103.43167,73.3160903 C101.430617,96.9385991 81.7247989,107.078107 63.1150117,107.078107 C51.2058174,107.130372 39.7751479,102.400056 31.3921386,93.9503353 C23.0091292,85.5006147 18.3770585,74.0403649 18.5370217,62.1453693 C18.5370217,36.5967175 38.3383448,16.9264361 63.1695858,16.9264361 C82.3251146,16.9264361 93.6128692,29.1238276 93.6128692,29.1238276 L105.43727,16.885551 C105.43727,16.885551 90.247463,0 62.5510787,0 C27.2825303,0 0,29.7325616 0,61.8455451 C0,93.3134525 25.663497,124 63.4424566,124 C96.6735699,124 121,101.258793 121,67.6330598 C121,60.5372216 119.967639,56.4396249 119.967639,56.4396249 L119.98583,56.4396249 Z"/><path fill="#DB3236" d="M40.5390683,0.00455944374 C16.9234523,0.00455944374 0,18.3198449 0,39.6717201 C0,61.3473157 16.4086705,80 40.8148442,80 C62.9044998,80 81,63.2531632 81,40.1367833 C81,13.6920096 59.9491006,0 40.5390683,0 L40.5390683,0.00455944374 Z M40.7688816,15.7164026 C52.3790501,15.7164026 63.3825115,25.0313462 63.3825115,40.0364756 C63.3825115,54.7178844 52.4250127,64.3018352 40.7137264,64.3018352 C27.8441809,64.3018352 17.7323951,54.0795623 17.7323951,39.91793 C17.7323951,26.057221 27.7522556,15.7164026 40.8056517,15.7164026 L40.7688816,15.7164026 Z" transform="translate(127 44)"/><path fill="#F4C20D" d="M40.5390683,0.00455944374 C16.9234523,0.00455944374 0,18.3198449 0,39.6717201 C0,61.3473157 16.4086705,80 40.8148442,80 C62.9044998,80 81,63.2531632 81,40.1367833 C81,13.6920096 59.9491006,0 40.5390683,0 L40.5390683,0.00455944374 Z M40.7688816,15.7164026 C52.3790501,15.7164026 63.3825115,25.0313462 63.3825115,40.0364756 C63.3825115,54.7178844 52.4250127,64.3018352 40.7137264,64.3018352 C27.8441809,64.3018352 17.7323951,54.0795623 17.7323951,39.91793 C17.7323951,26.057221 27.7522556,15.7164026 40.8056517,15.7164026 L40.7688816,15.7164026 Z" transform="translate(215 44)"/><path fill="#4885ED" d="M341.55952,44 C319.967654,44 303,63.001573 303,84.3311836 C303,108.623751 322.673505,124.735981 341.184089,124.735981 C352.630158,124.735981 358.719468,120.167322 363.160542,114.926937 L363.160542,122.886433 C363.160542,136.813252 354.745392,145.154621 342.044833,145.154621 C329.774646,145.154621 323.621239,135.985097 321.441908,130.786118 L306.003449,137.22733 C311.479249,148.867518 322.504103,161 342.173029,161 C363.69164,161 380,147.413646 380,118.915886 L380,46.4246559 L363.22464,46.4246559 L363.22464,53.2615415 C358.051017,47.6484861 350.96361,44 341.568676,44 L341.55952,44 Z M343.116185,59.826976 C353.70151,59.826976 364.570699,68.9090837 364.570699,84.4186001 C364.570699,100.185765 353.719824,108.872198 342.882685,108.872198 C331.372518,108.872198 320.663575,99.486433 320.663575,84.5658277 C320.663575,69.070114 331.789155,59.8223751 343.116185,59.8223751 L343.116185,59.826976 Z"/><path fill="#DB3236" d="M455.660426,44 C435.189501,44 418,60.1248078 418,83.9020669 C418,109.073165 437.159276,124 457.579576,124 C474.663226,124 485.193233,114.753288 491.406306,106.463133 L477.447602,97.2710813 C473.825611,102.828218 467.769016,108.27148 457.667019,108.27148 C446.317806,108.27148 441.098825,102.122189 437.863424,96.1550988 L492,73.9265501 L489.238634,67.4128566 C484.010448,54.6587713 471.809814,44 455.665029,44 L455.660426,44 Z M456.364575,59.3686728 C463.742024,59.3686728 469.048448,63.2495587 471.303564,67.9047999 L435.148081,82.8589648 C433.583308,71.2800774 444.674793,59.3686728 456.318552,59.3686728 L456.364575,59.3686728 Z"/><polygon fill="#3CBA54" points="392 123 410 123 410 4 392 4"/></g></svg>