<svg xmlns="http://www.w3.org/2000/svg" width="500" height="200" viewBox="0 0 500 200"><g fill="none" fill-rule="evenodd" transform="translate(4 43.345)"><g fill-rule="nonzero"><path fill="#4285F4" d="M10.24016,112.678721 L34.13824,112.678721 L34.13824,54.6489611 L1.42397974e-14,29.0452811 L1.42397974e-14,102.438561 C1.42397974e-14,108.093281 4.58544,112.678721 10.24016,112.678721"/><path fill="#34A853" d="M116.06608,112.678721 L139.96416,112.678721 C145.61888,112.678721 150.20432,108.093281 150.20432,102.438561 L150.20432,29.0452811 L116.06608,54.6489611 L116.06608,112.678721 Z"/><path fill="#FBBC04" d="M116.06608,10.2705611 L116.06608,54.6489611 L150.20432,29.0452811 L150.20432,15.3939211 C150.20432,2.73968109 135.7592,-4.48943891 125.624,3.10704109 L116.06608,10.2705611 Z"/><polygon fill="#EA4335" points="34.138 54.642 34.138 10.271 75.105 40.991 116.066 10.271 116.066 54.642 75.105 85.369"/><path fill="#C5221F" d="M4.89493035e-15,15.3873611 L4.89493035e-15,29.0387211 L34.13824,54.6424011 L34.13824,10.2640011 L24.58032,3.10048109 C14.45168,-4.49599891 4.89493035e-15,2.73312109 4.89493035e-15,15.3873611"/></g><path fill="#787879" d="M277.48144,56.0921611 C283.392,56.0921611 289.30912,56.0987211 295.21968,56.0856011 C296.01344,56.0856011 296.64976,56.0856011 296.76128,57.1352011 C297.86992,67.5918411 296.29552,77.4252811 289.56496,85.8548811 C282.8344,94.2844811 273.97184,98.8699211 263.20688,99.8801611 C255.03968,100.641121 247.1152,99.8145611 239.80736,95.9441611 C227.15312,89.2398411 219.31392,78.9340811 217.5624,64.5086411 C216.02736,51.8478411 218.99248,40.4334411 227.80256,30.8952011 C237.26208,20.6550411 249.0504,16.5288011 262.8264,17.8736011 C271.64304,18.7329611 279.56752,21.7440011 286.0488,28.0022411 C287.4592,29.3667211 287.44608,29.3864011 286.06848,30.7640011 C284.33008,32.5089611 282.56544,34.2276811 280.85328,35.9988811 C280.31536,36.5499211 280.02672,36.5368011 279.46256,35.9792011 C270.71808,27.2806411 260.13024,25.3782411 248.77488,28.8025611 C237.42608,32.2203211 230.49872,40.3284811 228.24864,51.9921611 C226.39872,61.5632011 227.77632,70.6947211 233.92304,78.5995211 C241.13248,87.8753611 250.84128,91.3521611 262.3672,90.1910411 C268.468,89.5744011 273.9128,87.3899211 278.5048,83.2702411 C283.38544,78.8881611 285.85856,73.2859211 286.8032,66.8899211 C286.99344,65.6238411 286.40304,65.5582411 285.41248,65.5648011 C276.83856,65.5910411 268.26464,65.5582411 259.69072,65.6041611 C258.56896,65.6107211 258.12288,65.3680011 258.18192,64.1544011 C258.28032,61.9436811 258.26064,59.7198411 258.18848,57.5025611 C258.15568,56.4201611 258.464,56.0659211 259.59232,56.0790411 C265.55536,56.1249611 271.5184,56.0921611 277.48144,56.0921611"/><path fill="#79797A" d="M317.77952 51.6838411C322.12224 45.8126411 327.8688 42.4342411 335.20288 42.5720011 342.55008 42.7097611 348.25728 45.9110411 351.66848 52.8056011 353.07888 50.8704011 354.5024 49.0729611 356.25392 47.5444811 362.51216 42.0865611 373.0672 40.8336011 380.37504 44.8089611 385.7936 47.7478411 388.30608 52.6678411 389.3688 58.4996811 389.75584 60.6382411 389.87392 62.8096011 389.88048 64.9744011 389.91328 75.6147211 389.88048 86.2616011 389.919951 96.9019211 389.9264 98.0499211 389.64432 98.4369611 388.45696 98.3910411 386.09536 98.2992011 383.7272 98.2926411 381.3656 98.3910411 380.06672 98.4435211 379.62064 98.1417611 379.63376 96.7248011 379.69936 86.7208011 379.66656 76.7168011 379.67312 66.7193611 379.67312 64.3971211 379.58128 62.0945611 379.04992 59.8248011 377.88224 54.8654411 374.8056 52.2545611 369.70192 51.9265611 361.73808 51.4214411 355.53888 56.5644811 354.19408 64.7644811 353.9448 66.2798411 353.8792 67.7952011 353.8792 69.3236811 353.88576 78.5404811 353.86608 87.7507211 353.90544 96.9675211 353.912 98.0302411 353.70208 98.4369611 352.54096 98.3910411 350.02848 98.2992011 347.516 98.2926411 345.00352 98.3910411 343.82928 98.4369611 343.63904 97.9908811 343.6456 96.9544011 343.6784 86.9504011 343.67184 76.9464011 343.66528 66.9489611 343.66528 64.4889611 343.6128 62.0289611 342.99616 59.6148811 341.76944 54.7998411 338.75184 52.2611211 333.77936 51.9331211 325.52688 51.3886411 319.11776 56.9121611 318.0944 65.4204811 317.91072 66.9424011 317.832 68.4577611 317.83856 69.9862411 317.85168 78.8094411 317.85168 87.6260811 317.83856 96.4492811 317.832 98.6731211 318.15344 98.3451211 315.85088 98.3648011 313.58112 98.3844811 311.31792 98.3254411 309.05472 98.3910411 308.0576 98.4238411 307.70336 98.1876811 307.709831 97.1118411 307.74272 79.9180811 307.74272 62.7177611 307.71648 45.5174411 307.71648 44.5400011 308.00512 44.2448011 308.96944 44.2710411 311.38352 44.3300811 313.7976 44.3300811 316.21168 44.2710411 317.16288 44.2448011 317.5368 44.4940811 317.49088 45.4977611 317.41872 47.0721611 317.45152 48.6531211 317.48432 50.2275211 317.48432 50.6736011 317.28752 51.1852811 317.77952 51.6838411M436.37776 90.9520011C435.65616 91.0504011 435.49872 91.4505611 435.27568 91.7523211 430.36224 98.4041611 423.76944 100.956001 415.63504 99.8867211 409.43584 99.0732811 404.37808 96.3049611 400.9144 91.0897611 394.8792 81.9910411 398.5528 69.9600011 408.8192 65.7091211 417.52432 62.1076811 426.38688 62.3569611 435.10512 65.9715211 436.08256 66.3782411 436.35808 66.4700811 436.41056 65.2105611 436.74512 56.8531211 429.49632 51.9528011 423.42832 51.6248011 417.708 51.3164811 413.01104 53.3041611 409.52768 57.9092811 408.97008 58.6440011 408.59616 58.6308811 407.88112 58.1585611 405.61792 56.6760011 403.34816 55.1934411 400.99968 53.8486411 399.90416 53.2188811 400.12064 52.7531211 400.74384 51.9724811 404.15504 47.6363211 408.51744 44.7236811 413.87696 43.4641611 420.5944 41.8897611 427.29872 42.0012811 433.70784 44.7892811 441.08784 48.0036811 445.12224 53.8224011 445.8504 61.7731211 446.49984 68.8907211 446.0144 76.0476811 446.09968 83.1915211 446.15216 87.7704011 446.08 92.3558411 446.13248 96.9347211 446.1456 97.9843211 445.9488 98.4238411 444.77456 98.3779211 442.36704 98.2795211 439.9464 98.3123211 437.53232 98.3648011 436.6336 98.3844811 436.32528 98.1417611 436.35808 97.2102411 436.42368 95.1700811 436.37776 93.1168011 436.37776 90.9520011M423.82192 71.4359615C419.35456 71.4294411 415.50384 72.2363211 412.23696 74.8603211 409.29152 77.2219211 407.92048 80.2657611 408.95696 83.9918411 410 87.7376011 412.90608 89.6859211 416.44848 90.6240011 425.10768 92.9134411 434.84928 86.2616011 436.20064 77.3728011 436.46304 75.6606411 436.03008 74.7816011 434.54752 73.9812811 431.0576 72.0920011 427.31184 71.5606411 423.82192 71.4359615M463.57552 18.3064752C467.68864 18.3262411 470.98832 21.6193611 470.994919 25.7193611 471.008 29.8980811 467.728 33.1649611 463.48368 33.1977611 459.44272 33.2305611 456.07088 29.8652811 456.03808 25.7784011 456.01184 21.6521611 459.3968 18.2868811 463.57552 18.3064752"/><path fill="#7A7A7B" d="M468.6136,71.3179211 C468.6136,79.7409611 468.56112,88.1640011 468.65952,96.5870411 C468.6792,98.1614411 468.19376,98.4632011 466.77024,98.3976011 C464.36272,98.2860811 461.94208,98.3254411 459.53456,98.3844811 C458.60304,98.4041611 458.38,98.0761611 458.38,97.1971211 C458.39968,79.9574411 458.39968,62.7177611 458.37344,45.4780811 C458.37344,44.4744011 458.72112,44.2382411 459.6592,44.2579211 C462.2176,44.3169611 464.78256,44.3300811 467.34096,44.2513611 C468.4168,44.2185611 468.63984,44.6056011 468.63328,45.6027211 C468.60048,54.1766411 468.6136,62.7440011 468.6136,71.3179211"/><path fill="#787879" d="M492,98.3451211 C489.09392,98.3451211 486.18784,98.2860811 483.28832,98.3844811 C482.06816,98.4238411 481.85168,97.9908811 481.85168,96.8822411 C481.88448,78.2321611 481.87136,59.5820811 481.87136,40.9320011 C481.87136,34.2408011 481.8976,27.5496011 481.85168,20.8518411 C481.84512,19.7432011 482.06816,19.3102411 483.28832,19.3496011 C486.18784,19.4480011 489.09392,19.3889611 492,19.3889611 L492,98.3451211 Z"/></g></svg>