<svg xmlns="http://www.w3.org/2000/svg" width="500" height="200" viewBox="0 0 500 200"><g fill="none" fill-rule="evenodd" transform="translate(4 44)"><g fill="#FF6A00" fill-rule="nonzero" stroke="#000"><polygon points="75.367 54.873 111.168 54.873 111.168 59.214 75.367 59.214"/><path d="M272.097492,101.918444 C288.491699,101.518539 294.400566,90.2640921 294.400566,80.3807445 L294.400566,21.1377935 L296.659838,21.1377935 L298.91911,12.1685129 L250.19993,12.1685129 L252.459202,21.1377935 L285.247617,21.1377935 L285.247617,79.466679 C285.247617,87.9789253 278.87531,93.4061966 269.78029,93.4061966 L272.097493,101.918444 L272.097492,101.918444 Z"/><path d="M273.951254,81.4090695 C276.210526,79.1810321 277.137407,76.0389268 277.137407,71.0686891 L277.137407,28.8502323 L250.721301,28.8502323 L250.721301,84.5511747 L265.319676,84.5511747 C268.911339,84.5511747 272.097493,83.6371077 273.951255,81.4090703 L273.951254,81.4090695 Z M259.816319,75.1248614 L259.816319,37.8195114 L267.984458,37.8195114 L267.984458,70.1546229 C267.984458,73.7537608 266.594136,75.0677312 263.407983,75.0677312 L259.816319,75.0677312 L259.816319,75.1248614 L259.816319,75.1248614 Z M213.819852,11.311576 L213.819852,101.575667 L222.91487,101.575667 L222.91487,20.7950179 L233.863651,20.7950179 L227.027905,49.0739588 C229.750617,51.3019962 234.790533,57.1291716 234.790533,67.0125184 C234.790533,76.8958653 228.881667,80.495004 227.027905,81.4090695 L227.027905,90.8353828 C232.00989,90.3783501 244.348993,83.6371069 244.348993,67.4695511 C244.348993,57.5862051 240.699399,50.8449619 237.513245,46.388887 L245.681384,11.3687046 L213.819852,11.311576 L213.819852,11.311576 Z M316.298128,92.6063875 L314.502296,101.575668 L395.54645,101.575668 L393.229248,92.6063875 L359.513953,92.6063875 L359.513953,81.4090695 L390.506536,81.4090695 L388.247263,72.4397889 L359.108443,72.4397889 L359.108443,61.1853422 L380.021195,61.1853422 C390.043096,61.1853422 395.025081,56.2722339 395.025081,46.3888863 L395.025081,11.3687038 L314.444368,11.3687038 L314.444368,61.1853422 L349.955494,61.1853422 L349.955494,71.9827561 L320.816673,71.9827561 L318.557401,80.9520368 L349.549984,80.9520368 L349.549984,92.6063875 L316.298129,92.6063875 L316.298128,92.6063875 Z M359.513952,40.9616158 L380.890144,40.9616158 L378.630872,31.9923352 L359.513952,31.9923352 L359.513952,20.7378886 L385.930058,20.7378886 L385.930058,45.8747249 C385.930058,50.3879291 384.134226,52.158933 380.484633,52.158933 L359.513952,52.158933 L359.513952,40.961615 L359.513952,40.9616158 Z M324.002825,52.2160624 L324.002825,20.7950179 L350.418933,20.7950179 L350.418933,32.0494654 L331.302013,32.0494654 L329.04274,40.9616158 L350.418933,40.9616158 L350.418933,52.2160624 L324.002825,52.2160624 L324.002825,52.2160624 Z M483.368421,11.311576 L419.645354,11.311576 L417.386082,20.7378894 L485.685623,20.7378894 L483.368421,11.311576 L483.368421,11.311576 Z M415.995761,100.71873 L415.53232,101.632797 L477.922995,101.632797 C481.572588,101.632797 484.295302,100.71873 486.091134,98.4906931 C487.886966,95.8056213 487.481455,92.6635177 486.554574,90.8353836 C485.627693,86.3221794 481.978099,70.6116572 481.109148,68.383619 L481.109148,67.9265862 L471.550688,67.9265862 L472.014129,68.8406525 C472.47757,71.0686899 476.590604,87.2362456 477.459554,92.6635185 L427.350053,92.6635185 C429.609325,82.3231381 433.72236,64.3845777 435.981632,55.815202 L492,55.815202 L489.740728,46.8459214 L413.215118,46.8459214 L410.955845,55.815202 L426.423172,55.815202 C424.62734,63.8704148 419.181914,86.3221802 415.995761,100.718732 L415.995761,100.71873 Z M33.4256442,87.4076338 C29.6022604,86.5506954 26.705757,83.3514615 26.705757,79.2952908 L26.705757,34.7345363 C26.9954073,30.6783656 29.6601901,27.4791318 33.4256442,26.6221933 L75.3670076,17.6529143 L79.7696919,0 L31.0505116,0 C13.7873535,0.0571285977 0,13.6538722 0,30.4498488 L0,83.1229456 C0,99.9189214 14.0770045,113.80131 31.1084429,113.80131 L79.8276232,113.80131 L75.4249389,96.1483969 L33.4256442,87.4076338 L33.4256442,87.4076338 Z M155.484281,0.0571285977 L106.475451,0.0571285977 L110.878135,17.7100429 L152.819498,26.6793235 C156.642882,27.5362612 159.539385,30.7354942 159.539385,34.7916649 L159.539385,79.3524194 C159.249735,83.4085917 156.584952,86.6078248 152.819498,87.4647624 L110.878135,96.434043 L106.475451,114.086957 L155.484281,114.086957 C172.515719,114.086957 186.592724,100.490214 186.592724,83.4085917 L186.592724,30.4498488 C186.245143,13.653873 172.457789,0.0571285977 155.484281,0.0571285977 L155.484281,0.0571285977 Z"/></g><g transform="translate(244.472 57.044)"><rect width="4.075" height="1.019" transform="translate(0 .083)"/><polygon points="0 .095 2.039 .095 2.039 .68 0 .68"/><g fill="#373C41" fill-rule="nonzero" transform="translate(.926 .244)"><path d="M1.72749178,0.655588701 L1.70960358,0.655588701 C1.68734271,0.655588701 1.669057,0.758502192 1.669057,0.886295869 L1.669057,1.18485809 C1.669057,1.31152085 1.68734271,1.41556525 1.70960358,1.41556525 L1.72749178,1.41556525 C1.74975265,1.41556525 1.76803837,1.31265176 1.76803837,1.18485809 L1.76803837,0.886295869 C1.76803837,0.758502192 1.74975265,0.655588701 1.72749178,0.655588701 Z M1.74478371,1.18372717 C1.74478371,1.23801121 1.73703215,1.28211699 1.72749178,1.28211699 L1.70960358,1.28211699 C1.70006321,1.28211699 1.69231166,1.23801121 1.69231166,1.18372717 L1.69231166,0.885164951 C1.69231166,0.830880912 1.70006321,0.78677513 1.70960358,0.78677513 L1.72749178,0.78677513 C1.73703215,0.78677513 1.74478371,0.830880912 1.74478371,0.885164951 L1.74478371,1.18372717 Z M0.864684328,0.404525018 L0.887938987,0.404525018 L0.887938987,1.39747057 L0.864684328,1.39747057 L0.864684328,0.404525018 Z M0.914970043,0.672552463 L0.938224701,0.672552463 L0.938224701,1.39747057 L0.914970043,1.39747057 L0.914970043,0.672552463 Z M0.781206067,0.404525018 L0.752982465,0.404525018 C0.742249546,0.511962179 0.716808552,0.808262562 0.690572527,1.39747057 L0.714820974,1.39747057 C0.718994887,1.30699718 0.722970043,1.2244402 0.726945198,1.14866873 L0.811814763,1.14866873 C0.815789918,1.2244402 0.819765074,1.30699718 0.823938987,1.39747057 L0.848187434,1.39747057 C0.821951409,0.808262562 0.796510415,0.511962179 0.785777496,0.404525018 L0.781206067,0.404525018 L0.781206067,0.404525018 Z M1.62453526,0.4033941 L1.64778992,0.4033941 L1.64778992,1.39747057 L1.62453526,1.39747057 L1.62453526,0.4033941 Z M1.0535042,0.707610905 C1.04078371,0.649934113 1.01951663,0.639755856 0.988709173,0.675945216 L0.988709173,0.404525018 L0.965454515,0.404525018 L0.965454515,1.39747057 L0.987715384,1.39747057 C0.999243335,1.40877975 1.01037377,1.41443434 1.0187216,1.41443434 C1.03342967,1.41443434 1.04475886,1.39633966 1.05290793,1.3601503 C1.06682097,1.29794984 1.06682097,1.2052146 1.06682097,1.1599779 L1.06682097,0.897605044 C1.06662222,0.855761097 1.06682097,0.767549532 1.0535042,0.707610905 Z M1.04336756,1.12265762 L1.04336756,1.1599779 C1.04336756,1.20069093 1.04297004,1.23574937 1.03839861,1.25610589 C1.0342247,1.27533149 1.01951663,1.30021167 0.988709173,1.26402231 L0.988709173,0.810524397 C1.0238893,0.765287697 1.03561601,0.79582247 1.03899489,0.811655314 C1.04297004,0.829749994 1.04336756,0.860284767 1.04336756,0.898735961 L1.04336756,1.12265762 L1.04336756,1.12265762 Z M1.50587687,0.827488159 L1.50587687,0.651065031 C1.50587687,0.638624938 1.50706942,0.573031724 1.5217775,0.552675209 C1.54900731,0.514224014 1.58100731,0.543627869 1.59710669,0.580948146 L1.60287066,0.452023552 C1.58816259,0.42148878 1.56908184,0.4033941 1.55019986,0.4033941 C1.53847315,0.4033941 1.52674644,0.410179605 1.51621228,0.424881532 C1.48957874,0.46220181 1.48262222,0.589995486 1.48262222,0.652195948 L1.48262222,1.16676341 C1.48262222,1.22896387 1.48957874,1.35675755 1.51621228,1.39407782 C1.52674644,1.40877975 1.53827439,1.41556525 1.55019986,1.41556525 C1.56888309,1.41556525 1.58776507,1.39860149 1.60227439,1.36806672 L1.59651042,1.23914213 C1.58021228,1.27533149 1.54860979,1.30360442 1.5217775,1.26515323 C1.50687066,1.2436658 1.50587687,1.1792035 1.50587687,1.16676341 L1.50587687,0.827488159 L1.50587687,0.827488159 Z M1.861057,1.26515323 C1.83124333,1.30021167 1.81971538,1.27533149 1.81554147,1.25610589 C1.81097004,1.23574937 1.81057253,1.20069093 1.81057253,1.1599779 L1.81057253,0.671421546 L1.78731787,0.671421546 L1.78731787,1.1599779 C1.78731787,1.2052146 1.78731787,1.29794984 1.80123091,1.3601503 C1.80937998,1.39633966 1.82070917,1.41443434 1.83541725,1.41443434 C1.84356632,1.41443434 1.85290793,1.40877975 1.86344209,1.39747057 L1.88451042,1.39747057 L1.88451042,0.672552463 L1.86125576,0.672552463 L1.86125576,1.26515323 L1.861057,1.26515323 L1.861057,1.26515323 Z M2.00018743,0.404525018 L1.97693278,0.404525018 L1.97693278,0.670290628 C1.94870917,0.640886773 1.9288334,0.653326866 1.91670917,0.707610905 C1.9033924,0.767549532 1.90359116,0.855761097 1.90359116,0.898735961 L1.90359116,1.15884698 C1.90359116,1.20408368 1.90359116,1.29681892 1.9175042,1.35901938 C1.92565327,1.39520874 1.93698246,1.41330342 1.95169054,1.41330342 C1.95983961,1.41330342 1.96918122,1.40764883 1.97971538,1.39633966 L2.00038619,1.39633966 L2.00038619,0.404525018 L2.00018743,0.404525018 L2.00018743,0.404525018 Z M1.93181476,1.25610589 C1.92724333,1.23574937 1.92684582,1.20069093 1.92684582,1.1599779 L1.92684582,0.898735961 C1.92684582,0.860284767 1.92704458,0.829749994 1.93121849,0.811655314 C1.93459737,0.796953387 1.94552905,0.76868045 1.97693278,0.80486981 L1.97693278,1.26515323 C1.94751663,1.29908075 1.93598868,1.27533149 1.93181476,1.25610589 L1.93181476,1.25610589 Z M1.1697775,0.703087235 C1.1467216,0.609221084 1.10378992,0.679337968 1.09345451,0.698563565 L1.09921849,0.827488159 C1.11273402,0.801477057 1.1443365,0.763025862 1.15626197,0.811655314 C1.1584483,0.820702654 1.1608334,0.835404582 1.1608334,0.876117611 L1.1608334,0.969983763 C1.15109427,0.960936423 1.13718122,0.954150918 1.12108184,0.969983763 C1.10617501,0.983554773 1.09544209,1.01861322 1.08888309,1.07176634 C1.08311911,1.11926487 1.08133029,1.1792035 1.08391414,1.24479671 C1.08808806,1.35449571 1.10378992,1.41782709 1.12744209,1.41782709 C1.13718122,1.41782709 1.15069675,1.41104158 1.16123091,1.40086333 L1.1838893,1.40086333 L1.1838893,0.873855776 C1.18408806,0.781120542 1.1763365,0.729098338 1.1697775,0.703087235 L1.1697775,0.703087235 Z M1.41544209,0.703087235 C1.39238619,0.609221084 1.34965327,0.679337968 1.33911911,0.698563565 L1.34488309,0.827488159 C1.35839861,0.801477057 1.3900011,0.763025862 1.40192656,0.811655314 C1.4041129,0.820702654 1.40649799,0.835404582 1.40649799,0.876117611 L1.40649799,0.969983763 C1.39675886,0.960936423 1.38284582,0.954150918 1.36674644,0.969983763 C1.35183961,0.983554773 1.34090793,1.01861322 1.33454768,1.07176634 C1.32878371,1.11926487 1.32719365,1.1792035 1.32957874,1.24479671 C1.33375265,1.35449571 1.34945451,1.41782709 1.37310669,1.41782709 C1.38284582,1.41782709 1.39636135,1.41104158 1.40689551,1.40086333 L1.42955389,1.40086333 L1.42955389,0.873855776 C1.42995141,0.781120542 1.4220011,0.729098338 1.41544209,0.703087235 L1.41544209,0.703087235 Z M1.29936756,0.707610905 C1.28664706,0.649934113 1.26537998,0.639755856 1.23457253,0.675945216 L1.23457253,0.404525018 L1.21131787,0.404525018 L1.21131787,1.39747057 L1.23357874,1.39747057 C1.24510669,1.40877975 1.25623712,1.41443434 1.26458495,1.41443434 C1.27929302,1.41443434 1.29062222,1.39633966 1.29877128,1.3601503 C1.31268433,1.29794984 1.31268433,1.2052146 1.31268433,1.1599779 L1.31268433,0.897605044 C1.31248557,0.855761097 1.31248557,0.767549532 1.29936756,0.707610905 L1.29936756,0.707610905 Z M1.28923091,1.02879147 L1.28923091,1.1599779 C1.28923091,1.20069093 1.2888334,1.23574937 1.28426197,1.25610589 C1.28008806,1.27533149 1.26537998,1.30021167 1.23457253,1.26402231 L1.23457253,0.810524397 C1.26975265,0.765287697 1.28147936,0.79582247 1.28485824,0.811655314 C1.2888334,0.829749994 1.28923091,0.860284767 1.28923091,0.898735961 L1.28923091,1.02879147 L1.28923091,1.02879147 Z"/><path d="M0.632650671,1.21745048 L0.404017893,1.13723999 C0.383322684,1.12929836 0.367554907,1.09991432 0.36656942,1.06417698 L0.36656942,0.667095365 C0.367554907,0.63135802 0.383322684,0.601973981 0.404017893,0.594032349 L0.632650671,0.513821863 L0.657287824,0.357371708 L0.391206573,0.357371708 C0.297585393,0.357371708 0.222195705,0.478878681 0.221702962,0.629769694 L0.221702962,1.09991432 C0.221702962,1.2515995 0.297585393,1.37390063 0.39071383,1.37390063 L0.656795081,1.37390063 L0.632650671,1.21745048 L0.632650671,1.21745048 Z M0.827284178,1.21745048 L1.05591696,1.13723999 C1.07661216,1.12929836 1.09237994,1.09991432 1.09336543,1.06417698 L1.09336543,0.667095365 C1.09237994,0.63135802 1.07661216,0.601973981 1.05591696,0.594032349 L0.827284178,0.513821863 L0.802647026,0.357371708 L1.06872828,0.357371708 C1.16234946,0.357371708 1.23773914,0.478878681 1.23823189,0.629769694 L1.23823189,1.09991432 C1.23773914,1.25001117 1.16234946,1.37231231 1.06872828,1.37231231 L0.802647026,1.37231231 L0.827284178,1.21745048 L0.827284178,1.21745048 Z"/><polygon points=".387 .504 .466 .504 .466 .515 .387 .515"/></g></g></g></svg>