<?xml version="1.0" encoding="utf-8"?>
<!-- Generator: Adobe Illustrator 26.0.3, SVG Export Plug-In . SVG Version: 6.00 Build 0)  -->
<svg version="1.0" id="katman_1" xmlns="http://www.w3.org/2000/svg" xmlns:xlink="http://www.w3.org/1999/xlink" x="0px" y="0px"
	 viewBox="0 0 800 600" style="enable-background:new 0 0 800 600;" xml:space="preserve">
<style type="text/css">
	.st0{fill:#00D263;}
	.st1{fill:#FF502E;}
	.st2{fill:#0062FF;}
	.st3{fill:#232323;}
</style>
<g>
	<g transform="matrix(1.33333 0 0 -1.33333 0 1440)">
		<path class="st0" d="M103,877.3L103,877.3L79.3,891l-4-2.3c-0.2-0.1-0.4-0.2-0.6-0.3l-25.4-14.6l11.3-6.5c0.9-0.5,1.9-0.5,2.8,0
			l5.7,3.3l7.4,4.3c1.7,1,3.9,1,5.6,0l5.8-3.3l7.2-4.1c0.9-0.5,1.9-0.5,2.8,0l11.3,6.5L103,877.3z"/>
		<path class="st1" d="M101.2,861.5c-0.9-0.5-1.4-1.4-1.4-2.4v-15c0-2-1.1-3.8-2.8-4.8l-13.2-7.6c-0.9-0.5-1.4-1.4-1.4-2.4v-13
			L108,831c0,0,0.1,0,0.1,0.1l4.4,2.5V868L101.2,861.5z"/>
		<path class="st2" d="M74.3,831.9l-12.8,7.4c-1.7,1-2.8,2.8-2.8,4.8v15c0,1-0.5,1.9-1.4,2.4L46,868l0,0v-34.4l4-2.3
			c0.2-0.1,0.4-0.2,0.6-0.3l25.2-14.5v13C75.7,830.5,75.1,831.4,74.3,831.9"/>
		<path class="st3" d="M158.9,844.7c-0.1-0.6-0.4-1.2-0.8-1.8c-0.6-0.9-1.4-1.5-2.3-1.9c-0.7-0.3-2.2-0.7-5.2-0.7H146v10.7l5.8-0.1
			c1.1-0.1,2.1-0.2,2.7-0.4c1-0.3,1.8-0.7,2.5-1.2c0.3-0.2,0.5-0.4,0.7-0.6c0.1-0.1,0.2-0.1,0.2-0.2c0.2-0.3,0.5-0.6,0.6-0.9
			c0.3-0.6,0.5-1.4,0.5-2.3C158.9,845.1,158.9,844.9,158.9,844.7 M146,866.6h4.3c5.7,0,5.7-2.5,5.7-3.7c0-1.6-0.5-2.7-1.6-3.4
			c-0.7-0.4-1.6-0.8-2.5-1l-5.9-0.1V866.6z M160.1,855.5c0.6,0.6,1.1,1.3,1.6,2c1,1.6,1.4,3.4,1.4,5.3c0,3.4-1.2,6.1-3.6,8
			c-2.3,1.8-5.6,2.7-9.8,2.7H139v-40.1h13.5c3.9,0,7.2,1.2,9.7,3.4c2.6,2.3,3.9,5.3,3.9,8.8c0,2.6-0.8,4.9-2.3,6.9
			C162.8,853.7,161.6,854.7,160.1,855.5 M210.3,833.4h6.9v40.3h-6.9V833.4z M182.2,850.3l0.6,1.5l3.4,8l4-9.5H182.2z M184.7,873.5
			l-17.2-40h7.6l4.2,9.9h13.9l4.2-9.9h7.4l-17,40H184.7z M320,850.3l0.6,1.5l3.4,8l4-9.5H320z M322.5,873.5l-17.2-40h7.6l4.2,9.9
			H331l4.2-9.9h7.4l-17,40H322.5z M348,833.4h6.9v40.3H348V833.4z M417.7,873.6h-6.9v-40.1h26.9v6.9h-20V873.6z M236,840.4h-3.2
			v26.1h3.2c7.2,0,13-5.9,13-13C249,846.3,243.2,840.4,236,840.4 M236,873.5h-10.2v-40H236c11,0,20,9,20,20
			C256,864.5,247,873.5,236,873.5 M533.7,840.4h-3.2v26.1h3.2c7.2,0,13-5.9,13-13C546.7,846.3,540.9,840.4,533.7,840.4 M533.7,873.5
			h-10.2v-40h10.2c11,0,20,9,20,20C553.7,864.5,544.7,873.5,533.7,873.5 M284.8,848.2c0-4.5-3.6-8.1-8.1-8.1c-4.5,0-8.1,3.6-8.1,8.1
			v25h-7v-25c0-8.3,6.8-15.1,15.1-15.1c8.3,0,15.1,6.8,15.1,15.1v25h-7L284.8,848.2z M509,848.2c0-4.5-3.6-8.1-8.1-8.1
			c-4.5,0-8.1,3.6-8.1,8.1v25h-7v-25c0-8.3,6.8-15.1,15.1-15.1c8.3,0,15.1,6.8,15.1,15.1v25h-7V848.2z M393.2,867.4
			c2.3,0,4.5-0.6,6.4-1.8l1.4-0.9l3.7,5.8l-1.5,0.9c-3,1.9-6.5,2.9-10.1,2.9c-11.6,0-21-9.3-21-20.6c0-11.4,9.4-20.6,21-20.6
			c3.6,0,7.1,1,10.1,2.9l1.5,0.9l-3.7,5.8l-1.4-0.9c-1.9-1.2-4.2-1.8-6.4-1.8c-7.8,0-14.1,6.2-14.1,13.7
			C379.1,861.2,385.5,867.4,393.2,867.4 M459.6,839.5c-7.5,0-13.5,6.3-13.5,14.1c0,7.8,6.1,14.1,13.5,14.1c7.5,0,13.5-6.3,13.5-14.1
			C473.1,845.9,467.1,839.5,459.6,839.5 M459.6,874.7c-11.4,0-20.6-9.4-20.6-21c0-11.6,9.3-21,20.6-21c11.4,0,20.6,9.4,20.6,21
			C480.3,865.2,471,874.7,459.6,874.7"/>
	</g>
</g>
</svg>
