<svg xmlns="http://www.w3.org/2000/svg" width="500" height="200" viewBox="0 0 500 200"><g fill="none" transform="translate(4 23)"><path fill="#000" d="M223.695408,136.983759 C235.32543,136.983759 244.610064,134.715238 251.549309,130.178196 C258.488556,125.641155 261.958179,119.766267 261.958179,112.553534 C261.958179,100.920094 253.27443,95.1033739 235.906931,95.1033739 L235.906931,95.1033739 L225.207311,95.1033739 C221.640772,95.1033739 219.082167,94.7543708 217.531497,94.0563643 C215.980827,93.358358 215.205493,92.1950139 215.205493,90.5663322 C215.205493,88.9376506 215.70946,87.580416 216.717396,86.4946281 C217.105063,86.0292906 217.609031,85.874178 218.229298,86.0292906 C220.710369,86.727297 223.075141,87.0763002 225.323612,87.0763002 C233.309559,87.0763002 239.802988,85.1567825 244.803897,81.3177473 C249.804807,77.4787121 252.305261,71.7977154 252.305261,64.2747573 C252.305261,61.4827317 251.801293,59.0009312 250.793359,56.8293556 C250.715825,56.6742431 250.735208,56.4997414 250.851508,56.3058507 C250.967808,56.1119601 251.142259,56.0150148 251.374859,56.0150148 L251.374859,56.0150148 L254.049764,56.0150148 C255.9881,56.0150148 257.616304,55.3557865 258.934373,54.03733 C260.252442,52.7188733 260.911476,51.0901917 260.911476,49.151285 L260.911476,49.151285 L260.911476,47.5226034 C260.911476,45.6612529 260.252442,44.0519605 258.934373,42.6947257 C257.616304,41.337491 255.9881,40.6588736 254.049764,40.6588736 L254.049764,40.6588736 L236.953632,40.6588736 C236.410898,40.6588736 235.829397,40.5813173 235.20913,40.4262048 C232.185323,39.4955296 228.890151,39.0301921 225.323612,39.0301921 C220.283936,39.0301921 215.670693,39.9027001 211.483886,41.647716 C207.297078,43.392732 203.827455,46.1847578 201.075018,50.023793 C198.322578,53.8628284 196.946359,58.419259 196.946359,63.6930854 C196.946359,67.3382298 197.799227,70.6731495 199.504964,73.6978439 C201.210701,76.7225383 203.342872,79.1655608 205.901475,81.0269112 C206.056543,81.1044675 206.134077,81.220802 206.134077,81.3759145 C206.134077,81.531027 206.056543,81.6861395 205.901475,81.8412522 C203.730539,83.3923774 201.986035,85.2731169 200.667967,87.4834705 C199.349897,89.6938242 198.690863,91.9623451 198.690863,94.2890331 C198.690863,99.2526343 200.667967,103.09167 204.622173,105.806139 C204.77724,105.883695 204.854774,106.019419 204.854774,106.213309 C204.854774,106.4072 204.77724,106.581702 204.622173,106.736814 C201.520835,108.28794 199.175446,110.188068 197.586011,112.4372 C195.996574,114.686332 195.201857,117.168132 195.201857,119.882602 C195.201857,123.760415 196.519925,127.017778 199.156063,129.654691 C201.792202,132.291605 205.184291,134.172344 209.332333,135.29691 C213.480373,136.421476 218.268065,136.983759 223.695408,136.983759 Z M225.323612,74.279516 C222.765007,74.279516 220.690987,73.3682297 219.10155,71.5456574 C217.512113,69.7230851 216.717396,67.1055612 216.717396,63.6930854 C216.717396,60.3581658 217.512113,57.7794199 219.10155,55.9568476 C220.690987,54.1342753 222.765007,53.222989 225.323612,53.222989 C227.882216,53.222989 229.956236,54.1148862 231.545673,55.8986804 C233.13511,57.6824744 233.929827,60.2806094 233.929827,63.6930854 C233.929827,67.1055612 233.13511,69.7230851 231.545673,71.5456574 C229.956236,73.3682297 227.882216,74.279516 225.323612,74.279516 Z M226.951815,123.721637 C222.532406,123.721637 219.024017,123.120576 216.426645,121.918454 C213.829274,120.716332 212.530588,118.913148 212.530588,116.508904 C212.530588,114.569997 213.422224,112.747425 215.205493,111.041187 C215.438093,110.808518 215.786995,110.692184 216.252194,110.692184 L216.252194,110.692184 L216.601096,110.692184 C218.539432,111.079965 221.485705,111.273856 225.439912,111.273856 L225.439912,111.273856 L231.836424,111.273856 C235.247897,111.273856 237.748351,111.622859 239.337787,112.320865 C240.927223,113.018872 241.721941,114.29855 241.721941,116.159901 C241.721941,118.331476 240.345722,120.134659 237.593284,121.56945 C234.840846,123.004241 231.293689,123.721637 226.951815,123.721637 Z M283.241118,30.8867838 C286.730124,30.8867838 289.598862,29.8785523 291.847333,27.8620894 C294.095804,25.8456265 295.220039,23.2474915 295.220039,20.0676844 C295.220039,16.8878774 294.095804,14.2703534 291.847333,12.2151123 C289.598862,10.1598711 286.730124,9.13225059 283.241118,9.13225059 C279.674578,9.13225059 276.747689,10.1598711 274.460451,12.2151123 C272.173214,14.2703534 271.029595,16.8878774 271.029595,20.0676844 C271.029595,23.2474915 272.173214,25.8456265 274.460451,27.8620894 C276.747689,29.8785523 279.674578,30.8867838 283.241118,30.8867838 Z M286.846424,108.132827 C288.707228,108.132827 290.316047,107.45421 291.672882,106.096975 C293.029719,104.73974 293.708137,103.130448 293.708137,101.269097 L293.708137,101.269097 L293.708137,47.1736002 C293.708137,45.3122498 293.029719,43.7029572 291.672882,42.3457224 C290.316047,40.9884878 288.707228,40.3098704 286.846424,40.3098704 L286.846424,40.3098704 L279.51951,40.3098704 C277.581174,40.3098704 275.952971,40.9884878 274.634902,42.3457224 C273.316834,43.7029572 272.657798,45.3122498 272.657798,47.1736002 L272.657798,47.1736002 L272.657798,101.269097 C272.657798,103.130448 273.316834,104.73974 274.634902,106.096975 C275.952971,107.45421 277.581174,108.132827 279.51951,108.132827 L279.51951,108.132827 L286.846424,108.132827 Z M337.437018,109.761509 C340.383288,109.761509 343.290795,109.490062 346.159533,108.947168 C348.020337,108.636943 349.454706,107.628711 350.46264,105.922473 C351.160441,104.759129 351.509343,103.557007 351.509343,102.316107 C351.509343,101.773213 351.470576,101.191541 351.393043,100.571091 L351.393043,100.571091 L350.927842,98.7097405 C350.540175,97.0810587 349.571006,95.7819913 348.020337,94.8125379 C346.469667,93.8430846 344.725163,93.3195799 342.786826,93.2420235 C337.437018,93.0093547 334.762113,89.5193226 334.762113,82.7719274 L334.762113,82.7719274 L334.762113,57.7600308 C334.762113,57.2171369 335.03348,56.94569 335.576214,56.94569 L335.576214,56.94569 L343.833529,56.94569 C345.694333,56.94569 347.303152,56.2670726 348.659987,54.909838 C350.016824,53.5526032 350.695242,51.9433106 350.695242,50.0819602 L350.695242,50.0819602 L350.695242,47.1736002 C350.695242,45.3122498 350.016824,43.7029572 348.659987,42.3457224 C347.303152,40.9884878 345.694333,40.3098704 343.833529,40.3098704 L343.833529,40.3098704 L335.576214,40.3098704 C335.03348,40.3098704 334.762113,40.0384234 334.762113,39.4955296 L334.762113,39.4955296 L334.762113,29.3744367 C334.762113,27.4355299 334.083693,25.8068482 332.726858,24.4883917 C331.370023,23.1699351 329.761202,22.5107069 327.9004,22.5107069 L327.9004,22.5107069 L323.946193,22.5107069 C322.007856,22.5107069 320.302119,23.150546 318.828982,24.4302245 C317.355847,25.7099029 316.464211,27.3191955 316.154079,29.2581023 L316.154079,29.2581023 L314.874776,39.4955296 C314.797242,40.0384234 314.448342,40.3486486 313.828073,40.4262048 L313.828073,40.4262048 L311.153168,40.6588736 C309.214832,40.8139861 307.586629,41.608938 306.26856,43.0437289 C304.950492,44.4785199 304.291456,46.1653686 304.291456,48.1042754 L304.291456,48.1042754 L304.291456,50.0819602 C304.291456,51.9433106 304.969873,53.5526032 306.32671,54.909838 C307.683546,56.2670726 309.292366,56.94569 311.153168,56.94569 L311.153168,56.94569 L312.665071,56.94569 C313.207807,56.94569 313.479174,57.2171369 313.479174,57.7600308 L313.479174,57.7600308 L313.479174,83.004596 C313.479174,91.4582293 315.41751,98.0311231 319.294184,102.723277 C323.170857,107.415432 329.218468,109.761509 337.437018,109.761509 Z M394.307821,109.761509 C400.5105,109.761509 406.635644,108.326718 412.683255,105.457136 C414.388992,104.681573 415.47446,103.324338 415.939662,101.385432 C416.172261,100.764982 416.288561,100.144531 416.288561,99.5240812 C416.288561,98.3607372 415.939662,97.1973932 415.24186,96.0340491 L415.24186,96.0340491 L414.892959,95.3360428 C413.962558,93.707361 412.605721,92.6215733 410.822451,92.0786795 C409.969583,91.8460106 409.116714,91.7296762 408.263846,91.7296762 C407.255912,91.7296762 406.286744,91.8847889 405.356341,92.1950139 C402.720203,93.1256891 400.006531,93.5910268 397.215326,93.5910268 C388.066377,93.5910268 382.522732,89.5193226 380.584396,81.3759145 C380.506863,81.1432456 380.54563,80.9299659 380.700696,80.7360753 C380.855763,80.5421846 381.049597,80.4452393 381.282197,80.4452393 L381.282197,80.4452393 L413.264756,80.4452393 C415.280626,80.4452393 417.063897,79.8054 418.614567,78.5257217 C420.165235,77.2460432 420.979337,75.6367506 421.05687,73.6978439 L421.05687,73.6978439 L421.05687,71.4874902 C421.05687,61.7154004 418.575799,53.8046611 413.613656,47.7552721 C408.651515,41.7058832 401.440901,38.6811888 391.981817,38.6811888 C387.872543,38.6811888 383.898953,39.5149187 380.061045,41.1823785 C376.223137,42.8498382 372.811666,45.1765262 369.826626,48.1624426 C366.841587,51.1483589 364.438051,54.909838 362.616014,59.4468795 C360.793977,63.9839213 359.882958,68.9281335 359.882958,74.279516 C359.882958,85.2149497 363.119981,93.8624737 369.594026,100.222088 C376.068072,106.581702 384.306004,109.761509 394.307821,109.761509 Z M402.216236,66.7177798 L380.933297,66.7177798 C380.390563,66.7177798 380.119196,66.5238891 380.119196,66.1361077 C380.119196,62.9563008 381.631098,60.1254969 384.654903,57.6436964 C386.825842,55.782346 389.423212,54.8516708 392.447017,54.8516708 C395.936025,54.8516708 398.552779,55.8405132 400.297282,57.818198 C402.041786,59.7958828 402.99157,62.452185 403.146637,65.7871046 L403.146637,65.7871046 L403.146637,65.9034389 C403.146637,66.4463329 402.836503,66.7177798 402.216236,66.7177798 L402.216236,66.7177798 Z M465.250951,109.761509 C471.453629,109.761509 477.578774,108.326718 483.626385,105.457136 C485.332122,104.681573 486.41759,103.324338 486.882791,101.385432 C487.115391,100.764982 487.231691,100.144531 487.231691,99.5240812 C487.231691,98.3607372 486.882791,97.1973932 486.18499,96.0340491 L486.18499,96.0340491 L485.836089,95.3360428 C484.905688,93.707361 483.548852,92.6215733 481.765581,92.0786795 C480.912713,91.8460106 480.059846,91.7296762 479.206978,91.7296762 C478.199042,91.7296762 477.229874,91.8847889 476.299471,92.1950139 C473.663333,93.1256891 470.949662,93.5910268 468.158457,93.5910268 C459.009507,93.5910268 453.465864,89.5193226 451.527526,81.3759145 C451.449993,81.1432456 451.48876,80.9299659 451.643827,80.7360753 C451.798893,80.5421846 451.992727,80.4452393 452.225327,80.4452393 L452.225327,80.4452393 L484.207886,80.4452393 C486.223757,80.4452393 488.007027,79.8054 489.557696,78.5257217 C491.108366,77.2460432 491.922467,75.6367506 492,73.6978439 L492,73.6978439 L492,71.4874902 C492,61.7154004 489.518929,53.8046611 484.556786,47.7552721 C479.594645,41.7058832 472.38403,38.6811888 462.924947,38.6811888 C458.815672,38.6811888 454.842083,39.5149187 451.004175,41.1823785 C447.166269,42.8498382 443.754795,45.1765262 440.769756,48.1624426 C437.784718,51.1483589 435.38118,54.909838 433.559144,59.4468795 C431.737107,63.9839213 430.826088,68.9281335 430.826088,74.279516 C430.826088,85.2149497 434.063111,93.8624737 440.537156,100.222088 C447.011202,106.581702 455.249133,109.761509 465.250951,109.761509 Z M473.159366,66.7177798 L451.876427,66.7177798 C451.333693,66.7177798 451.062326,66.5238891 451.062326,66.1361077 C451.062326,62.9563008 452.574228,60.1254969 455.598033,57.6436964 C457.768971,55.782346 460.366342,54.8516708 463.390149,54.8516708 C466.879155,54.8516708 469.495909,55.8405132 471.240413,57.818198 C472.984915,59.7958828 473.9347,62.452185 474.089767,65.7871046 L474.089767,65.7871046 L474.089767,65.9034389 C474.089767,66.4463329 473.779633,66.7177798 473.159366,66.7177798 L473.159366,66.7177798 Z"/><circle cx="77.373" cy="77.373" r="77.373" fill="#C71D23"/><path fill="#FFF" d="M116.537186,68.7774445 L72.5971855,68.7774445 C70.4873682,68.7784454 68.7768685,70.488497 68.7753154,72.598314 L68.772814,82.1501049 C68.7712291,84.2603126 70.4814425,85.9714222 72.5916505,85.9719747 C72.5919947,85.9719749 72.5923388,85.9719749 72.5926829,85.9709426 L99.3432726,85.9707198 C101.453481,85.9706703 103.164156,87.6813175 103.164174,89.7915256 C103.164174,89.7915363 103.164174,89.7915468 103.164142,89.7915575 L103.164142,90.7466684 L103.164142,90.7466684 L103.164142,91.7018956 C103.164142,98.0325196 98.0321574,103.164504 91.7015333,103.164504 L55.4004287,103.164504 C53.2905236,103.164399 51.5800912,101.454014 51.5799277,99.3441087 L51.5789272,63.0465233 C51.5784366,56.7158995 56.71028,51.5837732 63.0409038,51.5835986 C63.0410092,51.5835986 63.0411146,51.5835986 63.0412199,51.5839147 L116.526522,51.5839147 C118.635804,51.581544 120.346082,49.8723266 120.349761,47.7630457 L120.355685,38.2112537 C120.359363,36.1010474 118.649763,34.3893253 116.539555,34.3880164 C116.538766,34.3880164 116.537976,34.3880164 116.537186,34.3903848 L63.0445377,34.3903848 C47.2179775,34.3903848 34.3880157,47.2203466 34.3880157,63.0469066 L34.3880157,116.537186 C34.3880157,118.647394 36.0986773,120.358055 38.2088853,120.358055 L94.5677498,120.358055 C108.811342,120.358055 120.358055,108.811342 120.358055,94.5677498 L120.358055,72.5983141 C120.358055,70.4881061 118.647394,68.7774445 116.537186,68.7774445 Z"/></g></svg>