<svg xmlns="http://www.w3.org/2000/svg" width="500" height="200" viewBox="0 0 500 200"><g fill="none" transform="translate(4 55)"><path fill="#000" d="M16.5496009,70.1254276 C10.0980616,70.1254276 5.04903079,68.4424173 0,64.7958951 L0,63.95439 L3.64652223,56.3808438 C6.17103763,58.6248575 10.3785633,61.1493729 14.3055872,61.1493729 C17.391106,61.1493729 20.4766249,60.027366 20.4766249,56.3808438 C20.4766249,53.295325 17.6716078,52.1733181 14.3055872,50.7708096 C13.1835804,50.2098062 11.7810718,49.6488027 10.3785633,49.0877993 C4.76852908,46.2827822 0.841505131,42.9167617 0.841505131,35.9042189 C0.841505131,23.281642 12.9030787,21.8791334 18.2326112,21.8791334 C23.8426454,21.8791334 29.4526796,23.281642 33.0992018,25.5256556 L33.0992018,26.6476625 L29.4526796,34.2212087 C26.6476625,32.2576967 23.281642,31.1356899 19.9156214,31.1356899 C15.4275941,31.1356899 14.5860889,33.3797035 14.5860889,35.3432155 C14.5860889,38.4287343 17.391106,39.5507412 21.31813,40.9532497 C22.1596351,41.2337514 23.0011403,41.5142531 23.8426454,42.0752566 C30.5746864,44.8802737 34.5017104,47.9657925 34.5017104,55.5393387 C34.2212087,68.1619156 23.281642,70.1254276 16.5496009,70.1254276 L16.5496009,70.1254276 Z M59.4663626,70.1254276 C40.672748,70.1254276 37.8677309,54.9783352 37.8677309,46.0022805 C37.8677309,35.3432155 41.5142531,22.4401368 58.6248575,22.4401368 C74.8939567,22.4401368 78.2599772,34.2212087 78.2599772,44.5997719 C78.2599772,46.0022805 77.9794755,48.5267959 77.4184721,50.2098062 C75.1744584,50.2098062 67.0399088,50.2098062 60.5883694,49.9293044 L51.6123147,49.9293044 L51.6123147,50.4903079 C51.6123147,53.0148233 52.4538198,61.4298746 61.1493729,61.4298746 C64.5153934,61.4298746 67.6009122,60.027366 70.4059293,56.9418472 L75.7354618,63.3933865 L75.7354618,64.2348917 C70.686431,67.8814139 65.6374002,70.1254276 59.4663626,70.1254276 Z M58.6248575,31.6966933 C54.1368301,31.6966933 51.8928164,35.3432155 51.6123147,42.63626 L51.6123147,43.1972634 L65.0763968,43.1972634 L65.0763968,42.63626 C65.3568985,35.3432155 63.1128848,31.6966933 58.6248575,31.6966933 Z M103.785633,89.7605473 C97.6145952,89.7605473 91.4435576,88.0775371 86.3945268,85.27252 L89.7605473,76.5769669 L90.3215507,76.5769669 C93.1265678,78.2599772 97.0535918,80.5039909 101.822121,80.5039909 C107.151653,80.5039909 110.237172,77.6989738 110.237172,72.9304447 C110.237172,72.3694413 110.517674,68.1619156 110.798176,65.3568985 L110.798176,65.0763968 L109.676169,64.5153934 L109.395667,64.7958951 C106.310148,67.6009122 103.224629,70.1254276 97.8950969,70.1254276 C87.7970353,70.1254276 82.7480046,62.5518814 82.7480046,46.2827822 C82.7480046,34.7822121 86.6750285,22.7206385 97.8950969,22.7206385 C102.102623,22.7206385 106.310148,24.6841505 109.676169,28.3306727 L109.95667,28.6111745 L110.798176,28.3306727 L111.639681,24.6841505 L112.481186,23.8426454 L123.981756,24.1231471 C123.981756,25.8061574 123.701254,30.013683 123.701254,32.2576967 L123.701254,71.5279361 C123.981756,88.3580388 108.554162,89.7605473 103.785633,89.7605473 L103.785633,89.7605473 Z M103.785633,32.5381984 C97.0535918,32.5381984 97.0535918,42.63626 97.0535918,46.0022805 C97.0535918,50.4903079 97.0535918,60.5883694 102.663626,60.5883694 C104.90764,60.5883694 107.712657,58.9053592 109.676169,56.1003421 L109.676169,55.8198404 L109.95667,35.6237172 L109.95667,35.3432155 C108.27366,33.940707 106.029647,32.5381984 103.785633,32.5381984 Z M180.082098,68.722919 C180.082098,66.7594071 180.643101,40.1117446 180.643101,39.8312429 C180.643101,35.3432155 180.082098,32.5381984 176.435576,32.5381984 C174.472064,32.5381984 171.947548,33.6602052 169.984036,35.3432155 L169.703535,35.0627138 L169.703535,68.4424173 L155.958951,68.4424173 C155.958951,66.4789054 156.239453,39.8312429 156.239453,39.5507412 C156.239453,35.0627138 155.678449,32.2576967 152.031927,32.2576967 C150.348917,32.2576967 147.5439,33.3797035 145.580388,35.0627138 L145.299886,35.3432155 L145.580388,68.722919 L131.555302,68.722919 L131.555302,35.0627138 C131.555302,31.977195 131.2748,26.0866591 131.2748,23.5621437 L143.336374,23.281642 L144.177879,23.8426454 L144.738883,27.7696693 L145.580388,28.050171 L145.860889,27.7696693 C149.787913,24.4036488 155.397948,22.1596351 159.605473,22.1596351 C163.532497,22.1596351 166.618016,24.1231471 168.301026,28.050171 L168.581528,28.8916762 L169.142531,28.3306727 C173.350057,24.6841505 178.960091,22.4401368 183.72862,22.4401368 C190.460661,22.4401368 194.387685,27.2086659 194.387685,35.9042189 C194.387685,36.4652223 194.107184,66.7594071 194.107184,68.722919 L180.082098,68.722919 L180.082098,68.722919 Z M222.157355,70.1254276 C203.36374,70.1254276 200.558723,54.9783352 200.558723,46.0022805 C200.558723,35.3432155 204.205245,22.4401368 221.315849,22.4401368 C237.584949,22.4401368 240.950969,34.2212087 240.950969,44.5997719 C240.950969,46.0022805 240.670468,48.5267959 240.109464,50.2098062 C237.86545,50.2098062 229.730901,50.2098062 223.279361,49.9293044 L214.303307,49.9293044 L214.303307,50.4903079 C214.303307,53.0148233 215.144812,61.4298746 223.840365,61.4298746 C227.206385,61.4298746 230.291904,60.027366 233.096921,56.9418472 L238.426454,63.3933865 L238.426454,64.2348917 C233.377423,67.8814139 228.328392,70.1254276 222.157355,70.1254276 L222.157355,70.1254276 Z M221.315849,31.6966933 C216.827822,31.6966933 214.583808,35.3432155 214.303307,42.63626 L214.303307,43.1972634 L227.767389,43.1972634 L227.767389,42.63626 C227.767389,35.3432155 225.803877,31.6966933 221.315849,31.6966933 Z M271.525656,68.722919 C271.525656,66.7594071 272.086659,40.1117446 272.086659,39.8312429 C272.086659,35.0627138 271.245154,32.5381984 267.598632,32.5381984 C265.63512,32.5381984 263.110604,33.6602052 260.586089,35.3432155 L260.305587,35.6237172 L260.586089,69.0034208 L246.561003,69.0034208 L246.561003,35.0627138 C246.561003,31.977195 246.280502,26.3671608 246.280502,23.5621437 L258.342075,23.281642 L259.18358,23.8426454 L259.744584,27.7696693 L260.586089,28.050171 L260.866591,27.7696693 C265.074116,24.4036488 270.964652,22.1596351 275.45268,22.1596351 C282.465222,22.1596351 286.111745,26.9281642 286.111745,35.6237172 C286.111745,36.1847206 285.831243,66.4789054 285.831243,68.4424173 L271.525656,68.4424173 L271.525656,68.722919 L271.525656,68.722919 Z M308.27138,68.722919 C296.77081,68.722919 295.648803,61.7103763 295.648803,54.6978335 C295.648803,52.7343216 295.648803,42.63626 295.929304,33.940707 L295.929304,33.3797035 L290.880274,33.3797035 L291.160775,23.5621437 L296.209806,23.5621437 L296.209806,10.659065 L296.77081,10.0980616 L309.95439,10.0980616 C309.95439,11.7810718 309.95439,16.8301026 309.673888,23.0011403 L309.673888,23.5621437 L317.247434,23.5621437 L316.966933,33.3797035 L309.393387,33.3797035 L309.393387,33.940707 C309.673888,42.3557583 309.673888,51.331813 309.673888,53.0148233 C309.673888,57.7833523 309.673888,59.4663626 314.161916,59.4663626 L316.686431,59.4663626 L316.686431,68.1619156 L316.125428,68.722919 L308.27138,68.722919 Z"/><path fill="#009A61" d="M327.625998,68.722919 C327.625998,64.7958951 327.625998,42.3557583 327.906499,33.940707 L327.906499,33.3797035 L322.576967,33.3797035 L322.857469,23.5621437 L327.906499,23.5621437 L327.906499,23.0011403 C327.906499,22.7206385 327.625998,15.1470924 327.625998,15.1470924 C327.625998,2.8050171 335.480046,-7.1198987e-15 341.931585,-7.1198987e-15 C345.858609,-7.1198987e-15 349.224629,0.561003421 352.310148,1.96351197 L352.310148,3.08551881 L349.505131,10.9395667 C348.102623,10.0980616 346.700114,9.81755986 345.578107,9.81755986 C342.492588,9.81755986 341.370582,12.0615735 341.370582,16.8301026 L341.370582,23.5621437 L349.505131,23.5621437 L349.224629,33.3797035 L341.370582,33.3797035 L341.370582,33.940707 C341.651083,42.0752566 341.651083,64.7958951 341.651083,68.722919 L327.625998,68.722919 L327.625998,68.722919 Z M363.530217,69.8449259 C353.712657,69.8449259 352.59065,60.3078677 352.59065,56.3808438 C352.59065,41.7947548 364.09122,40.9532497 376.433295,40.1117446 L376.994299,40.1117446 L377.2748,39.5507412 L377.2748,37.0262258 C377.2748,33.6602052 375.311288,31.6966933 371.103763,31.6966933 C365.77423,31.6966933 361.005701,33.0992018 357.639681,34.5017104 L354.554162,26.3671608 L354.554162,25.8061574 C361.286203,23.281642 368.298746,22.1596351 375.59179,22.1596351 C385.970353,22.1596351 391.299886,26.9281642 391.299886,36.1847206 L391.299886,58.3443558 C391.299886,61.990878 391.580388,66.4789054 391.580388,68.722919 L380.079818,68.722919 L379.238312,67.8814139 L378.116306,64.2348917 L377.2748,63.95439 L376.994299,64.2348917 C373.067275,68.1619156 368.859749,69.8449259 363.530217,69.8449259 L363.530217,69.8449259 Z M376.152794,46.8437856 C369.140251,47.1242873 365.77423,47.1242873 365.77423,54.4173318 C365.77423,60.027366 368.018244,61.1493729 369.981756,61.1493729 C372.22577,61.1493729 375.030787,59.7468643 376.994299,57.7833523 L377.2748,57.5028506 L377.2748,47.6852908 L376.994299,47.4047891 L376.433295,47.1242873 C376.433295,46.8437856 376.152794,46.8437856 376.152794,46.8437856 L376.152794,46.8437856 Z M409.812999,69.8449259 C402.239453,69.8449259 398.59293,65.3568985 398.59293,56.3808438 C398.59293,55.8198404 398.873432,25.5256556 398.873432,23.281642 L412.337514,23.281642 L412.898518,23.8426454 C412.898518,25.2451539 412.618016,52.1733181 412.618016,52.7343216 C412.618016,57.5028506 414.301026,60.027366 417.106043,60.027366 C419.630559,60.027366 422.716078,58.6248575 424.67959,56.6613455 L424.960091,56.3808438 L424.67959,23.0011403 L438.143672,23.0011403 L438.704675,23.5621437 L438.704675,57.5028506 C438.704675,61.1493729 438.985177,65.6374002 438.985177,67.8814139 L427.484607,67.8814139 L426.643101,67.0399088 L425.521095,63.1128848 L424.399088,62.8323831 L424.118586,63.1128848 C420.191562,67.8814139 415.703535,69.8449259 409.812999,69.8449259 L409.812999,69.8449259 Z M446.839225,68.722919 C446.558723,66.4789054 446.558723,61.4298746 446.558723,58.3443558 L446.558723,12.3420753 C446.558723,9.25655644 446.558723,4.48802737 446.278221,1.96351197 L460.022805,1.68301026 L460.583808,2.24401368 L460.583808,58.3443558 C460.583808,61.7103763 460.86431,66.4789054 460.86431,68.722919 L446.839225,68.722919 Z M483.023945,68.722919 C471.523375,68.722919 470.401368,61.7103763 470.401368,54.6978335 C470.401368,52.7343216 470.401368,42.63626 470.68187,33.940707 L470.68187,33.3797035 L465.632839,33.3797035 L465.913341,23.5621437 L470.962372,23.5621437 L470.962372,10.659065 L471.523375,10.0980616 L484.706956,10.0980616 C484.706956,11.7810718 484.706956,16.8301026 484.426454,23.0011403 L484.426454,23.5621437 L492,23.5621437 L491.719498,33.3797035 L484.145952,33.3797035 L484.145952,33.940707 C484.426454,42.3557583 484.426454,51.331813 484.426454,53.0148233 C484.426454,57.7833523 484.426454,59.4663626 488.914481,59.4663626 L491.438997,59.4663626 L491.438997,68.1619156 L490.877993,68.722919 L483.023945,68.722919 Z"/></g></svg>