<svg xmlns="http://www.w3.org/2000/svg" width="500" height="200" viewBox="0 0 500 200"><g fill="#FF6A00" transform="translate(4 44)"><polygon points="75.367 54.873 111.168 54.873 111.168 59.214 75.367 59.214"/><path d="M272.097492,101.918444 C288.491699,101.518539 294.400566,90.2640921 294.400566,80.3807445 L294.400566,21.1377935 L296.659838,21.1377935 L298.91911,12.1685129 L250.19993,12.1685129 L252.459202,21.1377935 L285.247617,21.1377935 L285.247617,79.466679 C285.247617,87.9789253 278.87531,93.4061966 269.78029,93.4061966 L272.097493,101.918444 L272.097492,101.918444 Z"/><path d="M273.951254,81.4090695 C276.210526,79.1810321 277.137407,76.0389268 277.137407,71.0686891 L277.137407,28.8502323 L250.721301,28.8502323 L250.721301,84.5511747 L265.319676,84.5511747 C268.911339,84.5511747 272.097493,83.6371077 273.951255,81.4090703 L273.951254,81.4090695 Z M259.816319,75.1248614 L259.816319,37.8195114 L267.984458,37.8195114 L267.984458,70.1546229 C267.984458,73.7537608 266.594136,75.0677312 263.407983,75.0677312 L259.816319,75.0677312 L259.816319,75.1248614 L259.816319,75.1248614 Z M213.819852,11.311576 L213.819852,101.575667 L222.91487,101.575667 L222.91487,20.7950179 L233.863651,20.7950179 L227.027905,49.0739588 C229.750617,51.3019962 234.790533,57.1291716 234.790533,67.0125184 C234.790533,76.8958653 228.881667,80.495004 227.027905,81.4090695 L227.027905,90.8353828 C232.00989,90.3783501 244.348993,83.6371069 244.348993,67.4695511 C244.348993,57.5862051 240.699399,50.8449619 237.513245,46.388887 L245.681384,11.3687046 L213.819852,11.311576 L213.819852,11.311576 Z M316.298128,92.6063875 L314.502296,101.575668 L395.54645,101.575668 L393.229248,92.6063875 L359.513953,92.6063875 L359.513953,81.4090695 L390.506536,81.4090695 L388.247263,72.4397889 L359.108443,72.4397889 L359.108443,61.1853422 L380.021195,61.1853422 C390.043096,61.1853422 395.025081,56.2722339 395.025081,46.3888863 L395.025081,11.3687038 L314.444368,11.3687038 L314.444368,61.1853422 L349.955494,61.1853422 L349.955494,71.9827561 L320.816673,71.9827561 L318.557401,80.9520368 L349.549984,80.9520368 L349.549984,92.6063875 L316.298129,92.6063875 L316.298128,92.6063875 Z M359.513952,40.9616158 L380.890144,40.9616158 L378.630872,31.9923352 L359.513952,31.9923352 L359.513952,20.7378886 L385.930058,20.7378886 L385.930058,45.8747249 C385.930058,50.3879291 384.134226,52.158933 380.484633,52.158933 L359.513952,52.158933 L359.513952,40.961615 L359.513952,40.9616158 Z M324.002825,52.2160624 L324.002825,20.7950179 L350.418933,20.7950179 L350.418933,32.0494654 L331.302013,32.0494654 L329.04274,40.9616158 L350.418933,40.9616158 L350.418933,52.2160624 L324.002825,52.2160624 L324.002825,52.2160624 Z M483.368421,11.311576 L419.645354,11.311576 L417.386082,20.7378894 L485.685623,20.7378894 L483.368421,11.311576 L483.368421,11.311576 Z M415.995761,100.71873 L415.53232,101.632797 L477.922995,101.632797 C481.572588,101.632797 484.295302,100.71873 486.091134,98.4906931 C487.886966,95.8056213 487.481455,92.6635177 486.554574,90.8353836 C485.627693,86.3221794 481.978099,70.6116572 481.109148,68.383619 L481.109148,67.9265862 L471.550688,67.9265862 L472.014129,68.8406525 C472.47757,71.0686899 476.590604,87.2362456 477.459554,92.6635185 L427.350053,92.6635185 C429.609325,82.3231381 433.72236,64.3845777 435.981632,55.815202 L492,55.815202 L489.740728,46.8459214 L413.215118,46.8459214 L410.955845,55.815202 L426.423172,55.815202 C424.62734,63.8704148 419.181914,86.3221802 415.995761,100.718732 L415.995761,100.71873 Z M33.4256442,87.4076338 C29.6022604,86.5506954 26.705757,83.3514615 26.705757,79.2952908 L26.705757,34.7345363 C26.9954073,30.6783656 29.6601901,27.4791318 33.4256442,26.6221933 L75.3670076,17.6529143 L79.7696919,0 L31.0505116,0 C13.7873535,0.0571285977 0,13.6538722 0,30.4498488 L0,83.1229456 C0,99.9189214 14.0770045,113.80131 31.1084429,113.80131 L79.8276232,113.80131 L75.4249389,96.1483969 L33.4256442,87.4076338 L33.4256442,87.4076338 Z M155.484281,0.0571285977 L106.475451,0.0571285977 L110.878135,17.7100429 L152.819498,26.6793235 C156.642882,27.5362612 159.539385,30.7354942 159.539385,34.7916649 L159.539385,79.3524194 C159.249735,83.4085917 156.584952,86.6078248 152.819498,87.4647624 L110.878135,96.434043 L106.475451,114.086957 L155.484281,114.086957 C172.515719,114.086957 186.592724,100.490214 186.592724,83.4085917 L186.592724,30.4498488 C186.245143,13.653873 172.457789,0.0571285977 155.484281,0.0571285977 L155.484281,0.0571285977 Z"/></g></svg>