<svg xmlns="http://www.w3.org/2000/svg" xmlns:xlink="http://www.w3.org/1999/xlink"
  viewBox="0 0 512 512" width="512" height="512" preserveAspectRatio="xMidYMid meet"
  style="width: 100%; height: 100%; transform: translate3d(0px, 0px, 0px); content-visibility: visible;"
  id="Twitter">
  <defs>
    <clipPath id="__lottie_element_3638">
      <rect width="512" height="512" x="0" y="0" />
    </clipPath>
    <symbol id="__lottie_element_3642">
      <g>
        <g clip-path="url(#__lottie_element_3643)" transform="matrix(1,0,0,1,256,256)" opacity="1"
          style="display: block;">
          <g opacity="1" transform="matrix(1,0,0,1,0,0)">
            <path stroke-linecap="round" stroke-linejoin="round" fill-opacity="0"
              stroke="rgb(29,161,243)" stroke-opacity="1" stroke-width="250"
              d=" M98,-250 C98,-250 120,-8 20,74 C-59.53900146484375,139.2220001220703 -158.05799865722656,155.09800720214844 -235.2989959716797,147.79299926757812" />
          </g>
        </g>
      </g>
    </symbol>
    <clipPath id="__lottie_element_3643">
      <path fill="#ffffff" clip-rule="nonzero"
        d=" M-235.5,148.63499450683594 C-235.5,148.63499450683594 -52.74300003051758,275.19000244140625 118.55999755859375,100.12000274658203 C118.55999755859375,100.12000274658203 189.44400024414062,38.78200149536133 187.88600158691406,-95.73500061035156 C186.32899475097656,-230.2519989013672 -20.56599998474121,-223.54100036621094 -3.240999937057495,-72.53500366210938 C-3.240999937057495,-72.53500366210938 -1.4479999542236328,153.77000427246094 -235.5,148.63499450683594"
        fill-opacity="1" />
    </clipPath>
    <mask id="__lottie_element_3642_1" mask-type="alpha">
      <use xmlns:ns1="http://www.w3.org/1999/xlink" ns1:href="#__lottie_element_3642" />
    </mask>
  </defs>
  <g clip-path="url(#__lottie_element_3638)">
    <g mask="url(#__lottie_element_3642_1)" style="display: block;">
      <g transform="matrix(1,0,0,1,20,63.99998474121094)" opacity="1">
        <g opacity="1" transform="matrix(1,0,0,1,0,0)">
          <path fill="rgb(29,161,243)" fill-opacity="1"
            d=" M0,340.135009765625 C0,340.135009765625 182.7570037841797,466.69000244140625 354.05999755859375,291.6199951171875 C354.05999755859375,291.6199951171875 424.9440002441406,230.28199768066406 423.385986328125,95.76499938964844 C421.8290100097656,-38.75199890136719 214.9340057373047,-32.04100036621094 232.25900268554688,118.96499633789062 C232.25900268554688,118.96499633789062 234.052001953125,345.2699890136719 0,340.135009765625z" />
        </g>
      </g>
    </g>
    <g
      transform="matrix(0.9055241942405701,-0.42429468035697937,0.42429468035697937,0.9055241942405701,62.19709777832031,186.28067016601562)"
      opacity="1" style="display: block;">
      <g opacity="1" transform="matrix(1,0,0,1,0,0)">
        <path fill="rgb(29,161,243)" fill-opacity="1"
          d=" M212.3939971923828,96.05000305175781 C212.6719970703125,97.78500366210938 213,99.50199890136719 213.38400268554688,101.1969985961914 C132.97000122070312,97.26399993896484 63.13938903808594,167.96127319335938 -20.498863220214844,161.1620635986328 C-11.779772758483887,168.19090270996094 -13.27225399017334,170.87255859375 1.1693801879882812,174.3520050048828 C8.744921684265137,180.7688446044922 21.959619522094727,173.06605529785156 47.696617126464844,190.26905822753906 C32.14461898803711,189.97406005859375 4.875782489776611,211.7639923095703 -8.041217803955078,204.66598510742188 C-8.041217803955078,204.66598510742188 0.4988810420036316,208.0255889892578 0.4988810420036316,208.0255889892578 C21.511816024780273,215.17855834960938 33.52299880981445,204.4969940185547 77.50399780273438,213.5019989013672 C69.62100219726562,215.6649932861328 61.04899978637695,216.68699645996094 52.141998291015625,216.68699645996094 C45.94900131225586,216.68699645996094 39.696998596191406,216.33399963378906 33.83700180053711,215.03599548339844 C46.0620002746582,252.41900634765625 80.26181030273438,280.1409912109375 121.1989974975586,282.3080139160156 C144.36500549316406,276.21600341796875 171.4328155517578,269.2099914550781 201.52999877929688,261.614990234375 C266.73199462890625,245.16200256347656 239.61900329589844,156.51699829101562 212.3939971923828,96.05000305175781z" />
      </g>
    </g>
    <g
      transform="matrix(0.9707654714584351,-0.24003006517887115,0.24003006517887115,0.9707654714584351,421.7782897949219,111.98603057861328)"
      opacity="1" style="display: block;">
      <g opacity="1" transform="matrix(1,0,0,1,0,0)">
        <path fill="rgb(29,161,243)" fill-opacity="1"
          d=" M0,15.456999778747559 C4.271999835968018,26.865999221801758 6.820000171661377,38.893001556396484 8.230999946594238,50.45500183105469 C8.569999694824219,50.37900161743164 8.906999588012695,50.297000885009766 9.239999771118164,50.20800018310547 C28.41200065612793,36.58700180053711 44.542999267578125,19.59000015258789 57.6879997253418,0.019999999552965164 C57.6879997253418,0.019999999552965164 57.6879997253418,0 57.6879997253418,0 C40.130001068115234,7.688000202178955 21.45199966430664,12.800000190734863 1.9470000267028809,15.277000427246094 C1.965000033378601,15.267999649047852 0.7770000100135803,15.378999710083008 0,15.456999778747559z" />
      </g>
    </g>
    <g
      transform="matrix(0.9869714379310608,0.1608954668045044,-0.1608954668045044,0.9869714379310608,424.4471740722656,71.89852142333984)"
      opacity="1" style="display: block;">
      <g opacity="1" transform="matrix(1,0,0,1,0,0)">
        <path fill="rgb(29,161,243)" fill-opacity="1"
          d=" M20.06399917602539,53.0099983215332 C39.76300048828125,41.018001556396484 54.80799865722656,22.395000457763672 61.91600036621094,0 C43.21799850463867,11.14799976348877 22.572999954223633,19.01300048828125 0.5720000267028809,23.41699981689453 C0.5720000267028809,23.41699981689453 0,23.73699951171875 0,23.73699951171875 C7.866000175476074,32.67300033569336 13.553999900817871,43.16899871826172 17.6299991607666,54.229000091552734 C18.43199920654297,53.827999114990234 19.2450008392334,53.42100143432617 20.06399917602539,53.0099983215332z" />
      </g>
    </g>
  </g>
</svg>