<?xml version="1.0" encoding="UTF-8"?>
<svg width="1002px" height="182px" viewBox="0 0 1002 182" version="1.1"
  xmlns="http://www.w3.org/2000/svg" xmlns:xlink="http://www.w3.org/1999/xlink">
  <title>com.163</title>
  <g id="页面-1" stroke="none" stroke-width="1" fill="none" fill-rule="evenodd">
    <g id="com.163" transform="translate(11.000000, 2.000000)" fill-rule="nonzero">
      <path
        d="M464.435412,165.840798 L444,165.840798 L444,68.0685529 L452.690843,68.0685529 C455.727277,68.0685529 458.76717,68.1686268 461.793229,68.0236921 C463.501656,67.9408723 464.421578,68.5068077 465.268875,70.0113678 C474.419679,86.2095438 483.650024,102.362859 492.866537,118.526527 C493.288456,119.261553 493.76225,119.968972 494.613005,120.590121 L494.613005,118.267715 C494.613005,102.390466 494.640672,86.5097656 494.568047,70.6325164 C494.557672,68.6517424 495.024549,67.947774 497.134145,68.0029872 C502.958013,68.1479219 508.788797,68.0512988 515,68.0512988 L515,165.840798 C514.605748,165.868405 513.969411,165.958127 513.329615,165.958127 C507.187579,165.968479 501.042085,165.916717 494.903507,166 C493.44754,166.016791 492.690161,165.55438 491.984657,164.274124 C483.528982,148.959359 475.00414,133.682553 466.49659,118.395395 C465.894837,117.322189 465.268875,116.262785 464.435412,114.816889 L464.435412,165.837348 L464.435412,165.840798 Z"
        id="路径" fill="#131618"></path>
      <path
        d="M283.050085,76.4183508 C280.071061,75.5467986 277.473518,75.8327229 274.726851,76.5423661 C268.480958,78.1614551 262.918264,76.2151034 257.872304,72.5497615 C257.383314,72.1983848 257.227253,71.4198441 256.842304,70.8962238 C255.645839,69.2599105 254.647051,67.3824562 253.138465,66.0975196 C251.203313,64.4474268 250.45769,62.5665277 250.322438,60.1551185 C249.958296,53.7683292 249.177993,47.3884296 249.132909,41.0016402 C249.091293,35.593194 249.559475,30.1365196 250.395266,24.7935259 C250.742067,22.5784743 252.354694,20.3737574 253.866748,18.5583108 C256.821496,15.0169842 262.665099,16.4052669 264.139005,20.9869443 C265.630251,25.6409639 265.113517,30.2639798 264.797928,34.9834519 C264.482338,39.6443613 264.139005,44.4499553 264.919308,49.0040737 C266.736547,59.6762816 273.030993,62.7904442 283.299782,62.2461548 C286.434866,62.080801 289.542207,61.1369065 292.635675,60.4134838 C299.703487,58.7530564 306.70194,59.1147677 313.800964,60.4548222 C316.68982,61.0025566 319.91854,60.833758 322.796992,60.1585634 C327.16669,59.1388818 331.491303,58.4257937 335.982381,58.5842577 C342.966961,58.8322884 348.824436,53.2894922 348.723864,46.2860711 C348.682248,43.395825 347.936625,40.5124686 347.464975,37.636002 C347.170194,35.8274451 346.545951,34.0361126 346.497399,32.2275558 C346.369082,27.4460759 344.028173,23.3639047 341.063021,20.2600767 C337.921001,16.9702256 333.32935,15.2512354 328.422111,15.1099957 C321.382042,14.9033035 314.341974,14.5898203 307.305374,14.2315538 C303.164565,14.0214167 299.016821,13.2359863 294.903756,13.4461234 C291.505103,13.6183669 288.030153,14.5243678 284.832644,15.7369621 C280.976212,17.1941422 277.220353,18.5720903 273.013653,18.3343942 C269.004629,18.1070328 266.053349,16.3708182 265.436042,13.7389374 C264.544763,9.94613527 266.108837,6.55982786 270.038097,4.67892873 C271.994056,3.7453689 274.210117,3.2596422 276.360286,2.8324783 C281.579647,1.8024621 286.792072,0.483076816 292.066921,0.114475703 C297.421534,-0.257570279 302.848976,0.379730709 308.241738,0.572643441 C312.739752,0.731107471 317.255106,1.19272008 321.732312,0.968803515 C327.7077,0.662210066 333.39871,1.16860599 338.788004,3.95895085 C339.783324,4.47568139 341.069957,4.59625184 342.224806,4.62036593 C347.985177,4.73404665 352.8508,7.63807224 355.507299,11.9579395 C358.115245,16.2123542 361.645684,20.621788 360.993697,26.4780674 C360.757872,28.5966626 361.930061,30.8840564 362.519623,33.0749938 C362.953125,34.7009726 363.875617,36.2925026 363.896425,37.9081467 C363.969253,44.4534001 364.208546,51.0434368 363.560027,57.5335723 C362.991273,63.2451671 358.992653,67.1206461 354.154774,69.9764435 C349.160834,72.9218075 343.799284,74.0069416 337.938341,73.386865 C335.056421,73.0837164 332.032313,73.5935572 329.129585,74.0861737 C326.591138,74.5407146 323.986302,74.4797782 321.472211,73.9070404 C319.181172,73.4351551 316.810854,73.5012132 314.550055,74.0999531 C311.9213,74.7958169 309.524903,75.0989655 306.975913,74.0413903 C306.115845,73.6831238 305.110121,73.6486751 304.166821,73.5005457 C302.24901,73.2077318 301.212074,73.9139301 300.684935,75.8981754 C299.693083,79.6427493 297.320962,82.5157711 294.37315,85.0305263 C292.715439,86.4429231 291.446146,88.2962633 289.92022,89.8740138 C289.018537,90.8075736 288.012813,91.6825707 286.941196,92.4197729 C285.796752,93.2086482 284.22921,93.5531352 283.334462,94.5314783 C278.728939,99.5851029 272.028737,101.166298 266.490318,104.659397 C264.523955,105.89955 261.642035,105.703192 259.172809,106.16136 C258.305806,106.326714 257.327826,106.28882 256.578735,106.678091 C251.990552,109.055051 247.086781,110.305539 241.985332,110.743038 C239.30109,110.970399 236.502402,111.201205 233.894456,110.705144 C229.930516,109.947273 227.790751,106.612638 228.016172,102.609699 C228.227721,98.8651251 230.911964,97.1047964 233.970752,96.3400352 C236.69674,95.6974999 239.519603,95.5666454 242.293986,95.9542097 C247.253245,96.6225146 251.824088,96.4020429 256.096681,93.4187853 C257.421462,92.4886703 259.269914,92.3164268 260.861732,91.7480232 C262.720587,91.0866081 264.641867,90.5285392 266.40015,89.6535421 C269.811499,87.9369356 273.176644,86.1311949 276.492071,84.2382062 C279.571667,82.5019916 281.458266,79.7288711 283.046617,76.4183508"
        id="路径" fill="#DB251D"></path>
      <polygon id="路径" fill="#131618"
        points="749 142.850451 749 165 686 165 686 67 747.023692 67 747.023692 87.0410553 707.925962 87.0410553 707.925962 103.38015 745.983712 103.38015 745.983712 123.625141 708.001974 123.625141 708.001974 142.850451"></polygon>
      <path
        d="M313.41663,90.9014724 C312.524318,89.4937246 311.635477,88.5287083 311.246609,87.39075 C309.861267,83.3300721 311.524372,79.7536318 315.756781,78.7955332 C319.162847,78.0242119 322.784179,78 326.311766,78 C328.266521,78 330.21086,78.8577923 332.18992,79.0687815 C334.217588,79.2797707 336.283448,79.144876 338.331949,79.2140528 C339.793675,79.2624765 341.258874,79.359324 342.717128,79.5080541 C343.446255,79.5841486 344.206631,80.0614685 344.880205,79.9473268 C348.748052,79.2970649 351.355549,81.8496887 354.473436,83.3093191 C360.049523,85.9276608 364.768018,89.3795829 369.101117,93.7965213 C372.191227,96.9440655 375.149401,99.8079848 376.628487,104.103864 C377.788147,107.476233 380.246347,110.385117 380.239403,114.214053 C380.235931,114.819349 380.642159,115.5042 381.031027,116.019567 C382.228879,117.610633 382.204574,119.160193 381.562248,121.014132 C381.135188,122.259314 381.451143,123.750074 381.399062,125.130151 C381.319206,127.298843 381.329622,129.477913 381.069219,131.625852 C380.829649,133.590473 380.086634,135.499753 379.90956,137.460915 C379.284594,144.2437 375.569517,149.07224 370.351049,153.018776 C369.764275,153.458049 368.983068,153.814309 368.663641,154.405771 C365.365208,160.534835 359.289148,163.47139 353.980407,167.331455 C348.279327,171.482063 341.449836,172.893269 335.161981,175.611918 C329.367156,178.123035 324.155633,176.76717 318.767035,175.151892 C317.742785,174.844055 316.822696,173.847909 316.107457,172.965905 C315.022628,171.665427 314.084201,170.250377 313.308997,168.746121 C311.5209,165.135092 309.482815,161.575946 308.309268,157.760845 C307.003783,153.506472 310.264023,150.839707 314.517265,152.337385 C315.892191,152.821622 317.322669,153.496096 318.378167,154.464571 C321.398837,157.231643 325.058361,157.864611 328.763022,157.224725 C333.561374,156.394604 338.581935,155.633659 342.90809,153.582567 C348.775828,150.798201 354.261642,147.190631 358.306562,141.663405 C361.466113,137.339855 364.827043,133.258424 366.257521,127.969858 C368.743497,118.755509 366.472787,111.851665 359.07041,104.788714 C358.242412,104.063427 357.169201,103.677798 356.0671,103.709556 C353.115871,103.948216 350.129921,104.283724 347.275909,105.013539 C345.046863,105.584247 344.32468,104.657278 343.748322,102.875976 C342.887258,100.205751 341.908144,97.5701155 341.001943,94.9137265 C340.491554,93.4264254 339.429112,92.9006818 337.922249,92.4821622 C333.644702,91.299239 329.52687,93.0148235 325.322236,92.8799288 C324.981977,92.8695522 324.589637,93.2811542 324.280626,93.5578613 C319.516995,97.839905 314.78114,102.146161 310.007093,106.41091 C308.194691,108.029647 306.292016,109.551537 304.43795,111.125309 C303.590773,111.844747 302.806093,112.647198 301.913781,113.304378 C296.55296,117.247455 291.16089,121.145567 285.793125,125.078268 C285.081358,125.600553 284.428616,126.20585 283.772401,126.797312 C283.057162,127.440656 282.47386,128.333037 281.647516,128.737721 C273.634061,132.656586 266.82193,138.896333 257.996018,141.196462 C253.826105,142.285996 249.802017,143.417037 246.125133,145.834766 C243.40653,147.622986 240.073377,147.764798 236.840913,147.380867 C232.865434,146.910465 229.584362,143.721415 229.042724,139.933985 C228.62608,137.007807 231.306491,132.981717 234.910462,131.584346 C236.6812,130.899496 238.653315,130.750766 240.510854,130.276904 C244.215514,129.329182 247.913231,128.360707 251.597059,127.343808 C254.027483,126.672793 256.457907,125.994861 258.832779,125.164739 C263.517341,123.533378 267.941144,121.23727 271.967485,118.347366 C278.276171,113.847416 285.168159,110.16721 291.681695,105.940508 C296.084235,103.086965 300.261092,99.8875382 304.545583,96.8437591 C305.32679,96.2903448 306.12883,95.76806 306.927398,95.2319398 L313.41663,90.9014724 Z"
        id="路径" fill="#DB251D"></path>
      <path
        d="M557.941015,132.282909 L557.941015,148.455402 L596.096291,148.455402 L596.096291,165.658935 L536,165.658935 L536,86.9068258 L594.143517,86.9068258 L594.143517,102.520695 L557.989488,102.520695 L557.989488,116.544902 L592.654699,116.544902 L592.654699,132.282909 L557.941015,132.282909 Z M942.14595,130.831178 L942.14595,146.441599 L979.937677,146.441599 L979.937677,163.914098 L921.648741,163.914098 L921.648741,85.306818 L980,85.306818 L980,100.772411 L941.95552,100.772411 L941.95552,114.969032 L976.579182,114.969032 L976.579182,130.831178 L942.14595,130.831178 Z M845.002339,138.296732 C851.355782,138.107076 857.414922,137.893282 863.477526,137.79673 C863.969182,137.786385 864.720515,138.486388 864.93172,139.020873 C865.755763,141.069159 866.420537,143.179514 867.12686,145.276076 C867.763935,147.172637 869.024237,148.610575 870.983936,148.858852 C874.61942,149.314027 878.306841,149.79334 881.942325,149.634718 C885.058455,149.496787 887.284756,147.48988 887.887208,144.262278 C888.500047,140.979504 887.731401,137.986386 884.902648,136.020859 C883.171465,134.820853 881.149443,133.927745 879.137808,133.262225 C874.719829,131.800149 870.191054,130.662212 865.769612,129.207032 C863.041268,128.310476 860.274837,127.338058 857.788858,125.934603 C848.160017,120.500093 844.472597,109.565557 848.22234,98.5344688 C850.161265,92.8275444 853.554384,88.7861454 859.41617,86.5826863 C870.218753,82.5240458 881.031723,81.3412814 891.816994,86.0654424 C900.97149,90.0723585 905.223276,97.817224 906.933685,107.400029 C906.334695,107.544858 905.929599,107.727617 905.524502,107.731065 C899.673103,107.751755 893.818241,107.793135 887.970305,107.696583 C887.263982,107.686238 886.342993,107.07589 885.927509,106.465542 C884.542562,104.465532 883.344583,102.334487 882.077357,100.255167 C880.332325,97.3861874 876.551421,95.9103181 872.999033,96.710322 C869.495118,97.4965327 866.815247,100.296546 866.822172,103.855184 C866.822172,105.248295 867.69815,107.151752 868.806107,107.913825 C870.696559,109.21728 873.016345,110.058663 875.273808,110.641425 C883.599387,112.753514 891.624799,115.901277 899.160673,120.010436 C904.544652,122.958726 907.826975,127.193229 908.730653,133.265673 C909.731277,139.962257 909.540847,146.503669 906.379706,152.689906 C903.114695,159.08304 897.910758,163.227888 890.920241,164.531343 C882.97411,166.014109 874.858324,166.679629 866.846408,165.055483 C855.846471,162.824438 845.587479,154.931296 845.009264,140.962262 C844.974641,140.15881 845.002339,139.355358 845.002339,138.296732 M670.647962,86.472341 C670.647962,92.5068532 670.647962,98.3965371 670.641037,104.289669 C670.641037,104.565533 670.551015,104.844844 670.467919,105.331054 L648.468043,105.331054 L648.468043,165.376175 L626.239652,165.376175 L626.239652,105.375882 L604.080508,105.375882 L604.080508,86.472341 L670.647962,86.472341 Z"
        id="形状" fill="#131618"></path>
      <g id="编组" transform="translate(0.000000, 2.000000)" fill="#DB251D">
        <path
          d="M249.563607,174.989038 C245.655534,175.047846 242.930258,174.93369 240.668418,173.017263 C235.48071,168.617091 235.989106,162.487292 241.761295,158.571416 C244.534989,156.69304 247.772119,156.731092 250.819032,155.932004 C254.568015,154.949576 258.195952,153.507067 261.886141,152.299787 C264.26557,151.517995 266.721084,150.947218 269.045177,150.030516 C274.395433,147.920371 279.455177,145.457381 284.117197,141.814786 C290.37703,136.9234 297.373518,132.986768 304.017242,128.583137 C308.025611,125.929889 312.068564,123.314692 315.904009,120.426214 C320.659408,116.842427 325.231507,113.013032 329.855484,109.252822 C332.857437,106.810588 336.125693,106.174085 338.640002,107.633891 C340.645915,108.803119 341.527825,110.74722 340.677041,112.905795 C340.151354,114.237608 339.342071,115.604013 338.301071,116.558768 C334.341121,120.190985 330.222082,123.65024 326.186045,127.206354 C322.651487,130.319683 319.407441,133.837745 315.561621,136.490993 C312.116983,138.867501 309.713345,141.396216 309.481627,145.713366 C309.457418,146.211499 308.364541,147.059016 307.773142,147.052098 C302.931282,147.003668 298.871037,148.259378 295.775704,152.386268 C294.668994,153.86337 292.465947,154.51371 290.771296,155.548027 C288.886429,156.699959 286.877057,157.692765 285.154738,159.052252 C278.829194,164.043957 271.597529,167.008538 263.90243,169.08755 C262.166277,169.558009 260.492377,170.460874 258.967191,171.439843 C255.730062,173.525774 252.371886,175.096275 249.560148,174.989038 M276.117569,36.7641401 C276.086626,31.1117179 280.029283,28.1575144 285.604339,29.1226465 C288.426479,29.5859482 291.30933,29.532029 294.11218,28.9635208 C299.991581,27.7735371 305.749937,27.5348486 311.695049,28.6487286 C314.721212,29.2125871 317.986009,28.7974765 321.109009,28.4999806 C324.774989,28.1540552 328.247294,27.9672554 330.675141,31.4507249 C332.438962,33.97944 332.577301,36.9855324 331.014072,39.3585811 C329.575347,41.54483 326.815487,42.8109172 323.972623,41.8942147 C318.88867,40.2510688 313.981099,40.6419645 308.95594,42.0671775 C307.399628,42.5099621 305.504385,42.5307176 303.961907,42.0706367 C298.469854,40.4378685 293.1611,41.2992229 287.77626,42.5376361 C285.706554,43.0256243 283.570805,43.1705328 281.454174,42.9665837 C278.009536,42.5964434 276.135044,40.1888022 276.117569,36.7641401 M0.000295520079,154.053629 C1.30068084,148.539577 2.69790337,142.226437 4.33721892,135.979023 C4.71073385,134.553811 5.97307599,133.374205 6.76506599,132.04931 C7.92365398,130.105209 9.03036489,128.126515 10.1647436,126.165118 C10.9325243,124.836764 11.5585076,123.387336 12.5234212,122.218108 C13.7580956,120.720251 15.5668762,120.322437 17.3652815,120.996991 C19.1982714,121.681924 20.4536966,123.103678 20.5920355,125.13426 C20.6819557,126.441858 20.412195,127.773671 20.3222747,129.091647 C20.1251418,132.032014 19.4576568,135.041565 19.862298,137.891991 C20.4156534,141.790571 19.2639824,144.931575 17.4309924,148.179815 C15.7369271,151.178212 14.2932976,154.311413 13.1148199,157.547476 C11.4063349,162.258981 7.2630859,164.341453 3.19592329,162.179418 C1.05167089,161.037864 -0.0204553096,158.585253 0.000295520079,154.053629 M43.6047056,135.449757 C43.79838,137.276244 43.7222936,139.185753 44.2306889,140.925758 C45.7212902,146.010862 43.4110312,150.667019 42.881885,155.516894 C42.6052073,158.111335 41.3151974,160.093488 39.2262805,161.57059 C37.2445763,162.975047 35.8058521,162.719062 34.2529983,160.854524 C31.3167559,157.326084 30.7461081,153.071201 30.0751646,148.722918 C29.058374,142.150334 30.0993739,135.757631 31.060829,129.337254 C31.4032177,127.03685 34.3083339,124.452787 36.3522906,124.376683 C39.4441642,124.262528 42.6501674,126.462614 43.2069813,129.278447 C43.6047056,131.291733 43.7257521,133.360368 43.9678451,135.404787 L43.6047056,135.446298 M150.84516,134.384307 C150.862286,137.542607 149.537691,139.704641 146.480402,140.507188 C144.239312,141.095261 141.839133,141.105639 139.504665,141.292439 C136.50617,141.534586 133.507675,141.762897 130.505722,141.863216 C128.102084,141.942779 125.650028,142.081149 123.294808,141.724845 C121.219725,141.413513 120.07843,139.683885 119.801752,137.625629 C119.296114,133.858211 121.779672,130.337909 125.497855,129.551728 C128.887157,128.859877 132.324878,128.424011 135.734931,127.811723 C137.107944,127.566116 138.467123,127.216731 139.80901,126.808539 C145.1731,125.18269 150.813867,129.036299 150.841535,134.384307 M58.6905587,116.946204 C61.2394523,116.925449 63.290326,117.811018 64.6287545,120.094126 C67.8312992,125.580504 68.4469071,131.592689 68.1667709,137.763999 C68.1287277,138.597679 67.6929603,139.469411 67.2675683,140.223529 C65.2512794,143.800398 63.4286648,143.994117 60.2226616,141.524209 C54.336343,136.982207 52.8353663,130.551453 52.378848,123.722884 C52.136755,120.125259 55.3358413,116.96696 58.6940172,116.946204"
          id="形状"></path>
        <path
          d="M175.835909,148.363155 C175.410841,146.716457 175.076023,145.047764 174.832952,143.364532 C173.88879,136.113934 173.653613,128.718048 171.097803,121.782242 C169.282105,116.859723 168.939717,111.940663 169.344358,106.751781 C169.676371,102.517653 169.123016,98.2177994 169.033095,93.9490791 C168.981218,91.3892307 169.074597,88.8259229 169.081514,86.2626152 C169.081514,84.4326695 168.988135,82.6027238 169.043471,80.7762373 C169.102265,78.8286769 169.240604,76.8776573 169.423903,74.9370154 C169.652162,72.5189964 170.081012,70.1182736 170.202059,67.6967954 C170.378441,64.2306222 170.288521,60.750612 170.451069,57.2809795 C170.530614,55.5167597 171.332979,53.7110287 171.090886,52.0263717 C170.392275,47.086556 171.543946,42.7417321 174.414477,38.76013 C174.666946,38.407286 174.829494,37.9783384 174.981667,37.5632279 C177.246965,31.3642435 174.704989,24.2381789 169.147225,20.6578503 C167.577079,19.6477479 166.35278,18.1118388 164.907139,16.8872627 C163.796969,15.9463454 162.693717,14.5868583 161.400249,14.337792 C157.537136,13.576756 153.712066,12.6427572 149.897372,11.8125361 C144.903339,10.7159523 139.487372,11.5565512 134.258163,11.5427142 C132.062034,11.5357957 129.80711,11.7641065 127.68015,11.3559145 C124.809619,10.8024337 122.129303,10.9477224 119.424779,11.9889581 C118.480616,12.3521798 117.443074,12.49055 116.436659,12.6704312 C115.00831,12.9264161 113.569586,13.1547269 112.130862,13.3415266 C110.190659,13.590593 108.246998,13.8604148 106.29642,13.9884073 C103.529643,14.175207 100.75249,14.2928217 97.9753377,14.351629 C95.2673545,14.4104363 92.4521586,14.8255469 89.8721387,14.2443921 C85.8948964,13.3449859 83.0278234,13.8119853 80.7590661,17.2262696 C79.1716276,19.6096961 77.89891,22.2318112 76.7506975,24.8608447 C73.1296777,33.1699744 73.4305647,41.6832002 77.5115612,49.504575 C80.2299199,54.7176718 81.5510561,59.9030946 81.6271424,65.5831908 C81.7066873,71.3532276 81.7931491,77.1267236 81.6617271,82.8933012 C81.5233883,88.8985673 81.374674,94.9245889 80.7452322,100.891803 C80.4235943,103.915192 78.8119465,106.779455 78.1652124,109.795925 C77.1034616,114.753037 76.7022789,119.869274 75.3811427,124.746824 C73.6173222,131.270978 71.5422392,137.743243 67.1326879,143.160436 C66.0052262,144.544138 65.2547378,146.332573 64.6702561,148.048363 C62.8095984,153.503608 66.0121431,158.723623 71.6563688,159.553844 C72.4933189,159.674918 73.454774,159.595355 74.2502225,159.308237 C77.4942689,158.13209 80.399385,156.174152 81.6375178,152.977801 C83.684933,147.69206 85.3484579,142.229897 86.8079329,136.743519 C87.8420159,132.848398 88.2950757,128.797611 88.9625607,124.80909 C89.8617633,119.440327 90.7263812,114.068104 91.6359593,108.509082 C92.8671752,108.993378 94.046514,109.664473 95.3088561,109.916999 C98.065258,110.470479 99.4832313,111.957959 99.5039822,114.773792 C99.5108991,115.732006 99.4555636,116.710975 99.2860985,117.648433 C98.4180221,122.39453 98.8364972,127.092198 99.82562,131.748355 C100.908122,136.833459 104.062248,139.704641 109.19462,140.486432 C111.214367,140.794306 113.026606,139.673507 114.337367,137.383481 C115.392201,135.539698 115.568583,133.958819 113.950018,132.163466 C112.985105,131.091097 112.386789,129.447951 112.179281,127.981227 C111.625925,124.099943 111.453002,120.204822 112.694593,116.344294 C113.178779,114.825681 113.092317,113.134106 113.410497,111.549767 C113.548835,110.868294 113.901599,109.923917 114.427287,109.67831 C118.525576,107.734209 122.464775,105.163983 127.368888,105.983826 C127.99833,106.091063 128.703858,105.956152 129.340217,105.793567 C133.109951,104.838813 136.803598,105.115553 140.500705,106.222515 C143.464615,107.111543 146.476944,107.274128 149.447771,106.205218 C153.736275,104.658932 155.050495,99.760627 152.09696,96.2633205 C150.070296,93.8695163 147.407272,92.7694733 144.298106,92.6483994 C140.603574,92.5131732 136.909863,92.356351 133.217163,92.1779407 C131.297712,92.0810816 128.243881,89.2375742 128.319968,87.72588 C128.42718,85.5949791 128.700399,83.4502412 128.534393,81.3400958 C128.38222,79.3959947 129.146542,78.3928108 130.868861,77.946567 C135.897479,76.6389687 140.967598,75.922903 146.207183,76.3795246 C150.893412,76.7877167 153.463056,80.3092379 156.64485,82.9659455 C156.855817,83.1423675 157.042574,83.4640782 157.063325,83.7304408 C157.364212,87.6947467 157.882983,91.665971 157.858774,95.6302769 C157.806897,102.707912 157.308877,109.785547 157.222415,116.863182 C157.163621,121.723435 157.499093,126.590606 157.620139,131.454318 C157.682392,133.81353 157.52676,136.183119 157.699684,138.528494 C158.052448,143.323021 158.419046,148.127926 159.06578,152.88786 C159.387418,155.243613 159.951149,157.737735 161.10282,159.771777 C163.81772,164.580141 171.44365,164.666622 173.829996,159.927444 C175.628401,156.364411 176.849241,152.514261 175.835909,148.363155 M110.083447,93.9732939 C105.739606,94.4299155 101.184799,93.3575466 97.0380919,95.4746104 C95.6097431,96.2010539 94.2021452,96.9620899 92.3829891,97.9237627 C92.4175739,97.1108379 92.3691552,96.4708758 92.4867433,95.8655062 C93.0850589,92.7590955 93.6626236,89.6492256 94.3681518,86.5635704 C95.0356369,83.6197447 98.4283975,81.0218444 101.347348,80.6378671 C103.601891,80.3436194 105.814235,79.7863446 107.939194,78.9774249 C111.601716,77.5695082 115.91443,80.2227566 115.962849,84.0763663 C115.980141,85.1764093 116.07352,86.2902893 116.274111,87.3695767 C117.04535,91.4653343 114.842304,93.471702 110.083447,93.9732939 M158.837521,45.3603879 C158.536634,50.5215959 158.266873,55.6828039 157.921026,60.8405526 C157.793063,62.7362242 155.828651,64.6941623 153.947242,64.635355 C150.108339,64.5177403 146.255601,64.3586146 142.451283,63.8604819 C141.655834,63.7567043 140.42116,62.1031806 140.473037,61.2314484 C140.694379,57.5473422 141.479452,54.0880875 143.896924,50.9228694 C147.241266,46.55729 148.209638,41.3960821 146.546113,35.9961855 C145.093555,31.2915992 141.963638,30.3057116 137.8861,33.0316043 C134.904898,35.0275942 133.770519,37.7534869 133.009655,41.2646304 C132.041283,45.7858763 131.55018,50.1099446 131.813024,54.7557236 C131.95828,57.2878981 129.993868,60.0898943 128.551685,62.5113726 C127.521061,64.2479185 125.629277,64.9224731 123.384729,64.8878806 C121.45836,64.8567473 119.518157,65.5658945 117.584872,65.9602495 C117.152563,66.0501901 116.734088,66.2715824 116.305237,66.292338 C112.276118,66.4860562 108.246998,66.659019 104.221337,66.8146854 C102.685776,66.876952 101.146756,66.8838705 99.6111948,66.9150038 C99.1719689,66.9219223 98.608238,67.1087221 98.3177264,66.9046261 C94.1606435,63.9677188 89.6888398,61.3144705 89.5228331,55.2711526 C89.4176675,51.7281531 89.1012314,48.1945868 88.5752119,44.6892925 C88.1256106,41.6451484 89.1631521,39.0507074 90.1868597,36.3386517 C92.6769592,29.7453123 98.3972713,28.4065808 104.352759,27.323834 C106.289503,26.9709901 108.330002,26.7357607 110.104198,25.9574284 C115.523623,23.5774612 121.039885,22.9651731 126.787865,24.321201 C130.232502,25.1341258 133.646014,25.1929332 137.104486,24.2831492 C138.349535,23.95452 139.777884,23.8645794 141.036768,24.1101864 C149.786701,25.7948435 159.961524,33.7199959 158.837521,45.3603879 M58.3205023,50.9643805 C59.9805686,49.7778561 61.9034788,48.8819092 63.8263891,48.1693027 C66.5516647,47.1557411 67.9143025,45.1701289 68.0180567,42.482288 C68.1252693,39.7494768 67.7967145,37.0028286 67.5961231,34.2665582 C67.5615384,33.7822625 67.250276,33.2875891 66.9839736,32.8482638 C64.7774688,29.2125871 61.6475519,27.0021234 57.3244624,26.6146868 C56.3733827,26.5316647 55.4326785,26.3033539 54.4954327,26.1096356 C51.3862667,25.4696735 48.9272934,27.3549673 46.2193101,28.2543735 C45.9945094,28.3304772 45.8181274,28.6867804 45.7005394,28.9462245 C44.7771274,31.0217773 44.4624065,32.3535903 47.0735526,33.9033364 C50.2242202,35.7747932 50.3833099,37.1342803 48.5261107,39.9916247 C47.9381705,40.9083272 47.6407419,42.0118294 47.1185127,42.98388 C46.5305725,44.0735452 45.8734629,45.1320771 45.1783101,46.1594758 C44.5212005,47.1176893 43.732669,47.9859622 43.0790179,48.9441758 C41.1699416,51.7461721 37.8152241,52.3273268 35.2282873,54.0846282 C35.08649,54.1814874 34.7959784,54.095006 34.5780947,54.0500357 C29.7085666,53.1194962 25.6794472,50.8571436 22.9783809,46.5884233 C22.5184042,45.8619799 21.9615902,44.9072256 22.0791783,44.1565673 C22.7501218,39.8809285 23.6942845,35.6986896 26.1463409,31.9661538 C28.024291,29.1122687 29.5287261,26.0162358 31.3167559,23.0966248 C32.1744569,21.6956267 33.0529087,19.7999551 34.3705864,19.2949039 C36.6773869,18.4093347 38.7801377,16.4513966 41.6091674,17.150166 C42.024184,17.2539437 42.5602471,16.8111591 43.0548086,16.6762481 C44.2410643,16.3545375 45.4204032,15.8875381 46.6274097,15.7975975 C50.1066322,15.5485311 52.7973231,13.0128974 52.7419876,9.85113867 C52.6624427,5.08428572 47.5404463,0.670276755 42.2662771,0.701410047 C40.5783402,0.70234479 38.8946642,0.531968736 37.2411178,0.192899609 C33.8656495,-0.488573562 30.6631048,0.715247065 28.3874305,2.5521113 C25.5618592,4.82830088 23.5870719,8.21491121 21.4359026,11.2555961 C19.4645737,14.0575924 17.6142914,16.9668255 15.9369327,19.9556216 C13.5245608,24.2720974 11.2227742,28.6494811 9.03382336,33.0834931 C8.39746459,34.3703358 8.54272039,36.0722891 7.8233583,37.2899468 C5.64452119,40.9913493 5.44392983,44.4540632 8.26604267,47.8856438 C8.55980343,48.217234 8.76658963,48.6166357 8.86781673,49.0479534 C9.53530175,52.9430742 12.551089,54.9978715 15.5219161,56.6479359 C20.470989,59.3980434 22.113763,64.5350366 19.305484,69.5336596 C18.3198196,71.2875017 17.9670555,73.3907286 17.2027333,75.2864001 C16.753132,76.4106579 16.3035307,77.7217154 15.4389128,78.4723737 C10.0679064,83.1285305 6.94490651,88.5803159 8.56347122,95.9623653 C8.75022869,96.8168012 8.58422205,97.7438815 8.7363948,98.6121544 C10.1232419,106.533848 14.3564112,112.55641 23.0544673,112.777802 C25.6863642,112.846987 28.3044272,113.926275 30.9051978,114.635422 C32.3024203,115.01594 33.6443073,115.593636 34.5400515,115.915346 C37.1581145,115.514073 39.1847788,115.047073 41.2356525,114.919081 C45.8700045,114.635422 49.701991,113.009572 52.9771636,109.543399 C55.7439409,106.61341 58.773562,103.718014 62.2043659,101.670136 C66.6657943,99.0065095 67.976555,92.8732509 66.9563059,89.0819078 C66.2853624,86.5981629 65.8841797,84.0383145 65.4034521,81.50614 C64.6495053,77.5107009 64.0650236,73.4806692 60.8832297,70.4434436 C60.1707846,69.7619704 59.8698975,68.6584682 59.3476683,67.7659805 C58.9776119,67.1363961 58.6905587,66.278501 58.1268278,65.9775458 C55.5779343,64.6318957 55.0245788,62.4802393 54.6648978,59.7923984 C54.146127,55.9595443 55.3462167,53.0883629 58.3205023,50.9643805 M53.5616453,84.9065874 C53.3195523,88.1928793 52.5206454,91.4445787 51.9361637,94.7066559 C51.850594,95.066456 51.6730211,95.3978417 51.4208514,95.6683287 C48.5883632,98.8854355 45.140267,100.746515 40.7341741,100.455937 C40.5820014,100.438641 40.4229117,100.376374 40.2914898,100.421345 C36.3453737,101.74278 32.6966861,99.8090565 28.9131182,99.3835682 C25.0638393,98.9477021 21.3736501,95.2843514 21.3041901,91.4411195 C21.2871883,90.2649729 22.0445936,88.8708933 22.8504174,87.9265167 C24.3341018,86.1968894 25.3751017,84.4188325 25.883497,82.1426429 C26.1947595,80.7658595 27.2115501,79.2956763 28.3390119,78.4101071 C30.7149819,76.5421096 32.7935233,74.5461196 33.9451944,71.699153 C34.1354103,71.2286944 34.3809618,70.5783545 34.7683106,70.4226881 C37.1304467,69.4679338 39.4891243,68.1292022 41.9480977,67.8905136 C44.5004497,67.6414473 46.8176257,68.8452679 48.3808549,71.3670646 C50.9954594,75.5804368 53.9524526,79.658898 53.5616453,84.9065874"
          id="形状"></path>
      </g>
      <path
        d="M839.968623,163.352761 C831.172127,137.757369 822.354704,112.168934 813.593087,86.5665848 C813.125708,85.2029814 812.340929,84.9942666 811.102723,85.0005936 C804.308284,85.0499239 797.513846,85.0847097 790.722896,85.0005936 C789.111484,84.9803523 788.389487,85.4743107 787.880253,87.0188002 C779.533697,112.134148 771.127847,137.225146 762.739436,162.323101 C762.470867,163.123174 762.286008,163.951076 762,164.99465 C769.369943,164.99465 776.384119,165.029436 783.39132,164.9216 C783.917993,164.911164 784.727187,163.919769 784.898095,163.25536 C785.717752,160.089853 786.457188,156.899995 787.025716,153.682308 C787.280334,152.273483 787.862814,151.852575 789.223096,151.863011 C797.133664,151.904754 805.04772,151.904754 812.961776,151.863011 C814.325547,151.856054 814.921979,152.235219 815.071958,153.710137 C815.420749,157.171324 815.98579,160.608161 816.481072,164.170227 L839.975598,164.170227 C839.975598,163.787583 840.034893,163.55104 839.968623,163.352761 M793.719006,134.17791 L799.791448,108.412067 L800.244875,108.45381 L807.897338,134.17791 L793.719006,134.17791 Z"
        id="形状" fill="#131618"></path>
      <path
        d="M104.000514,46.227963 C103.962727,43.1535294 106.016936,39.7769229 107.782593,39.2604181 C110.486041,38.4663358 114.26125,39.5204273 115.336446,41.9834878 C116.710499,45.1352215 117.531495,48.5539916 118.479591,51.8849208 C118.823104,53.0936124 119.056693,54.4041995 118.987991,55.6515412 C118.891807,57.4786331 118.802493,59.4216751 118.139513,61.0730852 C116.713934,64.6042918 114.704382,64.7342964 111.657421,62.5628679 C105.74556,58.3465018 104.642883,52.06763 104.000514,46.227963"
        id="路径" fill="#DB251D"></path>
    </g>
  </g>
</svg>