<?xml version="1.0" encoding="UTF-8"?>
<svg viewBox="0 0 1000 453" version="1.1"
  xmlns="http://www.w3.org/2000/svg" xmlns:xlink="http://www.w3.org/1999/xlink">
  <title>com.zhihu</title>
  <g id="com.zhihu" transform="translate(10.000000, 5.000000)" fill="#0F88EB" fill-rule="nonzero">
    <path
      d="M261.134057,390.13489 L297.00385,390.144704 L308.813441,430.578275 L373.143857,390.144704 L448.984949,390.144704 L448.984949,56.5677435 L261.134057,56.5677435 L261.134057,390.13489 Z M299.306965,92.7813058 L410.816941,92.7813058 L410.816941,353.931142 L368.037802,353.931142 L325.317466,380.78708 L317.540777,353.994933 L299.311866,353.936049 L299.311866,92.7862128 L299.306965,92.7813058 Z M229.419671,209.199567 L149.300665,209.199567 C151.971299,167.65211 152.667133,130.09894 152.667133,96.5596856 L231.00735,96.5596856 C231.00735,96.5596856 234.021001,61.9654289 217.874694,62.3579879 L82.3584179,62.3579879 C87.699685,42.2393421 94.4130207,21.4729741 102.449422,0 C102.449422,0 65.5848792,0 53.0304515,33.0730908 C47.8361918,46.714514 32.8022401,99.2192725 6.02730137,152.852638 C15.0437522,151.871241 44.8715436,151.037053 62.4389219,118.79815 C65.6730837,109.769294 66.2856143,108.591617 70.3038152,96.5204298 L114.504025,96.5204298 C114.504025,112.615346 112.671334,199.076453 111.926496,209.135776 L31.900595,209.135776 C13.9166958,209.135776 8.07070354,245.349338 8.07070354,245.349338 L108.491425,245.349338 C101.753588,321.805099 65.5897795,386.233836 0,437.168358 C31.3762688,446.13833 62.6447322,435.745332 78.0952048,421.986141 C78.0952048,421.986141 113.288764,389.943518 132.585929,315.798948 L215.218761,415.381337 C215.218761,415.381337 227.337067,374.152834 213.317466,354.06363 C201.703885,340.382951 170.352118,303.374457 156.984249,289.958755 L134.59013,307.756396 C141.269163,286.322678 145.287364,265.50724 146.644732,245.388594 L241.043052,245.388594 C241.043052,245.388594 240.910746,209.175032 229.419671,209.175032 L229.419671,209.199567 Z M860.336017,206.73626 C892.236612,167.416575 929.20406,116.928588 929.20406,116.928588 C929.20406,116.928588 900.650333,94.2337739 887.277564,110.696715 C878.094505,123.199717 830.875744,184.610656 830.875744,184.610656 L860.336017,206.741167 L860.336017,206.73626 Z M630.499825,116.14347 C616.710536,103.498165 590.827441,119.41643 590.827441,119.41643 C590.827441,119.41643 651.345467,203.816602 653.79559,207.511563 L683.589079,186.46059 C683.589079,186.46059 644.289114,128.793682 630.519426,116.14347 L630.499825,116.14347 Z M980,225.579089 C949.716486,225.579089 779.540777,227.011929 779.320266,227.011929 L779.320266,72.1474265 C786.685334,72.1474265 798.343017,71.5389601 814.308015,70.3023994 C876.898845,66.6074384 921.691985,64.168666 948.707035,62.9222913 C948.707035,62.9222913 967.411271,21.2325318 947.80049,11.6442796 C943.096255,9.8286945 912.322716,18.6612707 912.322716,18.6612707 C912.322716,18.6612707 659.323066,43.9469735 556.515926,46.3366761 C558.966048,59.8603316 568.178509,72.5203575 580.674134,76.3183652 C601.059153,81.6522598 615.416871,78.9190682 655.941897,77.6776006 C693.967798,75.2241072 722.830242,73.9482906 742.480224,73.9482906 L742.480224,226.997208 L538.091005,226.997208 C538.091005,226.997208 542.40322,261.198906 577.145957,262.033093 L742.431222,262.033093 L742.431222,370.77192 C742.431222,392.186011 725.290165,404.482919 704.944347,403.158033 C683.383269,403.324871 665.00735,401.391518 641.108855,400.380678 C644.161708,406.465342 650.79664,422.442491 670.681834,433.865956 C685.80889,441.23625 695.447672,443.94 710.520826,443.94 C755.784389,443.94 780.447322,417.442271 779.256563,374.457067 L779.256563,262.038 L966.617431,262.038 C981.445572,262.038 979.946097,225.569275 979.946097,225.569275 L980,225.579089 Z"
      id="形状"></path>
  </g>
</svg>