<?xml version="1.0" encoding="UTF-8"?>
<svg viewBox="0 0 512 206" version="1.1" xmlns="http://www.w3.org/2000/svg"
  xmlns:xlink="http://www.w3.org/1999/xlink">
  <title>com.taobao</title>
  <g id="页面-1" stroke="none" stroke-width="1" fill="none" fill-rule="evenodd">
    <g id="com.taobao" transform="translate(9.000000, 3.000000)" fill="#FF4200" fill-rule="nonzero">
      <path
        d="M41,14.7681624 C41,21.8165236 34.7404265,27.5335278 27.0194152,27.5335278 C19.2997787,27.5335278 13.0402052,21.8165236 13.0402052,14.7667639 C13.0402052,7.71700414 19.2997787,2 27.0194152,2 C34.7418014,2 41,7.71700414 41,14.7681624 M6.67339548,46.7654849 L15.252297,33.1903971 C15.252297,33.1903971 27.3260009,42.7224666 30.980283,45.957161 C34.6345651,49.1890584 41.148481,54.6837035 40.9890014,63.5710717 C40.8295218,72.4584399 38.2874723,80.2158328 36.2224868,85.5496522 C34.1575012,90.8820731 20.6539803,119 20.6539803,119 L0,105.910186 C0,105.910186 19.8634565,87.220841 27.4854805,75.8525615 C29.8680504,72.2976142 32.7263094,62.9263704 24.6258467,58.0778251 C16.5226343,53.2292797 6.67339548,46.7640864 6.67339548,46.7640864"
        id="形状"></path>
      <path
        d="M33.0013964,38.1932029 C33.0013964,38.1932029 44.4574289,30.8117669 55.7542723,0 C58.979947,1.12214494 75.2758879,5.45517985 75.2758879,5.45517985 L69.9514301,15.2461722 C69.9514301,15.2461722 94.3185398,7.86056975 115.293804,7.86056975 C115.293804,7.86056975 126.751233,7.38004729 135.626725,10.2687372 C144.502218,13.1574272 153.539693,19.0959071 155.797665,28.7244106 C158.057034,38.3515254 160.475592,70.4507036 155.958251,99.4945366 C155.958251,99.4945366 154.990548,106.237128 148.696992,112.174219 C142.404831,118.11131 134.821005,121 121.428171,121 C108.035337,121 100.934664,118.436288 100.934664,118.436288 L103.678582,107.20095 C103.678582,107.20095 111.907543,110.25074 118.361686,110.25074 C124.815828,110.25074 130.300871,107.52315 133.205375,104.153938 C133.205375,104.153938 135.788707,100.301426 135.950689,97.0919243 C136.111275,93.8824232 136.273257,32.2575006 135.628122,30.1715332 C134.98159,28.0841769 134.17587,20.2208296 124.170693,18.2945734 C114.166912,16.3697059 106.259122,17.6529509 103.839167,18.1348622 C101.419213,18.6167734 86.2515603,22.3067971 78.6663374,25.356587 C81.570841,26.3190207 87.2192627,27.7633657 87.2192627,27.7633657 C87.2192627,27.7633657 84.6387229,33.0602231 79.9580036,38.1945917 C86.4135422,38.0348805 129.333169,38.1945917 129.333169,38.1945917 L129.333169,47.8244841 L101.741781,47.8244841 L101.741781,60.6624888 L129.013394,60.6624888 L129.013394,70.2909924 L101.741781,70.2909924 L101.741781,90.6715332 C101.741781,90.6715332 106.259122,90.6715332 112.875246,85.5371646 C112.392093,82.0054634 112.552678,81.5235521 110.939841,76.3877947 C115.136011,75.4267498 123.525558,72.5380598 123.525558,72.5380598 L134.015284,98.3765581 L118.361686,104.47336 L115.457182,94.0421344 C115.457182,94.0421344 110.779255,99.337603 99.3218265,102.708204 C83.369399,107.402325 73.181294,107.202339 70.4387723,107.041239 C70.4387723,107.041239 62.6943603,107.360662 58.013641,105.274694 C53.3329217,103.191504 46.5562121,98.3765581 46.5562121,84.5733421 C46.5562121,79.9208847 47.6872928,76.0683722 47.6872928,76.0683722 L67.3722868,76.2280835 C67.3722868,76.2280835 66.4045844,83.1303859 66.4045844,84.8941533 C66.4045844,86.6606983 64.9509362,94.2032344 79.1508868,94.0421344 C79.1508868,83.9317196 78.9903012,70.1298923 78.9903012,70.1298923 L50.9129675,69.9701811 L50.9129675,60.3402888 L78.8297157,60.3402888 L78.8297157,48.1439065 L71.7290422,48.1439065 C71.7290422,48.1439065 63.9832337,55.3670202 59.6264783,59.7000551 L51.5594988,52.6380415 C51.5594988,52.6380415 60.8692707,43.0109267 67.2117012,29.0479994 C63.5000807,30.4923444 57.0459386,33.3810344 57.0459386,33.3810344 C57.0459386,33.3810344 52.5258048,39.1584143 46.8801759,45.0955054 C42.8445916,42.8484379 33,38.1945917 33,38.1945917 M203.074047,29.8493331 L202.914858,38.9973142 L293.437623,38.9973142 C293.437623,38.9973142 303.279422,33.0588343 303.279422,27.2814544 C303.279422,21.5040746 295.696992,19.9000184 290.530326,19.5792071 C285.367851,19.2583959 270.845333,19.0986847 258.904751,20.5430296 C246.965565,21.9873746 219.533366,25.195487 203.075443,29.8479444 M180.645135,51.996419 L180.645135,12.6796823 L202.752876,12.6796823 L202.752876,17.6557285 C202.752876,17.6557285 234.378452,13.3226936 237.767505,13.3226936 L237.767505,2.08735624 L262.776957,2.08735624 L262.776957,10.5937148 C262.776957,10.5937148 278.751726,9.14936988 289.241453,9.14936988 C299.729783,9.14936988 311.99014,10.9131373 316.672255,12.5185823 C321.352975,14.1240273 327,18.1362509 327,26.4815095 C327,34.8253793 320.706443,43.4914492 308.120727,51.8367078 C305.890644,49.6151025 303.632021,47.4220178 301.345413,45.2579942 L301.505999,48.9480178 L263.102317,48.9480178 L263.102317,61.9471226 L307.151628,61.9471226 L307.151628,72.2172486 L263.102317,72.2172486 L263.102317,102.867915 L322.965812,102.867915 L322.965812,115.547598 L180.484549,115.547598 L180.484549,102.867915 L237.282955,102.867915 L237.282955,72.536671 L198.072157,72.536671 L198.072157,61.9457338 L237.443541,61.9457338 L237.443541,49.107729 L203.075443,49.107729 L203.075443,51.996419 L180.645135,51.996419 Z"
        id="形状"></path>
      <path
        d="M305.149329,88.0801956 C305.149329,95.0117261 298.86724,100.630192 291.11826,100.630192 C283.36928,100.630192 277.088586,95.0117261 277.088586,88.0801956 C277.088586,81.1500576 283.370675,75.5315913 291.11826,75.5315913 C298.86724,75.5315913 305.149329,81.1500576 305.149329,88.0801956 M388.198242,57.510726 C382.39209,48.8219453 374.165777,43.3510768 374.165777,43.3510768 C374.165777,43.3510768 378.520391,38.5235123 380.781441,34.8224259 C385.824389,38.3002287 390.823743,41.8405314 395.778341,45.4425109 C400.453969,37.5585564 406.583925,23.7219517 406.583925,23.7219517 L424.648596,32.7323843 C423.197058,37.3984266 421.904631,39.0066865 421.904631,39.0066865 C421.904631,39.0066865 431.420579,45.2823811 437.228127,48.9848599 C443.839604,36.4334707 446.74268,21.7906474 446.74268,21.7906474 L466.581297,33.8588624 C466.581297,33.8588624 466.581297,26.4566897 466.258888,23.4002997 C465.937875,12.6186925 454.163668,11.3334771 447.871809,11.4936068 C441.582741,11.6537366 427.710783,14.2269524 412.069064,17.6063868 C396.423159,20.9858212 371.747012,31.9275582 371.747012,31.9275582 L371.747012,72.9583754 C380.45624,67.6476368 383.843628,63.4633762 388.198242,57.510726 M371.908914,77.3027658 L371.908914,115.758975 L347.070865,115.758975 L347.070865,8.5973466 L371.745616,8.5973466 L371.745616,17.9294312 C371.745616,17.9294312 395.776945,8.75886881 412.067669,5.37804197 C428.355601,2 437.709647,2 441.581346,2 C445.450253,2 461.419963,3.76978209 470.450204,7.14921649 C479.481842,10.5272585 485.932812,17.2861273 488.513479,24.5267778 C491.094146,31.7674284 491.254653,51.5566833 491.254653,60.7300306 C491.254653,69.900593 490.611231,98.0569767 489.642608,103.527845 C488.675381,109.000106 486.414332,115.274408 481.576802,118.815365 C476.740668,122.354929 469.803991,121.54871 463.514923,120.263495 C457.223064,118.975495 449.804867,116.239364 443.514403,112.862715 L443.514403,102.241237 C443.514403,102.241237 449.641569,106.585628 455.771526,106.585628 C461.902878,106.585628 466.741804,102.885934 466.741804,94.6789347 C466.741804,86.4733282 467.544337,51.2364238 466.900915,36.7551227 C462.870105,43.1895546 454.48189,54.6130733 450.773489,58.7973339 C455.771526,62.3368981 461.742372,67.809159 465.28887,71.9920271 C460.611847,76.1748952 448.032316,86.4733282 448.032316,86.4733282 C448.032316,86.4733282 440.612723,75.2085469 438.838776,73.1185052 C436.902927,75.3700691 424.968213,88.5633698 406.260121,99.5051068 C403.036031,94.8404569 398.518119,89.0479364 398.518119,89.0479364 C398.518119,89.0479364 412.550584,84.2217644 429.645236,61.5334643 C425.936836,57.6708557 420.453092,50.590335 415.615563,47.3738152 C413.678318,50.1099456 408.032672,56.0625959 408.032672,56.0625959 C408.032672,56.0625959 413.196798,59.923812 416.905198,66.6812884 C413.678318,69.900593 403.680849,80.199026 403.680849,80.199026 L395.613647,67.809159 C395.613647,67.809159 386.745308,77.1412436 378.518995,83.0938938 C374.489581,79.2326776 371.907519,77.3027658 371.907519,77.3027658 M10,152.304766 C10,152.304766 12.4034121,143.560288 21.8077038,143.911181 C31.2119956,144.263467 38.1402985,144.75778 43.5849619,144.75778 C49.0282296,144.75778 61.4011959,143.560288 62.7438686,143.06319 C62.107425,145.672609 59.1401462,150.682582 54.7562221,150.682582 L44.7852722,150.682582 C44.7852722,150.682582 42.4530414,150.61296 42.4530414,153.503651 L42.4530414,187.995604 C42.4530414,187.995604 43.089485,192.722913 47.6841612,191.59365 C46.2005218,195.613603 42.3804644,197.943144 37.9281506,197.943144 C33.4758367,197.943144 29.0905169,195.11929 29.0905169,191.239972 L29.0905169,152.939715 C29.0905169,150.963853 28.8071879,150.46954 25.2718553,150.328904 C23.1503766,150.243966 19.0637386,150.044848 15.5158446,150.46954 C13.2240893,150.742456 11.4152496,151.584878 10,152.304766 M76.8168092,172.971254 C72.3644954,172.971254 68.7565859,177.204249 68.7565859,182.42448 C68.7565859,187.644711 72.3644954,191.874921 76.8168092,191.874921 C81.2691231,191.874921 84.8770326,187.644711 84.8770326,182.42448 C84.8770326,177.204249 81.2691231,172.971254 76.8168092,172.971254 M59.9901334,161.404314 C60.4088463,159.946437 61.1904437,157.453983 64.3028763,155.68977 C67.7502792,153.733402 72.8557852,153.644286 74.6953305,153.644286 C76.5334802,153.644286 82.3326539,153.999357 84.0982266,154.492278 C85.8665908,154.985199 95.9757159,156.539154 95.9757159,167.61178 L95.9757159,188.489917 C95.9757159,188.489917 96.4014074,192.863549 100.855117,191.453014 C100.218673,195.755632 95.9757159,197.941751 92.937256,197.941751 C89.8960046,197.941751 84.9482138,196.106525 84.9482138,192.369235 C84.9482138,192.369235 82.9663061,198.646322 72.361704,198.5767 C61.7571019,198.507079 56.0291094,192.157585 56.0291094,182.705751 C56.0291094,173.253918 62.8876267,166.695559 72.9995433,166.695559 C76.3925135,166.695559 82.4024394,168.035079 84.9482138,172.056425 C84.9705452,167.120251 84.0563553,160.401763 76.4497376,159.695799 C72.5445419,159.447946 64.7299635,159.615038 59.9901334,161.404314 M230.344873,172.971254 C225.89256,172.971254 222.28465,177.204249 222.28465,182.42448 C222.28465,187.644711 225.89256,191.874921 230.344873,191.874921 C234.797187,191.874921 238.405097,187.644711 238.405097,182.42448 C238.405097,177.204249 234.797187,172.971254 230.344873,172.971254 M213.516802,161.404314 C213.935515,159.946437 214.719904,157.453983 217.829545,155.68977 C221.276948,153.733402 226.385245,153.644286 228.223395,153.644286 C230.061544,153.644286 235.860718,153.999357 237.626291,154.492278 C239.393259,154.985199 249.50378,156.539154 249.50378,167.61178 L249.50378,188.489917 C249.50378,188.489917 249.929472,192.863549 254.381785,191.453014 C253.746738,195.755632 249.50378,197.941751 246.46532,197.941751 C243.424069,197.941751 238.476278,196.106525 238.476278,192.369235 C238.476278,192.369235 236.49437,198.646322 225.891164,198.5767 C215.28377,198.507079 209.557174,192.157585 209.557174,182.705751 C209.557174,173.253918 216.415691,166.695559 226.527607,166.695559 C229.920578,166.695559 235.930504,168.035079 238.476278,172.056425 C238.498609,167.120251 237.58442,160.401763 229.977802,159.695799 C226.072606,159.447946 218.258028,159.615038 213.518198,161.404314 M127.441991,160.346065 C122.637958,160.346065 118.746719,167.450258 118.746719,176.215622 C118.746719,184.980987 122.637958,192.086571 127.441991,192.086571 C132.246023,192.086571 136.137262,184.980987 136.137262,176.215622 C136.137262,167.450258 132.243232,160.346065 127.441991,160.346065 M149.501182,176.215622 C149.501182,188.80043 139.623745,199 127.441991,199 C115.257445,199 105.382799,188.80043 105.382799,176.215622 C105.382799,163.633599 115.258841,153.432637 127.441991,153.432637 C139.62514,153.432637 149.501182,163.633599 149.501182,176.215622 M280.533198,160.346065 C275.730561,160.346065 271.837926,167.450258 271.837926,176.215622 C271.837926,184.980987 275.730561,192.086571 280.533198,192.086571 C285.335835,192.086571 289.228469,184.980987 289.228469,176.215622 C289.228469,167.450258 285.335835,160.346065 280.533198,160.346065 M302.592389,176.215622 C302.592389,188.80043 292.716347,199 280.533198,199 C268.350048,199 258.474006,188.80043 258.474006,176.215622 C258.474006,163.633599 268.350048,153.432637 280.533198,153.432637 C292.716347,153.432637 302.592389,163.633599 302.592389,176.215622 M393.934609,160.346065 C389.131972,160.346065 385.239337,167.450258 385.239337,176.215622 C385.239337,184.980987 389.131972,192.086571 393.934609,192.086571 C398.737246,192.086571 402.62988,184.980987 402.62988,176.215622 C402.62988,167.450258 398.737246,160.346065 393.934609,160.346065 M415.9938,176.215622 C415.9938,188.80043 406.117758,199 393.934609,199 C381.751459,199 371.875417,188.80043 371.875417,176.215622 C371.875417,163.633599 381.751459,153.432637 393.934609,153.432637 C406.117758,153.432637 415.9938,163.633599 415.9938,176.215622 M170.862519,167.25114 C169.540781,171.294765 170.245615,182.375745 170.862519,184.486673 C171.479422,186.597601 173.771177,191.873529 179.676425,191.873529 C185.583068,191.873529 187.609639,186.069869 188.050683,184.134387 C188.491727,182.201691 189.37242,177.099817 187.785498,168.306604 C186.199972,159.514783 179.500566,160.217962 179.500566,160.217962 C174.653266,160.307077 172.185651,163.208907 170.863914,167.25114 M153.146776,144.916518 C153.146776,144.916518 154.027468,138.411072 161.521034,138.411072 C169.011808,138.411072 170.5108,143.159267 170.5108,144.390178 L170.5108,158.985659 C170.5108,158.985659 173.684643,154.237463 183.379243,154.237463 C193.073842,154.237463 201.975679,161.099372 201.975679,174.023933 C201.975679,174.023933 204.00504,198.203528 182.850269,198.203528 C175.975003,198.203528 172.009792,195.918546 169.981826,192.576707 C168.660089,196.007662 165.574175,197.940359 161.872753,197.940359 C158.17133,197.940359 153.763679,195.656769 153.763679,191.521243 C155.350601,191.698082 158.34719,191.608967 158.34719,187.739396 L158.34719,147.996579 C158.34719,147.996579 157.995471,144.916518 153.146776,144.916518 M320.605418,192.312145 C320.605418,195.663731 317.843309,198.378975 314.436381,198.378975 C311.029454,198.378975 308.267345,195.663731 308.267345,192.312145 C308.267345,188.961952 311.029454,186.246708 314.436381,186.246708 C317.843309,186.246708 320.605418,188.961952 320.605418,192.312145 M365.646365,191.698082 C365.646365,191.698082 363.441144,189.325377 361.414573,189.411708 C359.388003,189.498039 358.332846,190.20261 357.185573,190.642618 C356.0383,191.081235 353.570685,191.95986 351.365464,191.95986 C349.164429,191.95986 345.109893,191.082627 342.111908,186.508485 C339.08601,181.889786 339.113924,172.879353 340.085338,169.098898 C341.055356,165.315658 343.345716,162.415221 345.98919,160.744301 C348.63406,159.076167 353.658615,159.69023 355.422792,161.096587 C357.184177,162.502944 357.97694,165.140212 361.238714,165.140212 C364.499092,165.140212 366.348407,161.273426 365.822224,158.634766 C365.822224,158.634766 360.53388,154.329363 349.605474,154.237463 C339.380505,154.151132 333.563187,159.688837 331.712476,161.887489 C329.860369,164.08614 326.336202,169.360675 326.336202,176.396638 C326.336202,183.431209 329.861765,190.553503 334.092161,193.807618 C338.294642,197.038062 344.491593,198.643537 349.075104,198.643537 C353.658615,198.643537 360.70974,197.061734 365.646365,191.698082 M420.118122,160.92114 C420.118122,160.92114 421.08814,154.326579 428.666844,154.326579 C434.925206,154.326579 436.600058,158.988444 436.600058,158.988444 C436.600058,158.988444 440.480131,153.88657 448.586412,153.88657 C456.695486,153.88657 460.399699,157.75614 461.897296,159.777953 C464.54077,157.228408 467.273569,153.975685 474.676413,153.975685 C482.080653,153.975685 488.339015,156.526622 489.043849,163.912086 C489.748682,171.297549 489.484893,189.410315 489.484893,189.410315 C489.484893,189.410315 490.099005,192.928993 493.979078,191.43352 C494.330797,195.390814 490.188331,197.941751 486.045864,197.941751 C481.903398,197.941751 477.760932,195.47993 477.760932,190.291725 L477.760932,165.583005 C477.760932,165.583005 477.851653,159.867069 471.062921,159.867069 C464.276981,159.867069 463.569356,166.107952 463.569356,168.043434 L463.569356,197.677189 L451.496467,197.677189 L451.496467,165.669336 C451.496467,165.669336 451.408537,159.779345 445.150175,159.779345 C438.891813,159.779345 437.216961,164.966158 437.216961,167.517094 L437.216961,197.414019 L425.232002,197.414019 L425.232002,164.615264 C425.232002,164.615264 425.494396,161.010256 420.118122,160.92114"
        id="形状"></path>
    </g>
  </g>
</svg>