<?xml version="1.0" encoding="UTF-8"?>
<svg viewBox="0 0 512 113" version="1.1" xmlns="http://www.w3.org/2000/svg"
  xmlns:xlink="http://www.w3.org/1999/xlink">
  <title>com.facebook</title>
  <g id="页面-1" stroke="none" stroke-width="1" fill="none" fill-rule="evenodd">
    <g id="com.facebook" transform="translate(3.000000, 8.000000)" fill="#3C5A99"
      fill-rule="nonzero">
      <path
        d="M39.7005569,15.320916 C33.7055733,15.320916 32.0048334,17.9791349 32.0048334,23.8341985 L32.0048334,33.5095165 L47.9449062,33.5095165 L46.378829,49.1695674 L32.0048334,49.1695674 L32.0048334,96.6484478 L12.932606,96.6484478 L12.932606,49.1695674 L2.96311439e-14,49.1695674 L2.96311439e-14,33.5095165 L12.8677684,33.5095165 L12.8677684,24.1084987 C12.8677684,8.30880407 19.2019025,0 36.977378,0 C40.792821,0 45.35639,0.274300254 48.0795689,0.683256997 L48.0795689,15.3957252 M49.1768205,67.0240204 C49.1768205,84.6640204 57.5558325,97.8753181 74.9921575,97.8753181 C84.5282711,97.8753181 90.5232547,93.1074809 93.1766085,87.0529262 L93.1766085,96.5886005 L111.50071,96.5886005 L111.50071,33.499542 L93.1766085,33.499542 L93.1766085,43.1748601 C90.3836045,37.1153181 84.5980962,32.1430025 74.9921575,32.1430025 C57.5358824,32.1430025 49.1768205,45.4241221 49.1768205,62.9943003 M68.3188729,62.72 C68.3188729,53.3189822 71.7901779,47.0599491 80.6479906,47.0599491 C88.4783768,47.0599491 92.43347,52.7803562 92.43347,61.7724173 L92.43347,68.1062595 C92.43347,77.0983206 88.4833643,82.8187277 80.6479906,82.8187277 C71.7951654,82.8187277 68.3188729,76.619542 68.3188729,67.1586768 L68.3188729,62.72 Z M151.281067,32.1380153 C128.92706,32.1479898 118.70267,44.1972519 118.70267,63.5429008 L118.70267,66.4704326 C118.70267,85.8110941 128.917085,97.8703308 151.330942,97.8703308 C158.812203,97.8703308 165.769775,96.3043257 169.655043,93.6461069 L165.430625,80.090687 C161.445789,81.9747823 157.100145,82.9735198 152.692531,83.0182188 C142.338466,83.0182188 137.844723,77.0235115 137.844723,66.874402 L137.844723,63.1987786 C137.844723,52.9848346 142.333479,47.0549618 152.692531,47.0549618 C157.680038,47.0549618 162.502958,48.4863104 165.430625,49.9824936 L169.655043,36.4270738 C165.774763,33.7040204 158.75734,32.1380153 151.330942,32.1380153 M172.103909,67.4180153 C172.103909,85.9457506 181.096385,98 205.205994,98 C214.333132,98 224.687197,96.0250382 229.724579,93.3618321 L226.253274,80.215369 C220.667266,82.5992875 213.106205,84.0306361 205.95412,84.0306361 C195.33073,84.0306361 191.515287,80.215369 191.106311,71.5624427 L231.290656,71.5624427 L231.290656,61.4881425 C231.290656,44.0326718 222.712144,32.0632061 203.091291,32.0632061 C182.243511,32.0632061 172.098922,43.8481425 172.098922,61.7574555 L172.098922,67.4579135 M191.171149,59.2189313 C191.171149,50.7056489 194.512779,45.3243766 203.141166,45.3243766 C211.520178,45.3243766 214.243357,50.7754707 214.243357,57.6529262 L214.243357,59.2189313 L191.171149,59.2189313 M302.12822,63.0341985 C302.12822,45.3941985 293.614546,32.1829008 276.178221,32.1829008 C267.325396,32.1829008 261.195749,36.6714504 258.402745,42.257201 L258.402745,0.0997455471 L239.330518,1.79541985 L239.330518,96.5536896 L257.385294,96.5536896 L257.385294,87.0180153 C260.043635,93.0775573 266.647095,97.9152163 276.188196,97.9152163 C293.644471,97.9152163 302.138195,84.6340967 302.138195,67.0639186 M283.065968,67.3382188 C283.065968,76.1906361 279.594663,82.8686005 270.467525,82.8686005 C262.637139,82.8686005 258.41272,77.2828499 258.41272,68.2907888 L258.41272,61.6826463 C258.41272,52.6905852 262.637139,47.1048346 270.467525,47.1048346 C279.594663,47.1048346 283.065968,53.7129771 283.065968,62.6352163 L283.065968,67.3382188 Z M308.542155,66.5901272 C308.542155,84.7737405 318.896219,97.8503817 339.9435,97.8503817 C360.99078,97.8503817 371.344845,84.7039186 371.344845,66.5901272 L371.344845,63.3882952 C371.344845,45.2046819 360.99078,32.1280407 339.9435,32.1280407 C318.896219,32.1280407 308.542155,45.2745038 308.542155,63.3882952 L308.542155,66.5901272 M352.272617,67.8868193 C352.272617,76.2654453 348.801312,82.8686005 339.9435,82.8686005 C331.085687,82.8686005 327.614382,76.260458 327.614382,67.8868193 L327.614382,62.0317557 C327.614382,53.6531298 331.085687,47.0499746 339.9435,47.0499746 C348.801312,47.0499746 352.272617,53.658117 352.272617,62.0317557 L352.272617,67.8868193 Z M377.678979,66.5901272 C377.678979,84.7737405 388.033044,97.8503817 409.080324,97.8503817 C430.127604,97.8503817 440.481669,84.7039186 440.481669,66.5901272 L440.481669,63.3882952 C440.481669,45.2046819 430.127604,32.1280407 409.080324,32.1280407 C388.033044,32.1280407 377.678979,45.2745038 377.678979,63.3882952 L377.678979,66.5901272 M421.469291,67.8868193 C421.469291,76.2654453 417.997986,82.8686005 409.140174,82.8686005 C400.282361,82.8686005 396.806069,76.3851399 396.806069,67.9067684 L396.806069,62.0517048 C396.806069,53.6730789 400.277374,47.0699237 409.135186,47.0699237 C417.992999,47.0699237 421.464304,53.6780662 421.464304,62.0517048 L421.469291,67.8868193 Z M466.765831,0.0498727735 L447.693604,1.74554707 L447.693604,96.3841221 L466.765831,96.3841221 L466.765831,65.5328244 L486.381697,96.3841221 L506.680851,96.3841221 L486.112372,64.4655471 L505.8629,33.3449364 L485.563746,33.3449364 L466.760844,63.4481425"
        id="形状"></path>
    </g>
  </g>
</svg>