<?xml version="1.0" encoding="UTF-8"?>
<svg width="3290px" height="500px" viewBox="0 0 3290 500" version="1.1"
  xmlns="http://www.w3.org/2000/svg" xmlns:xlink="http://www.w3.org/1999/xlink">
  <title>com.baidu.cloud</title>
  <g id="com.baidu.cloud"
    transform="translate(1618.000000, 238.000000) scale(-1, 1) rotate(-180.000000) translate(-1618.000000, -238.000000) translate(0.000000, 0.000000)">
    <path
      d="M363.309041,388.701473 L363.309041,388.701473 L212.248966,476 L186.753595,461.344043 C185.478826,460.706827 184.204058,460.069612 182.929289,459.432396 L21.0336813,366.398929 L93.0581052,324.97992 C98.7945637,321.793842 105.168407,321.793842 110.904865,324.97992 L147.235769,346.008032 L194.402206,373.4083 C205.237739,379.780455 219.260193,379.780455 230.095726,373.4083 L267.064014,352.380187 L312.955682,326.254351 C318.692141,323.068273 325.065984,323.068273 330.802442,326.254351 L402.826866,367.67336 L363.309041,388.701473 Z"
      id="路径" fill="#00D263"></path>
    <path
      d="M351.836124,288.021419 C346.099665,284.835341 342.912744,279.100402 342.912744,272.728246 L342.912744,177.145917 C342.912744,164.401606 335.901517,152.931727 325.065984,146.559572 L240.931259,98.1311914 C235.1948,94.9451138 232.007879,89.210174 232.007879,82.8380187 L232.007879,0 L395.178255,93.6706827 C395.178255,93.6706827 395.815639,93.6706827 395.815639,94.3078983 L423.860548,110.238286 L423.860548,329.440428 L351.836124,288.021419 Z"
      id="路径" fill="#FF502E"></path>
    <path
      d="M180.379752,99.4056225 L98.7945637,146.559572 C87.9590309,152.931727 80.9478038,164.401606 80.9478038,177.145917 L80.9478038,272.728246 C80.9478038,279.100402 77.7608824,284.835341 72.0244239,288.021419 L-2.76327215e-15,329.440428 L-2.76327215e-15,329.440428 L-2.76327215e-15,110.238286 L25.4953713,95.5823293 C26.7701398,94.9451138 28.0449084,94.3078983 29.319677,93.6706827 L189.940516,1.27443106 L189.940516,84.1124498 C189.303132,90.4846051 185.478826,96.2195448 180.379752,99.4056225"
      id="路径" fill="#0062FF"></path>
    <path
      d="M719.606854,180.96921 C718.96947,177.145917 717.057317,173.322624 714.50778,169.499331 C710.683474,163.764391 705.5844,159.941098 699.847942,157.392236 C695.386252,155.480589 685.825487,152.931727 666.703959,152.931727 L637.384282,152.931727 L637.384282,221.113788 L674.35257,220.476573 C681.363798,219.839357 687.73764,219.202142 691.561946,217.927711 C697.935789,216.016064 703.034863,213.467202 707.496553,210.281124 C709.408706,209.006693 710.683474,207.732262 711.958243,206.457831 C712.595627,205.820616 713.233012,205.820616 713.233012,205.1834 C714.50778,203.271754 716.419933,201.360107 717.057317,199.448461 C718.96947,195.625167 720.244239,190.527443 720.244239,184.792503 C719.606854,183.518072 719.606854,182.243641 719.606854,180.96921 M637.384282,320.519411 L664.791806,320.519411 C701.12271,320.519411 701.12271,304.589023 701.12271,296.942436 C701.12271,286.746988 697.935789,279.737617 690.924562,275.277108 C686.462872,272.728246 680.726413,270.179384 674.989955,268.904953 L637.384282,268.267738 L637.384282,320.519411 Z M727.255466,249.788487 C731.079772,253.61178 734.266693,258.072289 737.453614,262.532798 C743.827457,272.728246 746.376994,284.198126 746.376994,296.305221 C746.376994,317.970549 738.728383,335.175368 723.43116,347.282463 C708.771322,358.752343 687.73764,364.487282 660.9675,364.487282 L592.767382,364.487282 L592.767382,108.963855 L678.81426,108.963855 C703.672247,108.963855 724.705929,116.610442 740.640536,130.629183 C757.212527,145.285141 765.498523,164.401606 765.498523,186.70415 C765.498523,203.271754 760.399448,217.927711 750.838684,230.672021 C744.464841,238.318608 736.81623,244.690763 727.255466,249.788487 M1047.22238,108.963855 L1091.20189,108.963855 L1091.20189,365.761714 L1047.22238,365.761714 L1047.22238,108.963855 Z M868.117392,216.65328 L871.941698,226.211513 L893.612763,277.188755 L919.108135,216.65328 L868.117392,216.65328 Z M884.051999,364.487282 L774.421903,109.601071 L822.863108,109.601071 L849.633248,172.685408 L938.229663,172.685408 L964.999803,109.601071 L1012.16624,109.601071 L903.810912,364.487282 L884.051999,364.487282 Z M1746.43293,216.65328 L1750.25724,226.211513 L1771.9283,277.188755 L1797.42368,216.65328 L1746.43293,216.65328 Z M1762.36754,364.487282 L1652.73744,109.601071 L1701.17865,109.601071 L1727.94879,172.685408 L1816.5452,172.685408 L1843.31534,109.601071 L1890.48178,109.601071 L1782.12645,364.487282 L1762.36754,364.487282 Z M1924.90053,108.963855 L1968.88005,108.963855 L1968.88005,365.761714 L1924.90053,365.761714 L1924.90053,108.963855 Z M2369.15738,365.124498 L2325.17786,365.124498 L2325.17786,109.601071 L2496.63423,109.601071 L2496.63423,153.568942 L2369.15738,153.568942 L2369.15738,365.124498 Z M1211.03014,153.568942 L1190.63384,153.568942 L1190.63384,319.882195 L1211.03014,319.882195 C1256.9218,319.882195 1293.89009,282.286479 1293.89009,237.044177 C1293.89009,191.164659 1256.9218,153.568942 1211.03014,153.568942 M1211.03014,364.487282 L1146.01694,364.487282 L1146.01694,109.601071 L1211.03014,109.601071 C1281.14241,109.601071 1338.50699,166.950469 1338.50699,237.044177 C1338.50699,307.137885 1281.14241,364.487282 1211.03014,364.487282 M3108.52314,153.568942 L3088.12685,153.568942 L3088.12685,319.882195 L3108.52314,319.882195 C3154.41481,319.882195 3191.3831,282.286479 3191.3831,237.044177 C3191.3831,191.164659 3154.41481,153.568942 3108.52314,153.568942 M3108.52314,364.487282 L3043.50995,364.487282 L3043.50995,109.601071 L3108.52314,109.601071 C3178.63541,109.601071 3236,166.950469 3236,237.044177 C3236,307.137885 3178.63541,364.487282 3108.52314,364.487282 M1522.07367,203.271754 C1522.07367,174.597055 1499.12783,151.657296 1470.44554,151.657296 C1441.76325,151.657296 1418.81741,174.597055 1418.81741,203.271754 L1418.81741,362.575636 L1374.20051,362.575636 L1374.20051,203.271754 C1374.20051,150.382865 1417.54264,107.052209 1470.44554,107.052209 C1523.34843,107.052209 1566.69057,150.382865 1566.69057,203.271754 L1566.69057,362.575636 L1522.07367,362.575636 L1522.07367,203.271754 Z M2951.08923,203.271754 C2951.08923,174.597055 2928.14339,151.657296 2899.4611,151.657296 C2870.77881,151.657296 2847.83297,174.597055 2847.83297,203.271754 L2847.83297,362.575636 L2803.21607,362.575636 L2803.21607,203.271754 C2803.21607,150.382865 2846.5582,107.052209 2899.4611,107.052209 C2952.36399,107.052209 2995.70613,150.382865 2995.70613,203.271754 L2995.70613,362.575636 L2951.08923,362.575636 L2951.08923,203.271754 Z M2212.99823,325.617135 C2227.65807,325.617135 2241.68052,321.793842 2253.79082,314.147256 L2262.7142,308.412316 L2286.29742,345.370817 L2276.73666,351.105756 C2257.61513,363.212851 2235.30668,369.585007 2212.36084,369.585007 C2138.42427,369.585007 2078.51014,310.323963 2078.51014,238.318608 C2078.51014,165.676037 2138.42427,107.052209 2212.36084,107.052209 C2235.30668,107.052209 2257.61513,113.424364 2276.73666,125.531459 L2286.29742,131.266399 L2262.7142,168.2249 L2253.79082,162.48996 C2241.68052,154.843373 2227.02068,151.02008 2212.99823,151.02008 C2163.28225,151.02008 2123.12704,190.527443 2123.12704,238.318608 C2123.12704,286.109772 2163.91964,325.617135 2212.99823,325.617135 M2636.22139,147.834003 C2588.41757,147.834003 2550.17451,187.978581 2550.17451,237.681392 C2550.17451,287.384203 2589.05495,327.528782 2636.22139,327.528782 C2684.02521,327.528782 2722.26827,287.384203 2722.26827,237.681392 C2722.26827,188.615797 2684.02521,147.834003 2636.22139,147.834003 M2636.22139,372.133869 C2563.55958,372.133869 2504.92023,312.235609 2504.92023,238.318608 C2504.92023,164.401606 2564.19697,104.503347 2636.22139,104.503347 C2708.8832,104.503347 2767.52255,164.401606 2767.52255,238.318608 C2768.15994,311.598394 2708.8832,372.133869 2636.22139,372.133869"
      id="形状" fill="#232323"></path>
  </g>
</svg>