<?xml version="1.0" encoding="UTF-8"?>
<svg viewBox="0 0 3642 1000" version="1.1" xmlns="http://www.w3.org/2000/svg"
  xmlns:xlink="http://www.w3.org/1999/xlink">
  <title>net.oschina</title>
  <g id="net.oschina" stroke="none" stroke-width="1" fill="none" fill-rule="evenodd">
    <g transform="translate(1.000000, 1.000000)">
      <g>
        <path
          d="M481.959567,685.788002 C379.085156,686.493546 295.235465,618.761397 289.598511,492.469163 C283.961558,374.643446 386.835969,295.622607 484.778044,293.505975 C597.517123,290.683804 665.160572,420.503756 665.160572,420.503756 L956.168322,312.555643 C956.168322,312.555643 836.38305,3.5752521e-14 512.258194,3.5752521e-14 C209.271917,3.5752521e-14 3.85900227e-14,211.662963 3.85900227e-14,498.81905 C3.85900227e-14,754.225693 197.29339,1008.92679 505.212002,997.638102 C843.429242,984.938326 958.986799,685.082459 958.986799,685.082459 L660.228237,585.600866 C660.932857,584.189781 599.630982,685.788002 481.959567,685.788002"
          id="Shape" fill="#3DAB53" fill-rule="nonzero"></path>
        <path
          d="M481.959567,685.788002 C379.085156,686.493546 295.235465,618.761397 289.598511,492.469163 C283.961558,374.643446 386.835969,295.622607 484.778044,293.505975 C597.517123,290.683804 665.160572,420.503756 665.160572,420.503756 L956.168322,312.555643 C956.168322,312.555643 836.38305,3.5752521e-14 512.258194,3.5752521e-14 C209.271917,3.5752521e-14 3.85900227e-14,211.662963 3.85900227e-14,498.81905 C3.85900227e-14,754.225693 197.29339,1008.92679 505.212002,997.638102 C843.429242,984.938326 958.986799,685.082459 958.986799,685.082459 L660.228237,585.600866 C660.932857,584.189781 599.630982,685.788002 481.959567,685.788002"
          id="Shape_1_" stroke="#006838" stroke-width="1.72309263"></path>
        <g id="Shape_2_" transform="translate(1107.661457, 713.304195)" fill="#000000"
          fill-rule="nonzero">
          <path
            d="M-6.82419151e-14,109.359198 C-6.82419151e-14,86.076272 9.16005025,69.1432348 26.7755314,58.5600867 C41.5725358,49.3880249 59.8926363,44.4492223 81.735833,44.4492223 C105.692887,44.4492223 125.422226,50.0935681 140.219231,61.3822596 C155.720854,72.6709508 162.767047,88.1929015 162.767047,107.948112 C162.767047,124.175605 159.24395,136.16984 152.902377,145.341902 C145.856185,154.513963 136.696135,161.569396 123.308369,166.508198 C110.625222,171.447001 96.5328371,174.269174 81.0312138,174.269174 C56.3695399,174.269174 36.640201,168.624828 21.8431967,157.336136 C7.75081175,146.752988 -6.82419151e-14,130.525494 -6.82419151e-14,109.359198 L-6.82419151e-14,109.359198 Z M30.2986278,109.359198 C30.2986278,125.586692 35.2309624,136.875383 45.0956319,145.341902 C54.9603015,153.102877 66.9388287,157.336136 81.735833,157.336136 C96.5328371,157.336136 108.511364,153.102877 118.376034,145.341902 C128.240703,137.580926 133.173038,125.586692 133.173038,109.359198 C133.173038,93.8372473 128.240703,82.5485558 118.376034,74.7875805 C108.511364,67.0266053 96.5328371,62.7933459 81.735833,62.7933459 C66.9388287,62.7933459 54.9603015,67.0266053 45.0956319,74.7875805 C35.2309624,81.8430126 30.2986278,93.8372473 30.2986278,109.359198 L30.2986278,109.359198 Z"
            id="Shape"></path>
          <path
            d="M186.019482,134.758754 L214.908871,131.231038 C216.318109,139.697556 221.250445,146.047445 228.296637,150.280704 C236.047449,154.513963 245.912118,156.630593 260.004504,156.630593 C273.392269,156.630593 283.961558,154.513963 290.30313,150.986247 C296.644704,146.752988 300.167801,142.519729 300.167801,136.875383 C300.167801,131.936581 297.349324,128.408865 291.712368,125.586692 C287.484653,123.470062 277.619985,121.353433 261.413742,118.53126 C239.570546,114.298001 224.77354,111.475828 216.318109,108.653655 C207.862679,105.831482 201.521105,101.598223 197.29339,96.6594201 C193.065675,91.7206176 190.951817,86.076272 190.951817,79.7263831 C190.951817,74.0820374 193.065675,69.1432348 196.588771,64.2044324 C200.111867,59.2656298 205.044202,55.7379138 211.385774,52.2101978 C216.318109,50.0935681 221.955063,47.9769384 230.410495,45.8603089 C238.161305,44.4492223 246.616738,43.038136 255.776788,43.038136 C269.164554,43.038136 281.143082,44.4492223 291.712368,47.2713952 C302.281657,50.0935681 309.327851,53.6212841 314.260185,58.5600867 C319.19252,63.4988891 322.715617,69.848778 324.124856,77.6097534 L295.235465,80.4319263 C293.826227,74.0820374 290.30313,69.1432348 283.961558,65.6155188 C277.619985,62.0878027 268.459934,59.971173 257.186027,59.971173 C243.798261,59.971173 233.93359,61.3822596 228.296637,64.9099756 C222.659683,68.4376916 219.841206,71.9654077 219.841206,76.1986669 C219.841206,79.0208397 221.250445,81.1374694 223.364301,83.2540991 C225.47816,85.3707286 229.705875,87.4873583 234.638211,88.8984449 C237.456687,89.6039881 246.616738,91.7206176 260.709122,94.5427904 C281.8477,98.7760498 295.940086,101.598223 304.395516,104.420395 C312.850946,107.242568 319.19252,110.770284 324.124856,115.709087 C329.057189,120.647889 331.171047,126.292235 331.171047,133.347667 C331.171047,140.403099 328.352571,146.752988 322.715617,153.102877 C317.078662,159.452766 308.623231,164.391569 298.053942,167.213741 C287.484653,170.741458 274.801508,172.152544 261.413742,172.152544 C238.865926,172.152544 221.250445,168.624828 209.976536,162.274939 C196.588771,158.04168 189.542578,148.164075 186.019482,134.758754 L186.019482,134.758754 Z"
            id="Shape"></path>
          <path
            d="M479.845709,126.292235 L508.735099,129.114408 C505.212002,143.225272 497.46119,154.513963 484.073424,162.274939 C470.685658,170.035914 455.184036,174.269174 436.159315,174.269174 C412.20226,174.269174 393.177541,168.624828 378.380537,157.336136 C363.583533,146.047445 356.537341,130.525494 356.537341,109.359198 C356.537341,95.953877 359.355817,83.9596423 365.697391,74.0820374 C372.038963,64.2044324 381.199013,56.443457 393.882161,51.5046546 C406.565307,46.565852 420.657693,43.7436792 435.454697,43.7436792 C454.479416,43.7436792 469.98104,47.2713952 481.959568,53.6212841 C493.938095,60.6767164 501.688905,69.848778 505.212002,82.5485558 L476.322612,85.3707286 C473.504135,76.9042102 468.571802,70.5543213 461.525608,66.3210619 C454.479416,62.0878027 446.023986,59.971173 436.159315,59.971173 C421.362311,59.971173 409.383783,63.4988891 400.223735,71.2598645 C391.063684,79.0208397 386.131349,91.0150744 386.131349,107.242568 C386.131349,124.175605 390.359064,136.16984 399.519115,143.225272 C408.679165,150.986247 419.953072,154.513963 434.750076,154.513963 C446.023986,154.513963 455.888654,151.691791 463.639467,146.752988 C472.799517,144.636359 477.73185,136.875383 479.845709,126.292235 L479.845709,126.292235 Z"
            id="Shape"></path>
          <path
            d="M534.101392,171.447001 L534.101392,8.512505e-15 L563.6954,8.512505e-15 L563.6954,61.3822596 C577.787784,50.0935681 594.698647,44.4492223 615.837225,44.4492223 C628.520371,44.4492223 639.79428,46.565852 649.658949,50.0935681 C659.523617,53.6212841 665.865191,58.5600867 670.092906,64.9099756 C674.320621,71.2598645 676.43448,80.4319263 676.43448,92.4261609 L676.43448,170.741458 L646.840472,170.741458 L646.840472,92.4261609 C646.840472,81.8430126 643.317375,74.0820374 636.975801,69.1432348 C630.634229,64.2044324 621.474179,62.0878027 609.495651,62.0878027 C601.040221,62.0878027 592.584789,63.4988891 584.833976,67.0266053 C577.083166,70.5543213 571.446211,74.7875805 568.627734,80.4319263 C565.104639,86.076272 563.6954,93.8372473 563.6954,103.009309 L563.6954,170.741458 L534.101392,171.447001 L534.101392,171.447001 Z"
            id="Shape"></path>
          <path
            d="M720.825492,24.6940124 L720.825492,0.705543228 L750.419501,0.705543228 L750.419501,24.6940124 L720.825492,24.6940124 L720.825492,24.6940124 Z M720.825492,171.447001 L720.825492,47.2713952 L750.419501,47.2713952 L750.419501,171.447001 L720.825492,171.447001 L720.825492,171.447001 Z"
            id="Shape"></path>
          <path
            d="M795.515133,171.447001 L795.515133,47.2713952 L822.290665,47.2713952 L822.290665,64.9099756 C834.97381,51.5046546 853.293911,44.4492223 877.955584,44.4492223 C888.524873,44.4492223 898.389544,45.8603089 906.844974,48.6824817 C915.300405,51.5046546 922.346599,55.0323706 926.574314,59.2656298 C930.802029,63.4988891 934.325126,69.1432348 935.734364,74.7875805 C937.143603,79.0208397 937.143603,85.3707286 937.143603,95.2483338 L937.143603,171.447001 L907.549595,171.447001 L907.549595,95.953877 C907.549595,87.4873583 906.140356,81.1374694 904.026498,76.9042102 C901.912639,72.6709508 897.684924,69.1432348 892.04797,67.0266053 C886.411017,64.2044324 879.364825,63.4988891 871.614013,63.4988891 C858.930865,63.4988891 848.361576,66.3210619 839.201527,71.9654077 C830.041477,77.6097534 825.813762,88.1929015 825.813762,104.420395 L825.813762,172.152544 L795.515133,172.152544 L795.515133,171.447001 Z"
            id="Shape"></path>
          <path
            d="M1095.68293,156.630593 C1084.40903,162.980482 1074.54436,167.919285 1063.97507,170.741458 C1054.1104,173.56363 1042.83649,174.974717 1031.56258,174.974717 C1012.53786,174.974717 997.740858,171.447001 987.171569,165.097112 C976.60228,158.747223 971.669944,150.280704 971.669944,139.697556 C971.669944,133.347667 973.783803,128.408865 977.3069,122.764519 C981.534615,117.825717 986.466951,113.592457 992.808522,110.770284 C999.150096,107.948112 1006.19629,105.125939 1013.9471,103.714852 C1019.58405,102.303766 1028.7441,101.598223 1040.01801,100.892679 C1063.97507,98.7760498 1081.59055,96.6594201 1092.86446,93.8372473 L1092.86446,88.1929015 C1092.86446,79.7263831 1090.04598,73.3764942 1084.40903,69.848778 C1076.65821,64.9099756 1065.3843,62.7933459 1050.5873,62.7933459 C1036.49492,62.7933459 1026.63025,64.2044324 1019.58405,67.7321485 C1013.24248,71.2598645 1008.31015,77.6097534 1004.78705,86.076272 L975.897662,83.2540991 C978.716138,74.7875805 982.943854,67.0266053 988.580807,62.0878027 C994.922381,56.443457 1003.37781,52.2101978 1014.65172,49.3880249 C1025.92563,46.565852 1039.31339,45.1547657 1054.1104,45.1547657 C1068.9074,45.1547657 1080.88593,46.565852 1090.04598,48.6824817 C1099.20603,51.5046546 1106.25222,54.3268273 1110.47994,57.8545435 C1114.70765,61.3822596 1118.23075,66.3210619 1119.63999,71.9654077 C1120.34461,75.4931237 1121.04923,81.8430126 1121.04923,91.0150744 L1121.04923,119.236803 C1121.04923,138.992013 1121.75385,150.986247 1123.16308,156.630593 C1124.57232,161.569396 1126.68618,166.508198 1130.91389,171.447001 L1099.91065,171.447001 C1098.50141,167.213741 1097.09217,162.274939 1095.68293,156.630593 L1095.68293,156.630593 Z M1093.56908,109.359198 C1082.99979,112.181371 1066.79355,115.003544 1045.65497,117.120173 C1033.67644,118.53126 1025.22101,119.942346 1019.58405,121.353433 C1014.65172,122.764519 1010.424,124.881149 1007.60553,128.408865 C1004.78705,131.231038 1003.37781,134.758754 1003.37781,138.28647 C1003.37781,143.930815 1006.19629,148.869618 1012.53786,152.397334 C1018.17482,155.92505 1027.33487,158.04168 1038.60877,158.04168 C1049.88268,158.04168 1059.74735,155.92505 1068.9074,152.397334 C1078.06745,148.869618 1084.40903,143.930815 1088.63674,137.580926 C1092.15984,132.642124 1093.56908,125.586692 1093.56908,116.41463 L1093.56908,109.359198 L1093.56908,109.359198 Z"
            id="Shape"></path>
          <polygon id="Shape"
            points="1177.41877 171.447001 1177.41877 147.458531 1211.24049 147.458531 1211.24049 171.447001"></polygon>
          <path
            d="M1262.6777,171.447001 L1262.6777,47.2713952 L1289.45323,47.2713952 L1289.45323,64.9099756 C1302.13637,51.5046546 1320.45647,44.4492223 1345.11815,44.4492223 C1355.68744,44.4492223 1365.55211,45.8603089 1374.00754,48.6824817 C1382.46297,51.5046546 1389.50916,55.0323706 1393.73688,59.2656298 C1397.96459,63.4988891 1401.48769,69.1432348 1402.89693,74.7875805 C1404.30617,79.0208397 1404.30617,85.3707286 1404.30617,95.2483338 L1404.30617,171.447001 L1374.71216,171.447001 L1374.71216,95.953877 C1374.71216,87.4873583 1373.30292,81.1374694 1371.18906,76.9042102 C1369.0752,72.6709508 1364.84749,69.1432348 1359.21053,67.0266053 C1353.57358,64.2044324 1346.52739,63.4988891 1338.77658,63.4988891 C1326.09343,63.4988891 1315.52414,66.3210619 1306.36409,71.9654077 C1297.20404,77.6097534 1292.97632,88.1929015 1292.97632,104.420395 L1292.97632,172.152544 L1262.6777,172.152544 L1262.6777,171.447001 L1262.6777,171.447001 Z"
            id="Shape"></path>
          <path
            d="M1568.48245,131.936581 L1598.78108,134.758754 C1593.84874,147.458531 1585.39331,157.336136 1572.00555,164.391569 C1559.3224,171.447001 1542.41154,174.974717 1521.97758,174.974717 C1496.61129,174.974717 1476.17733,169.330371 1461.38032,158.04168 C1446.58332,146.752988 1438.83251,131.231038 1438.83251,110.770284 C1438.83251,89.6039881 1446.58332,73.3764942 1461.38032,62.0878027 C1476.17733,50.7991112 1495.90667,44.4492223 1519.86372,44.4492223 C1543.11616,44.4492223 1562.14088,50.0935681 1576.93788,61.3822596 C1591.73489,72.6709508 1598.78108,88.8984449 1598.78108,109.359198 L1598.78108,115.003544 L1469.13114,115.003544 C1470.54037,128.408865 1475.47271,138.992013 1485.33738,146.047445 C1495.20205,153.102877 1507.18058,156.630593 1521.97758,156.630593 C1532.54687,156.630593 1541.70692,154.513963 1549.45773,150.280704 C1557.91316,146.752988 1564.25473,140.403099 1568.48245,131.936581 L1568.48245,131.936581 Z M1471.94961,98.0705065 L1569.18707,98.0705065 C1567.77783,87.4873583 1564.25473,79.7263831 1557.91316,74.7875805 C1548.75311,67.0266053 1536.06996,62.7933459 1521.27296,62.7933459 C1507.88519,62.7933459 1496.61129,66.3210619 1486.74662,72.6709508 C1477.58657,78.3152966 1472.65423,86.7818152 1471.94961,98.0705065 L1471.94961,98.0705065 Z"
            id="Shape"></path>
          <path
            d="M1700.95087,153.102877 L1705.17859,171.447001 C1696.72315,172.858087 1689.67696,173.56363 1682.63077,173.56363 C1672.06148,173.56363 1663.60605,172.152544 1657.96909,170.035914 C1652.33214,167.919285 1648.10443,164.391569 1645.28595,160.863853 C1643.17209,156.630593 1641.76285,148.869618 1641.76285,136.16984 L1641.76285,64.9099756 L1619.91966,64.9099756 L1619.91966,48.6824817 L1641.76285,48.6824817 L1641.76285,17.6385804 L1671.35686,4.93880249 L1671.35686,47.9769384 L1700.95087,47.9769384 L1700.95087,64.2044324 L1671.35686,64.2044324 L1671.35686,136.875383 C1671.35686,143.225272 1672.06148,146.752988 1672.7661,148.164075 C1673.47072,149.575161 1675.58458,150.986247 1677.69843,152.397334 C1679.81229,153.102877 1683.33539,153.80842 1687.5631,153.80842 C1691.0862,153.80842 1695.31391,153.102877 1700.95087,153.102877 L1700.95087,153.102877 Z"
            id="Shape"></path>
        </g>
        <path
          d="M1089.34136,172.858087 C1089.34136,150.986247 1094.97831,134.758754 1106.95684,124.175605 C1116.82151,115.709087 1128.09542,110.770284 1142.1878,110.770284 C1157.68943,110.770284 1170.37257,116.41463 1180.23724,126.997778 C1190.10191,137.580926 1195.03425,152.397334 1195.03425,170.741457 C1195.03425,185.557865 1192.92039,197.5521 1188.69267,206.72416 C1184.46496,215.190681 1178.12339,222.246112 1169.66796,227.184915 C1161.21252,232.123718 1152.05247,234.240347 1142.89242,234.240347 C1127.3908,234.240347 1114.70765,229.301544 1104.84298,218.718397 C1094.27369,207.429705 1089.34136,192.613297 1089.34136,172.858087 L1089.34136,172.858087 Z M1109.0707,172.858087 C1109.0707,187.674495 1111.88918,198.963186 1118.23075,206.72416 C1124.57232,214.485136 1132.32313,218.012852 1142.1878,218.012852 C1151.34785,218.012852 1159.09867,214.485136 1165.44024,206.72416 C1171.78181,198.963186 1174.60029,187.674495 1174.60029,172.152544 C1174.60029,157.336136 1171.78181,146.752988 1165.44024,138.992013 C1159.09867,131.231038 1151.34785,127.703322 1142.1878,127.703322 C1133.02775,127.703322 1124.57232,131.231038 1118.23075,138.992013 C1111.88918,146.047445 1109.0707,157.336136 1109.0707,172.858087 L1109.0707,172.858087 Z"
          id="Shape_3_" fill="#006838" fill-rule="nonzero"></path>
        <g id="Shape_4_" transform="translate(1216.877443, 110.770289)" fill="#A7A9AC"
          fill-rule="nonzero">
          <path
            d="M-1.07825063e-14,165.802655 L-1.07825063e-14,2.82217284 L17.6154812,2.82217284 L17.6154812,18.3441235 C21.8431968,12.6997778 26.0709122,7.76097534 31.7078661,4.93880249 C36.6402009,2.11662964 42.9817743,0.705543211 50.0279667,0.705543211 C59.8926362,0.705543211 68.3480672,3.52771607 75.3942597,8.46651854 C82.4404523,13.405321 88.0774063,21.1662964 91.6005025,30.3383582 C95.1235987,39.5104199 97.2374565,50.093568 97.2374565,61.3822595 C97.2374565,73.3764942 95.1235987,83.9596423 90.8958833,93.8372472 C86.6681677,103.714852 81.0312137,110.770284 73.280402,115.709087 C65.5295902,120.647889 57.0741592,123.470062 48.6187283,123.470062 C42.2771549,123.470062 36.6402009,122.058976 31.7078661,119.236803 C26.7755316,116.41463 22.547816,112.886914 19.0247198,108.653655 L19.0247198,165.802655 L-1.07825063e-14,165.802655 L-1.07825063e-14,165.802655 Z M16.910862,62.7933459 C16.910862,77.6097534 19.729339,88.8984449 25.366293,96.6594201 C31.0032469,103.714852 38.0494395,107.242568 46.5048705,107.242568 C54.9603014,107.242568 62.006494,103.714852 68.3480672,95.9538769 C74.6896406,88.1929015 77.5081175,76.9042102 77.5081175,61.3822595 C77.5081175,46.565852 74.6896406,35.2771605 69.0526864,27.5161853 C63.4157324,19.75521 56.36954,16.2274939 47.9141091,16.2274939 C40.1632973,16.2274939 32.4124855,20.4607532 26.7755316,28.2217285 C19.729339,35.9827039 16.910862,47.2713952 16.910862,62.7933459 L16.910862,62.7933459 Z"
            id="Shape"></path>
          <path
            d="M196.588771,82.548556 L216.31811,85.3707286 C213.499633,97.3649633 207.15806,106.537025 199.407248,113.592457 C190.951817,119.942346 180.382528,123.470062 167.699382,123.470062 C151.493139,123.470062 138.105373,117.825717 128.945323,107.242568 C119.080653,96.6594201 114.852938,81.8430126 114.852938,62.7933459 C114.852938,43.038136 119.785273,27.5161853 129.649942,16.9330371 C139.514611,5.64434569 152.197758,0.705543211 167.699382,0.705543211 C182.496386,0.705543211 195.179532,6.34988892 204.339583,16.9330371 C213.499633,27.5161853 218.431967,43.038136 218.431967,62.0878027 L218.431967,67.7321484 L135.286896,67.7321484 C135.991515,80.4319262 139.514611,90.3095312 145.856185,97.3649633 C152.197758,104.420396 159.94857,107.948112 169.10862,107.948112 C176.154813,107.948112 181.791766,105.831482 186.724101,102.303766 C189.542578,97.3649633 193.770294,91.0150744 196.588771,82.548556 L196.588771,82.548556 Z M133.877657,50.7991112 L196.588771,50.7991112 C195.884151,40.9215063 193.065674,33.160531 189.542578,28.2217285 C183.201005,20.4607532 175.450193,16.9330371 166.290143,16.9330371 C157.834712,16.9330371 150.0839,19.75521 144.446946,26.105099 C138.105373,31.7494445 134.582277,40.2159631 133.877657,50.7991112 L133.877657,50.7991112 Z"
            id="Shape"></path>
          <path
            d="M239.570545,120.647889 L239.570545,2.82217284 L256.481407,2.82217284 L256.481407,19.75521 C264.936838,7.05543213 276.915365,8.79625517e-15 292.416989,8.79625517e-15 C299.463181,8.79625517e-15 305.100135,1.41108643 310.737089,3.52771607 C316.374044,6.34988892 320.601759,9.17206177 323.420236,13.405321 C326.238713,17.6385803 328.352569,22.5773827 329.05719,28.2217285 C329.76181,31.7494445 329.76181,38.0993334 329.76181,47.9769385 L329.76181,120.647889 L310.737089,120.647889 L310.737089,48.6824817 C310.737089,40.2159631 310.03247,34.5716174 308.623232,30.3383582 C307.213994,26.105099 304.395517,23.2829261 300.87242,20.4607532 C297.349323,18.3441235 292.416989,16.9330371 287.484654,16.9330371 C279.733842,16.9330371 272.68765,19.75521 266.346076,24.6940124 C260.709123,30.3383582 257.890646,40.2159631 257.890646,55.7379138 L257.890646,119.942346 L239.570545,119.942346 L239.570545,120.647889 Z"
            id="Shape"></path>
        </g>
        <path
          d="M1629.07971,196.141013 L1648.10443,193.31884 C1648.80905,201.079816 1652.33214,207.429705 1656.55986,211.662963 C1661.49219,215.896223 1667.83376,218.012852 1676.99382,218.012852 C1685.44925,218.012852 1692.49544,215.896223 1696.72315,212.368507 C1700.95087,208.840791 1703.06473,204.607531 1703.06473,198.963186 C1703.06473,194.729927 1700.95087,191.202211 1697.42777,188.380038 C1694.6093,186.263408 1688.26772,184.146779 1677.69843,181.324606 C1663.60605,177.79689 1654.446,174.269174 1648.80905,171.447001 C1643.17209,168.624828 1639.64899,165.097112 1636.83052,160.158309 C1634.01204,155.219507 1632.6028,150.280704 1632.6028,144.636359 C1632.6028,139.697556 1634.01204,134.758754 1636.1259,129.819951 C1638.23976,125.586692 1641.76285,121.353433 1645.28595,118.53126 C1648.10443,116.41463 1652.33214,114.298 1657.26448,112.886914 C1662.19681,111.475828 1667.83376,110.770284 1673.47072,110.770284 C1681.92615,110.770284 1689.67696,112.181371 1696.72315,115.003544 C1703.06473,117.825717 1707.99706,121.353433 1711.52016,125.586692 C1714.33864,129.819951 1717.15711,136.16984 1717.86173,143.930815 L1699.54163,146.752988 C1698.83701,140.403099 1696.01853,136.16984 1692.49544,132.642124 C1688.26772,129.114408 1682.63077,127.703322 1675.58458,127.703322 C1667.12914,127.703322 1660.78757,129.114408 1657.26448,131.936581 C1653.74138,134.758754 1651.62752,138.28647 1651.62752,142.519729 C1651.62752,145.341902 1652.33214,147.458531 1653.74138,149.575161 C1655.15062,151.691791 1657.96909,153.80842 1660.78757,155.219507 C1662.90143,155.92505 1668.53838,157.336136 1677.69843,160.158309 C1691.0862,163.686025 1700.24625,167.213741 1705.8832,169.330371 C1711.52016,171.447001 1715.04325,174.974717 1718.56635,179.913519 C1721.38483,184.146779 1722.79407,190.496667 1722.79407,196.846556 C1722.79407,203.196444 1720.68021,209.546334 1717.15711,215.896223 C1713.63402,221.540568 1707.99706,226.479371 1700.95087,229.301544 C1693.90468,232.82926 1686.15387,234.240347 1676.99382,234.240347 C1662.19681,234.240347 1651.62752,230.712631 1643.87671,224.362741 C1636.1259,218.012852 1631.19356,208.840791 1629.07971,196.141013 L1629.07971,196.141013 Z"
          id="Shape_5_" fill="#006838" fill-rule="nonzero"></path>
        <g id="Shape_6_" transform="translate(1737.591069, 110.770289)" fill="#A7A9AC"
          fill-rule="nonzero">
          <path
            d="M2.15650127e-14,62.0878027 C2.15650127e-14,40.2159631 5.636954,23.9884692 17.6154813,13.405321 C27.4801508,4.93880249 38.7540588,-2.83750167e-16 52.8464437,-2.83750167e-16 C68.3480672,-2.83750167e-16 81.0312138,5.64434569 90.8958831,16.2274939 C100.760553,26.8106421 105.692887,41.6270496 105.692887,59.971173 C105.692887,74.7875805 103.57903,86.7818152 99.3513143,95.9538769 C95.1235987,104.420396 88.7820256,111.475828 80.3265944,116.41463 C71.8711634,121.353433 62.7111133,123.470062 53.5510629,123.470062 C38.0494396,123.470062 25.366293,118.53126 15.5016235,107.948112 C4.93233476,96.6594201 2.15650127e-14,81.8430126 2.15650127e-14,62.0878027 L2.15650127e-14,62.0878027 Z M19.7293391,62.0878027 C19.7293391,76.9042102 22.547816,88.1929015 28.8893892,95.9538769 C35.2309626,103.714852 42.9817741,107.242568 52.8464437,107.242568 C62.0064941,107.242568 69.7573056,103.714852 76.098879,95.9538769 C82.4404522,88.1929015 85.2589292,76.9042102 85.2589292,61.3822595 C85.2589292,46.565852 82.4404522,35.9827039 76.098879,28.2217285 C69.7573056,20.4607532 62.0064941,16.9330371 52.8464437,16.9330371 C43.6863935,16.9330371 35.2309626,20.4607532 28.8893892,28.2217285 C22.547816,35.2771605 19.7293391,46.565852 19.7293391,62.0878027 L19.7293391,62.0878027 Z"
            id="Shape"></path>
          <path
            d="M200.816486,120.647889 L200.816486,103.009309 C192.361055,116.41463 180.382528,122.764519 165.585524,122.764519 C159.24395,122.764519 152.902377,121.353433 147.265423,118.53126 C141.628469,115.709087 137.400754,112.181371 134.582277,108.653655 C131.7638,104.420396 129.649942,99.481593 128.945323,93.8372472 C128.240703,89.603988 127.536084,83.9596423 127.536084,75.4931237 L127.536084,2.82217284 L146.560804,2.82217284 L146.560804,68.4376916 C146.560804,79.0208397 147.265423,86.076272 147.970042,89.603988 C149.379281,94.5427904 151.493139,98.7760498 155.720854,102.303766 C159.24395,105.125939 164.176285,106.537025 169.813239,106.537025 C175.450193,106.537025 181.087147,105.125939 186.019482,101.598223 C190.951817,98.0705066 194.474913,94.5427904 196.588771,88.8984449 C198.702628,83.9596423 199.407248,76.198667 199.407248,65.6155187 L199.407248,2.82217284 L218.431968,2.82217284 L218.431968,120.647889 L200.816486,120.647889 L200.816486,120.647889 Z"
            id="Shape"></path>
          <path
            d="M246.616738,120.647889 L246.616738,2.82217284 L263.5276,2.82217284 L263.5276,20.4607532 C267.755316,11.9942346 271.983031,6.34988892 275.506126,4.23325928 C279.029223,1.41108643 283.256938,-2.83750167e-16 287.484653,-2.83750167e-16 C293.826227,-2.83750167e-16 300.167801,2.11662964 307.213993,6.34988892 L300.872419,24.6940124 C295.940085,21.8718395 291.71237,20.4607532 286.780035,20.4607532 C282.55232,20.4607532 279.029223,21.8718395 275.506126,24.6940124 C271.983031,27.5161853 269.869172,31.0439013 268.459934,35.2771605 C266.346077,42.3325928 265.641457,50.093568 265.641457,58.5600867 L265.641457,119.942346 L246.616738,119.942346 L246.616738,120.647889 Z"
            id="Shape"></path>
          <path
            d="M391.768302,77.6097534 L410.088403,80.4319262 C407.974545,93.8372472 403.042211,104.420396 394.586779,112.181371 C386.131349,119.942346 375.56206,123.470062 363.583532,123.470062 C348.08191,123.470062 336.103383,118.53126 326.943332,107.948112 C317.783282,97.3649633 312.850946,82.548556 312.850946,62.7933459 C312.850946,50.093568 314.964805,38.8048768 319.19252,29.632815 C323.420235,19.75521 329.057189,12.6997778 337.512621,8.46651854 C345.968051,3.52771607 354.423482,1.41108643 364.288153,1.41108643 C376.26668,1.41108643 386.131349,4.93880249 393.882161,11.2886914 C401.632973,17.6385803 406.565306,26.8106421 408.679165,38.8048768 L390.359064,41.6270496 C388.949825,33.8660742 385.42673,27.5161853 381.199013,23.9884692 C376.971298,19.75521 371.334345,18.3441235 364.992771,18.3441235 C355.128102,18.3441235 347.37729,21.8718395 341.740336,28.9272716 C336.103383,35.9827039 332.580286,47.2713952 332.580286,62.7933459 C332.580286,78.3152965 335.398762,90.3095312 341.035716,97.3649633 C346.672672,104.420396 354.423482,107.948112 363.583532,107.948112 C371.334345,107.948112 376.971298,105.831482 381.903633,100.892679 C387.540587,95.2483338 391.063684,87.4873583 391.768302,77.6097534 L391.768302,77.6097534 Z"
            id="Shape"></path>
          <path
            d="M503.802764,82.548556 L523.532103,85.3707286 C520.713626,97.3649633 514.372052,106.537025 506.62124,113.592457 C498.16581,119.942346 487.596521,123.470062 474.913373,123.470062 C458.707131,123.470062 445.319365,117.825717 436.159315,107.242568 C426.294646,96.6594201 422.066931,81.8430126 422.066931,62.7933459 C422.066931,43.038136 426.999266,27.5161853 436.863935,16.9330371 C446.728604,5.64434569 459.411751,0.705543211 474.913373,0.705543211 C489.71038,0.705543211 502.393525,6.34988892 511.553576,16.9330371 C520.713626,27.5161853 525.64596,43.038136 525.64596,62.0878027 L525.64596,67.7321484 L440.387032,67.7321484 C441.09165,80.4319262 444.614747,90.3095312 450.956321,97.3649633 C457.297893,104.420396 465.048705,107.948112 474.208755,107.948112 C481.254947,107.948112 486.891901,105.831482 491.824236,102.303766 C496.756572,97.3649633 500.984287,91.0150744 503.802764,82.548556 L503.802764,82.548556 Z M441.09165,50.7991112 L503.802764,50.7991112 C503.098145,40.9215063 500.279667,33.160531 496.756572,28.2217285 C490.414998,20.4607532 482.664186,16.9330371 473.504135,16.9330371 C465.048705,16.9330371 457.297893,19.75521 451.660939,26.105099 C445.319365,31.7494445 441.79627,40.2159631 441.09165,50.7991112 L441.09165,50.7991112 Z"
            id="Shape"></path>
        </g>
        <g id="Shape_7_" transform="translate(2338.631295, 68.437687)" fill="#006838"
          fill-rule="nonzero">
          <path
            d="M78.917356,119.942346 L97.2374566,122.764519 C95.1235988,136.16984 90.191264,146.752988 81.735833,154.513964 C73.2804021,162.274939 62.7111133,165.802655 50.732586,165.802655 C35.2309624,165.802655 23.2524353,160.863853 14.092385,150.280704 C4.93233476,139.697556 -2.27000133e-15,124.881149 -2.27000133e-15,105.125939 C-2.27000133e-15,92.4261609 2.11385775,81.1374694 6.34157325,71.9654076 C10.5692888,62.0878027 16.2062427,55.0323706 24.6616737,50.7991112 C33.1171048,45.8603088 41.5725358,43.7436791 51.4372052,43.7436791 C63.4157325,43.7436791 73.2804021,47.2713952 81.0312138,53.6212841 C88.7820254,59.971173 93.7143602,69.1432348 95.828218,81.1374694 L77.5081174,83.9596423 C76.098879,76.198667 72.5757827,69.8487781 68.3480673,66.3210619 C64.1203517,62.0878027 58.4833977,60.6767164 52.1418246,60.6767164 C42.277155,60.6767164 34.5263432,64.2044324 28.8893893,71.2598645 C23.2524353,78.3152965 19.7293391,89.603988 19.7293391,105.125939 C19.7293391,120.647889 22.5478161,132.642124 28.1847701,139.697556 C33.821724,146.752988 41.5725358,150.280704 50.732586,150.280704 C58.4833977,150.280704 64.1203517,148.164075 69.0526865,143.225272 C74.6896405,137.580926 77.5081174,129.819951 78.917356,119.942346 L78.917356,119.942346 Z"
            id="Shape"></path>
          <path
            d="M114.148318,162.980482 L114.148318,0.705543211 L133.173038,0.705543211 L133.173038,59.2656298 C142.333089,48.6824817 152.902377,43.038136 166.994762,43.038136 C175.450193,43.038136 182.496386,44.4492223 188.837959,47.9769385 C195.179532,51.5046546 199.407247,56.443457 202.225724,62.0878027 C205.044201,68.4376916 206.453439,76.9042102 206.453439,88.1929015 L206.453439,162.980482 L187.42872,162.980482 L187.42872,88.1929015 C187.42872,78.3152965 185.314863,71.2598645 181.087147,66.3210619 C176.859432,62.0878027 171.222478,59.2656298 163.471666,59.2656298 C157.834712,59.2656298 152.902377,60.6767164 147.265423,64.2044324 C142.333089,67.0266053 138.809992,71.2598645 136.696134,76.9042102 C134.582277,81.8430126 133.877657,89.603988 133.877657,98.7760498 L133.877657,162.980482 L114.148318,162.980482 L114.148318,162.980482 Z"
            id="Shape"></path>
          <path
            d="M233.933591,23.2829261 L233.933591,8.79625517e-15 L252.95831,8.79625517e-15 L252.95831,23.2829261 L233.933591,23.2829261 L233.933591,23.2829261 Z M233.933591,162.980482 L233.933591,45.1547657 L252.95831,45.1547657 L252.95831,162.980482 L233.933591,162.980482 L233.933591,162.980482 Z"
            id="Shape"></path>
          <path
            d="M281.8477,162.980482 L281.8477,45.1547657 L298.758561,45.1547657 L298.758561,62.0878027 C307.213993,49.3880249 319.192521,42.3325928 334.694143,42.3325928 C341.740337,42.3325928 347.377291,43.7436791 353.014244,45.8603088 C358.651198,48.6824817 362.878913,51.5046546 365.69739,55.7379138 C368.515869,59.971173 370.629725,64.9099756 371.334345,70.5543213 C372.038964,74.0820373 372.038964,80.4319262 372.038964,90.3095312 L372.038964,162.980482 L353.718862,162.980482 L353.718862,91.0150744 C353.718862,82.548556 353.014244,76.9042102 351.605006,72.6709508 C350.195767,68.4376916 347.377291,65.6155187 343.854194,62.7933459 C340.331097,60.6767164 335.398763,59.2656298 330.466428,59.2656298 C322.715616,59.2656298 315.669424,62.0878027 309.32785,67.0266053 C303.690896,72.6709508 300.87242,82.548556 300.87242,98.0705066 L300.87242,162.274939 L281.8477,162.274939 L281.8477,162.980482 Z"
            id="Shape"></path>
          <path
            d="M474.913374,148.869618 C467.867182,155.219507 460.82099,159.452766 454.479417,162.274939 C448.137843,165.097112 441.091651,165.802655 433.340839,165.802655 C421.362311,165.802655 411.497643,162.980482 405.156069,156.630593 C398.814495,150.280704 395.2914,142.519729 395.2914,132.642124 C395.2914,126.997778 396.700638,121.353433 398.814495,117.120173 C401.632972,112.181371 404.451449,108.653655 408.679166,105.831482 C412.906881,103.009309 417.134596,100.892679 422.066932,99.481593 C425.590027,98.7760498 431.22698,97.3649633 438.977792,96.6594201 C454.479417,94.5427904 465.753324,92.4261609 472.799516,89.603988 L472.799516,84.6651855 C472.799516,76.198667 470.685659,70.5543213 467.162562,67.7321484 C462.230229,63.4988892 455.184035,60.6767164 445.319366,60.6767164 C436.159315,60.6767164 429.817742,62.0878027 425.590027,65.6155187 C421.362311,69.1432348 418.543835,74.7875805 416.429976,83.2540991 L398.109877,80.4319262 C399.519115,71.9654076 402.337592,65.6155187 406.565307,59.971173 C410.088404,55.0323706 415.725358,50.7991112 423.47617,47.9769385 C430.522362,45.1547657 438.977792,43.7436791 448.842463,43.7436791 C458.707132,43.7436791 466.457944,45.1547657 472.094898,47.2713952 C477.731851,49.3880249 482.664186,52.9157409 485.482663,56.443457 C488.30114,59.971173 490.414999,64.2044324 491.119617,69.8487781 C491.824237,73.3764942 491.824237,79.7263831 491.824237,88.1929015 L491.824237,115.003544 C491.824237,133.347667 492.528855,145.341902 493.233475,150.280704 C493.938094,155.219507 495.347332,160.158309 498.165809,164.391569 L478.436471,164.391569 C477.027233,158.747223 475.617995,153.80842 474.913374,148.869618 L474.913374,148.869618 Z M473.504136,103.714852 C466.457944,106.537025 456.593273,109.359198 442.500889,111.475828 C434.750077,112.886914 429.113124,114.298 426.294647,115.709087 C422.77155,117.120173 420.657691,119.236803 418.543835,122.058976 C417.134596,124.881149 415.725358,128.408865 415.725358,131.231038 C415.725358,136.875383 417.839214,141.108642 421.362311,144.636358 C424.885408,148.164075 430.522362,150.280704 438.273174,150.280704 C445.319366,150.280704 452.365558,148.869618 458.002512,145.341902 C463.639467,141.814186 467.867182,137.580926 470.685659,131.231038 C472.799516,126.997778 473.504136,119.942346 473.504136,111.475828 L473.504136,103.714852 L473.504136,103.714852 Z"
            id="Shape"></path>
        </g>
      </g>
      <g id="Group_1_" transform="translate(1068.907402, 282.217287)" fill-rule="nonzero">
        <path
          d="M40.8679165,77.6097534 C31.7078661,77.6097534 25.366293,75.4931237 21.1385776,71.9654077 C17.6154812,68.4376917 15.5016235,61.3822596 15.5016235,52.2101978 C15.5016235,43.7436792 17.6154812,38.0993335 21.1385776,34.5716174 C24.6616738,31.0439014 31.7078661,28.9272717 40.8679165,28.9272717 L369.925107,28.9272717 C379.789776,28.9272717 386.13135,31.0439014 389.654445,34.5716174 C393.177542,38.0993335 394.58678,44.4492224 394.58678,52.2101978 C394.58678,61.3822596 393.177542,67.7321485 389.654445,71.9654077 C386.13135,75.4931237 379.789776,77.6097534 369.925107,77.6097534 L320.601759,77.6097534 L320.601759,194.729927 L393.88216,194.729927 C403.746831,194.729927 410.088404,196.141013 413.611499,199.668729 C417.134596,203.196444 418.543835,208.135247 418.543835,215.896223 C418.543835,224.362741 417.134596,230.712631 413.611499,234.945889 C410.088404,239.179149 403.746831,241.295778 393.88216,241.295778 L320.601759,241.295778 L320.601759,393.693112 C320.601759,403.570717 317.783283,409.920606 312.850947,413.448322 C307.213994,416.976038 301.577038,418.387125 293.826228,418.387125 C286.075416,418.387125 279.733842,416.270495 274.801506,412.74278 C269.164553,409.215064 267.050696,402.159632 267.050696,392.987569 L267.050696,240.590236 L148.674662,240.590236 C147.265423,261.756531 144.446946,280.806199 139.514611,297.739236 C135.286896,314.672273 128.945323,329.48868 121.194511,342.894001 C113.443699,356.299322 104.283649,368.999101 93.0097409,379.582248 C81.7358329,390.87094 69.0526864,402.159632 54.9603014,412.74278 C46.5048705,419.092669 38.7540587,421.91484 31.0032469,421.209298 C23.2524352,420.503756 17.6154812,416.976038 13.3877657,409.215064 C8.455431,401.454088 6.34157325,395.104198 8.455431,388.754311 C10.5692888,382.404422 15.5016235,376.054532 22.547816,370.410188 C33.8217239,361.943667 44.3910127,353.477149 52.8464436,345.716175 C61.3018748,337.955199 68.3480672,328.783138 74.6896406,318.905533 C80.3265945,309.027928 85.2589293,297.739236 88.7820255,285.039457 C92.3051217,272.33968 94.4189795,257.523273 95.8282181,240.590236 L24.6616738,240.590236 C14.7970042,240.590236 8.455431,238.473607 4.93233474,234.240347 C1.40923849,230.007086 2.5537515e-14,223.657199 2.5537515e-14,215.190681 C2.5537515e-14,207.429705 1.40923849,202.490902 4.93233474,198.963186 C8.455431,195.43547 14.7970042,194.024383 24.6616738,194.024383 L97.2374565,194.024383 L97.2374565,76.9042101 L40.8679165,76.9042101 L40.8679165,77.6097534 L40.8679165,77.6097534 Z M148.674662,194.729927 L265.641458,194.729927 L265.641458,77.6097534 L148.674662,77.6097534 L148.674662,194.729927 L148.674662,194.729927 Z"
          id="Shape_8_" fill="#3CAB52"></path>
        <path
          d="M524.236722,197.5521 C518.599769,203.196444 512.258195,205.313076 505.916621,204.607531 C499.575047,203.901989 492.528855,199.668729 484.073425,191.907754 C480.550328,189.791124 474.913374,185.557865 468.571801,179.913519 C462.230229,174.269174 455.184035,169.330371 448.137843,163.686025 C441.796269,157.336136 437.568554,151.691791 436.159316,146.047445 C434.750077,140.403099 436.863936,134.05321 442.500889,125.586692 C452.365558,112.886914 465.048706,112.886914 481.254948,124.175605 C486.891902,129.114408 493.938094,134.05321 500.984286,139.697556 C508.735098,145.341902 515.076672,150.280704 520.009007,155.219507 C526.350579,161.569396 530.578296,167.919285 532.692153,174.974717 C535.510629,182.735692 532.692153,189.791124 524.236722,197.5521 L524.236722,197.5521 L524.236722,197.5521 Z M534.806011,275.161852 C529.169058,297.739236 522.827484,319.611075 516.48591,339.366285 C510.144336,359.827038 501.688906,379.582248 491.824237,399.337459 C487.59652,407.803977 481.959566,413.448322 474.208754,415.564953 C466.457944,417.681582 459.41175,416.976038 453.070178,413.448322 C446.023984,409.215064 441.796269,404.276261 440.387031,397.926372 C438.977792,391.576483 441.091651,382.404422 447.433223,371.821272 C455.888655,356.299322 462.934847,339.366285 468.571801,321.022162 C474.208754,302.678038 479.84571,282.922828 485.482663,261.756531 C487.59652,251.878928 491.119617,244.823494 496.051952,241.295778 C500.984286,237.768062 507.325859,236.356976 516.48591,238.473607 C524.94134,239.884692 531.282914,243.412407 534.101391,249.056754 C537.624488,253.995557 538.329106,263.167618 534.806011,275.161852 L534.806011,275.161852 Z M542.556823,95.2483336 C536.919868,100.892679 530.578296,103.009309 524.94134,102.303766 C518.599769,101.598223 511.553575,97.3649633 503.098144,90.3095313 C497.461191,85.3707287 491.119617,79.7263829 484.073425,74.0820374 C477.027233,68.4376917 471.390277,63.4988891 467.162562,59.9711731 C460.11637,54.3268273 455.888655,48.6824816 455.184035,43.038136 C454.479417,37.3937903 455.888655,31.0439014 461.525609,23.2829259 C466.457944,16.9330371 472.094898,13.405321 479.14109,12.6997778 C486.187282,11.9942346 493.233476,14.8164075 500.279667,20.4607531 C505.916621,24.6940125 510.144336,28.2217285 514.372051,31.0439014 C518.599769,34.5716174 521.418245,37.3937903 524.236722,39.51042 C527.055199,42.3325927 529.873676,44.4492224 531.987534,46.5658521 C534.101391,48.6824816 536.919868,50.7991113 539.738344,53.6212841 C546.079918,59.9711731 550.307633,66.321062 552.421492,73.376494 C554.535349,79.7263829 551.716872,86.7818152 543.966062,94.5427905 L542.556823,95.2483336 L542.556823,95.2483336 Z M670.092907,94.5427905 C655.295903,94.5427905 645.431232,98.0705065 639.794278,104.420395 C634.157325,111.475828 631.338848,122.058976 631.338848,136.875383 L631.338848,232.82926 C631.338848,261.050989 644.021994,275.161852 670.092907,275.161852 L709.551584,275.161852 L709.551584,357.710409 C709.551584,361.943667 708.846966,364.765841 706.733107,366.176927 C704.619251,367.588014 698.982295,366.88247 689.822246,364.060298 C679.957576,361.238125 672.911384,360.532582 668.683669,362.649212 C664.455953,364.765841 661.637475,369.704643 659.523618,376.760075 C657.409759,385.226593 657.409759,392.282027 660.932856,397.22083 C663.751333,402.865174 670.797525,406.39289 681.366814,407.803977 C695.4592,410.626151 707.437727,412.037235 715.893158,412.037235 C724.348588,412.037235 732.0994,410.626151 737.736354,406.39289 C743.373309,402.865174 746.896404,396.515285 749.010263,388.754311 C751.12412,380.993335 752.533358,370.410188 752.533358,357.004865 L752.533358,274.45631 L791.992037,274.45631 C806.789041,274.45631 817.35833,271.634136 822.995284,265.284249 C829.336857,258.934359 832.155334,248.35121 832.155334,232.123718 L832.155334,136.16984 C832.155334,121.353433 829.336857,110.064741 823.699904,103.714852 C818.062948,96.6594202 808.19828,93.8372473 794.105894,93.8372473 L747.601025,93.8372473 C749.010263,91.7206176 749.714881,90.3095313 749.714881,89.6039881 C750.419501,88.8984447 750.419501,88.1929016 751.12412,88.1929016 C756.056455,77.6097534 756.056455,69.1432348 751.82874,63.4988891 L827.927619,63.4988891 C837.08767,63.4988891 842.724623,62.0878028 846.247718,58.5600867 C849.066197,55.0323705 851.180054,49.3880249 851.180054,41.6270495 C851.180054,33.8660743 849.770815,28.2217285 846.952338,23.9884693 C844.133862,19.7552099 837.792288,18.3441236 828.632237,18.3441236 L603.154078,18.3441236 C588.357074,18.3441236 577.787785,21.8718396 571.446211,28.9272717 C565.104638,35.9827038 561.581543,47.9769384 561.581543,64.2044323 L561.581543,175.68026 C561.581543,201.78536 561.581543,224.362741 560.876922,242.706865 C560.172304,261.756531 559.467684,277.984025 558.058446,292.800433 C556.649207,306.911296 554.535349,319.611075 551.716872,330.899767 C548.898395,342.188459 545.3753,352.066064 541.147583,361.943667 C539.033726,366.88247 536.919868,371.821272 535.510629,375.348988 C534.101391,379.582248 533.396773,383.109964 533.396773,385.932138 C533.396773,389.459853 534.101391,392.282027 536.21525,395.104198 C537.624488,397.926372 540.442965,400.748545 543.966062,402.865174 C550.307633,407.098433 556.649207,408.509519 562.286161,407.098433 C567.923114,406.39289 573.56007,400.748545 578.492403,390.165396 C584.129359,377.465619 589.061692,364.060298 592.584789,349.949433 C596.107886,335.83857 599.630981,319.611075 601.74484,302.678038 C603.858696,285.039457 605.267935,266.695334 605.972555,245.529039 C606.677173,225.068284 607.381793,201.78536 607.381793,177.091346 L607.381793,74.7875806 C607.381793,69.848778 608.086412,67.0266051 609.495652,65.6155188 C610.90489,64.2044323 612.314129,63.4988891 614.427985,63.4988891 L714.483919,63.4988891 C713.779299,64.9099756 713.074681,65.6155188 713.074681,67.0266051 C712.370061,67.7321485 711.665443,69.1432348 711.665443,70.5543212 C707.437727,79.0208398 703.210012,86.7818152 698.277677,93.8372473 L670.092907,94.5427905 L670.092907,94.5427905 Z M676.434481,318.199988 C679.957576,309.027928 681.366814,301.972496 680.662196,296.328149 C679.957576,290.683804 675.729861,287.156088 667.979048,283.628372 C660.932856,280.806199 655.295903,280.100654 651.068188,282.922828 C646.84047,285.745001 642.612755,290.683804 639.794278,298.444778 C636.975802,306.205754 634.157325,313.261186 632.043466,318.905533 C629.92961,324.549878 627.111133,330.194223 624.292656,335.133025 C621.474177,340.071828 618.655701,345.01063 615.132606,350.654977 C611.609509,356.299322 608.086412,361.943667 603.858696,368.999101 C598.926363,376.760075 596.107886,383.815509 596.812504,389.459853 C597.517125,395.104198 599.630981,400.043001 604.563317,404.276261 C610.90489,409.215064 616.541844,410.626151 622.178798,408.509519 C627.815751,406.39289 632.748087,402.159632 636.975802,395.809743 C644.726614,383.109964 652.477426,369.704643 659.523618,357.004865 C665.865192,344.305088 671.502145,331.605309 676.434481,318.199988 L676.434481,318.199988 Z M786.355083,164.391568 L676.434481,164.391568 L676.434481,143.930815 C676.434481,140.403099 677.139099,138.992013 677.843719,138.28647 C678.548337,137.580926 680.662196,136.875383 682.071434,136.875383 L779.308889,136.875383 C783.536607,136.875383 785.650463,138.992013 785.650463,143.930815 L786.355083,164.391568 L786.355083,164.391568 Z M786.355083,225.773828 C786.355083,231.418173 784.241225,234.240347 780.01351,234.240347 L682.776052,234.240347 C678.548337,234.240347 676.434481,231.418173 676.434481,225.773828 L676.434481,204.607531 L786.355083,204.607531 L786.355083,225.773828 L786.355083,225.773828 Z M841.315385,361.943667 C837.792288,354.888235 834.269191,348.538346 831.450714,343.599544 C828.632237,338.660743 825.109142,333.016396 822.290665,328.077593 C819.472187,323.138791 815.949092,318.199988 812.425995,312.555643 C808.9029,307.616841 804.675183,301.266952 800.447467,294.917062 C795.515134,287.861631 789.878178,284.333915 783.536607,283.628372 C777.899651,282.922828 772.262697,285.039457 768.034982,289.97826 C765.216506,292.800433 763.102647,295.622607 762.398029,299.150322 C761.693409,301.972496 760.98879,305.500212 761.693409,308.322383 C761.693409,311.144557 763.102647,313.96673 763.807267,316.788902 C765.216506,319.611075 766.625744,321.727704 768.034982,324.549878 C771.558079,329.48868 775.081174,334.427483 777.899651,338.660743 C780.718128,342.894001 783.536607,347.832804 787.059702,352.771606 C789.878178,357.710409 792.696655,362.649212 796.219752,368.293556 C799.742849,373.937903 802.561326,379.582248 806.084421,386.63768 C810.312138,395.104198 814.539853,400.043001 818.767568,402.159632 C822.995284,404.276261 828.632237,403.570717 834.973811,400.748545 C842.724623,397.22083 846.247718,392.282027 846.952338,385.932138 C848.361577,378.171162 846.247718,370.410188 841.315385,361.943667 L841.315385,361.943667 Z"
          id="Shape_9_" fill="#3CAB52"></path>
        <path
          d="M1047.0642,25.3995556 C1047.0642,15.5219507 1049.17806,9.17206176 1053.40578,5.6443457 C1057.63349,2.11662964 1063.97507,0.705543207 1073.83974,0.705543207 C1082.99979,0.705543207 1089.34136,2.11662964 1093.56908,5.6443457 C1097.79679,9.17206176 1099.91065,15.5219507 1099.91065,25.3995556 L1099.91065,79.7263829 L1206.30815,79.7263829 C1216.87744,79.7263829 1225.33288,80.4319263 1232.37907,81.1374695 C1239.42526,81.8430126 1243.65298,84.6651855 1247.17607,88.1929016 C1250.69917,91.7206176 1253.51765,96.6594202 1254.22226,103.009309 C1255.6315,109.359198 1256.33612,117.825717 1256.33612,128.408865 L1256.33612,259.639902 C1256.33612,268.811965 1255.6315,277.278483 1254.92688,282.922828 C1253.51765,289.272717 1251.40379,294.21152 1247.88069,297.739236 C1244.3576,301.266952 1239.42526,303.383581 1233.08369,304.794667 C1226.74211,306.205754 1218.28668,306.911296 1207.01277,306.911296 L1099.91065,306.911296 L1099.91065,395.809743 C1099.91065,403.570717 1097.79679,409.215064 1094.2737,413.448322 C1090.7506,417.681582 1083.70441,420.503756 1073.83974,420.503756 C1062.56583,420.503756 1055.51964,418.387125 1051.99654,414.859409 C1048.47344,411.331693 1047.0642,404.276261 1047.0642,395.104198 L1047.0642,306.205754 L942.780557,306.205754 C932.211268,306.205754 923.755836,305.500212 917.414264,304.089125 C911.07269,302.678038 906.140355,299.855865 902.61726,296.328149 C899.094163,292.800433 896.980304,287.861631 895.571066,281.511741 C894.161828,275.161852 894.161828,267.400878 894.161828,258.228815 L894.161828,126.292235 C894.161828,116.41463 894.866448,108.653655 895.571066,102.303766 C896.980304,95.953877 899.094163,91.0150744 902.61726,87.4873584 C906.140355,83.9596424 911.07269,81.8430126 917.414264,80.4319263 C923.755836,79.0208398 932.211268,78.3152966 942.780557,78.3152966 L1047.0642,78.3152966 L1047.0642,25.3995556 L1047.0642,25.3995556 Z M956.168323,131.231038 C951.940606,131.231038 949.122129,131.936581 947.712891,133.347667 C946.303652,134.758754 946.303652,138.28647 946.303652,143.930815 L946.303652,239.884692 C946.303652,246.940125 947.008272,251.173383 948.417511,252.58447 C949.826749,253.995557 952.645226,254.701099 957.577561,254.701099 L1047.76882,254.701099 L1047.76882,131.231038 L956.168323,131.231038 L956.168323,131.231038 Z M1099.91065,131.231038 L1099.91065,255.406644 L1192.21577,255.406644 C1197.85272,255.406644 1201.37582,254.701099 1202.78506,252.58447 C1204.1943,251.173383 1204.1943,246.940125 1204.1943,239.884692 L1204.1943,143.930815 C1204.1943,138.28647 1203.48968,134.758754 1201.37582,133.347667 C1199.26196,131.936581 1195.03425,131.231038 1188.69267,131.231038 L1099.91065,131.231038 L1099.91065,131.231038 Z"
          id="Shape_10_" fill="#3CAB52"></path>
        <path
          d="M1698.13239,357.710409 C1698.13239,373.937903 1694.6093,385.932138 1688.26772,393.693112 C1681.92615,401.454088 1669.94762,404.981804 1652.33214,404.981804 L1359.21053,404.981804 C1341.59505,404.981804 1330.32114,401.454088 1323.97957,393.693112 C1317.638,385.932138 1314.81952,373.937903 1314.81952,357.710409 L1314.81952,64.2044323 C1314.81952,47.9769384 1317.638,35.9827038 1323.27495,28.9272717 C1328.91191,21.8718396 1340.89043,18.3441236 1357.8013,18.3441236 L1652.33214,18.3441236 C1669.94762,18.3441236 1681.92615,21.8718396 1688.26772,28.9272717 C1694.6093,35.9827038 1698.13239,47.9769384 1698.13239,64.2044323 L1698.13239,357.710409 L1698.13239,357.710409 Z M1372.5983,64.9099756 C1369.0752,64.9099756 1366.25673,65.6155188 1364.14287,67.7321485 C1362.73363,69.1432348 1361.32439,72.6709509 1361.32439,77.6097534 L1361.32439,340.777372 C1361.32439,352.771606 1366.25673,358.415951 1376.12139,358.415951 L1638.94438,358.415951 C1642.46747,358.415951 1645.28595,357.004865 1647.39981,353.477149 C1649.51366,349.949433 1650.21828,345.716175 1650.21828,340.777372 L1650.21828,77.6097534 C1650.21828,73.376494 1648.80904,70.5543212 1646.69519,68.4376917 C1644.58133,66.321062 1640.35361,65.6155188 1634.01204,65.6155188 L1372.5983,65.6155188 L1372.5983,64.9099756 L1372.5983,64.9099756 Z M1407.12464,139.697556 C1397.25997,139.697556 1390.21378,138.28647 1386.69068,134.758754 C1383.16759,131.231038 1381.75835,125.586692 1381.75835,117.120173 C1381.75835,107.948111 1383.16759,101.598223 1386.69068,98.7760497 C1390.21378,95.953877 1397.25997,94.5427905 1407.12464,94.5427905 L1605.12265,94.5427905 C1615.69194,94.5427905 1622.73813,95.953877 1625.55661,98.7760497 C1628.37509,101.598223 1630.48894,107.948111 1630.48894,117.120173 C1630.48894,125.586692 1629.0797,131.936581 1625.55661,134.758754 C1622.03351,137.580926 1614.98732,138.992013 1605.12265,138.992013 L1522.6822,138.992013 L1522.6822,179.207976 L1590.32565,179.207976 C1600.19032,179.207976 1607.23651,180.619062 1610.75961,183.441235 C1614.2827,186.263408 1616.39656,191.907754 1616.39656,200.374272 C1616.39656,208.840791 1614.2827,214.485136 1610.75961,217.30731 C1607.23651,220.129483 1600.19032,221.540568 1590.32565,221.540568 L1581.1656,221.540568 C1586.80255,227.890457 1591.73488,233.534804 1595.9626,238.473607 C1600.19032,243.412407 1604.41803,249.762297 1610.05499,256.817728 C1614.2827,261.756531 1615.69194,267.400878 1615.69194,272.33968 C1615.69194,277.278483 1613.57808,281.511741 1609.35037,285.745001 L1612.16884,285.745001 C1622.03351,285.745001 1629.0797,287.861631 1632.6028,291.389346 C1636.1259,294.917062 1637.53514,301.266952 1637.53514,309.027928 C1637.53514,317.494446 1636.1259,323.138791 1632.6028,325.960964 C1629.0797,328.783138 1622.03351,330.194223 1612.16884,330.194223 L1401.48769,330.194223 C1391.62302,330.194223 1384.57683,328.783138 1381.05373,325.960964 C1377.53063,323.138791 1376.12139,317.494446 1376.12139,309.027928 C1376.12139,300.561409 1377.53063,294.917062 1381.05373,291.389346 C1384.57683,287.861631 1391.62302,285.745001 1401.48769,285.745001 L1474.76809,285.745001 L1474.76809,221.540568 L1419.10317,221.540568 C1408.53388,221.540568 1401.48769,220.129483 1398.66921,217.30731 C1395.85073,214.485136 1393.73688,208.840791 1393.73688,200.374272 C1393.73688,191.907754 1395.14612,186.263408 1398.66921,183.441235 C1402.19231,180.619062 1409.2385,179.207976 1419.10317,179.207976 L1474.76809,179.207976 L1474.76809,138.992013 L1407.12464,138.992013 L1407.12464,139.697556 Z M1549.45773,255.406644 C1543.82078,249.056754 1541.0023,242.706865 1541.0023,237.768062 C1541.0023,232.82926 1543.11616,227.890457 1547.34387,223.657199 L1522.6822,223.657199 L1522.6822,287.861631 L1576.93788,287.861631 L1574.1194,285.039457 C1572.71017,283.628372 1572.71017,282.922828 1571.30093,282.217286 C1568.48245,278.68957 1566.36859,276.572939 1564.95935,274.45631 C1563.55011,272.33968 1562.14088,270.928594 1560.73164,268.811965 C1559.3224,267.400878 1557.91316,265.284249 1556.50392,263.167618 C1555.09468,261.050989 1552.27621,258.228815 1549.45773,255.406644 L1549.45773,255.406644 Z"
          id="Shape_11_" fill="#3CAB52"></path>
        <path
          d="M1852.44401,397.22083 C1852.44401,405.687348 1851.03477,411.331693 1847.51167,414.859409 C1843.98858,418.387125 1836.94239,420.503756 1827.07771,420.503756 C1819.3269,420.503756 1812.98533,419.092669 1808.75762,415.564953 C1803.82528,412.037235 1801.71142,406.39289 1801.71142,397.22083 L1801.71142,253.290013 C1797.48371,256.817728 1793.96061,261.050989 1789.73289,264.578704 C1785.50518,268.10642 1781.98208,271.634136 1777.75437,275.161852 C1769.29894,282.922828 1760.84351,286.450544 1753.09269,287.156088 C1745.34188,287.861631 1739.00031,284.333915 1733.36335,276.572939 C1728.43102,270.223051 1727.02178,264.578704 1728.43102,258.934359 C1729.84026,253.290013 1735.47721,246.940125 1744.63726,239.884692 C1764.3666,224.362741 1781.98208,208.135247 1796.77909,191.907754 C1811.57609,174.974717 1823.55462,158.04168 1834.12391,140.403099 C1837.647,133.347667 1835.53315,129.819951 1827.78233,129.819951 L1763.66198,129.819951 C1753.79731,129.819951 1746.75112,127.703322 1743.22802,124.175605 C1739.70493,119.942346 1737.59107,114.298 1737.59107,105.831482 C1737.59107,98.0705065 1739.70493,91.7206176 1743.93264,88.1929016 C1748.16036,83.9596424 1754.50193,81.8430126 1763.66198,81.8430126 L1811.57609,81.8430126 C1810.16685,80.4319263 1808.05299,78.3152966 1805.23452,74.7875806 C1800.30218,67.0266051 1795.36985,60.6767162 1790.43751,54.3268273 C1785.50518,47.9769384 1780.57284,41.6270495 1775.64051,35.2771606 C1771.41279,30.3383582 1770.00356,25.3995556 1770.70817,20.4607531 C1772.11741,15.5219507 1774.93589,11.2886914 1779.86823,7.76097534 C1785.50518,3.52771606 1791.84675,2.11662964 1799.59756,2.82217285 C1806.64376,3.52771606 1812.98533,6.34988891 1817.21305,11.9942346 C1819.3269,14.8164075 1821.44076,17.6385804 1823.55462,20.4607531 C1825.66848,23.2829259 1827.78233,26.1050988 1829.89619,28.9272717 C1832.01005,31.7494446 1834.82853,35.2771606 1837.647,39.51042 C1840.46548,43.7436792 1843.98858,47.9769384 1848.21629,53.6212841 C1851.73939,58.5600867 1853.85325,63.4988891 1853.14863,69.1432348 C1852.44401,74.7875806 1850.33015,79.0208398 1846.10243,81.8430126 L1857.37634,81.8430126 C1876.40106,81.8430126 1889.08421,86.7818152 1895.42578,97.3649633 C1901.76736,107.948111 1900.35812,120.647889 1891.19807,136.16984 C1882.74264,151.691791 1872.87797,167.213741 1861.60406,183.441235 C1870.76411,191.907754 1880.62878,200.374272 1889.08421,208.840791 C1898.24426,217.30731 1905.99507,225.068284 1912.33664,232.123718 C1920.08746,240.590236 1925.01979,247.645668 1925.72441,253.995557 C1926.42903,260.345446 1922.90593,266.695334 1915.85974,273.750767 C1903.17659,285.745001 1889.08421,282.217286 1872.87797,263.873162 C1869.35487,259.639902 1865.83177,256.112186 1862.30868,251.878928 C1858.78558,248.35121 1855.26248,244.117952 1851.73939,240.590236 L1851.73939,397.22083 L1852.44401,397.22083 L1852.44401,397.22083 Z M1938.40756,155.92505 C1928.54289,155.92505 1922.20131,153.80842 1919.38284,148.869618 C1916.56436,143.930815 1915.15512,138.28647 1915.15512,129.819951 C1915.15512,122.058976 1916.56436,115.709087 1919.38284,111.475828 C1922.20131,107.242568 1928.54289,104.420395 1938.40756,104.420395 L1993.36786,104.420395 L1993.36786,23.9884693 C1993.36786,14.8164075 1995.48172,8.46651855 2000.41405,4.93880249 C2005.34638,1.41108644 2010.98334,0 2018.73415,0 C2026.48496,0 2032.82654,2.11662964 2037.05425,5.6443457 C2041.28196,9.17206176 2044.10045,15.5219507 2044.10045,23.9884693 L2044.10045,104.420395 L2111.03928,104.420395 C2120.19933,104.420395 2125.83629,106.537025 2129.35938,111.475828 C2132.88247,115.709087 2134.29171,122.058976 2134.29171,129.819951 C2134.29171,137.580926 2132.88247,143.930815 2129.35938,148.869618 C2125.83629,153.102877 2120.19933,155.92505 2111.03928,155.92505 L2044.10045,155.92505 L2044.10045,358.415951 L2125.13166,358.415951 C2134.29171,358.415951 2139.92867,360.532582 2143.45176,365.471385 C2146.97485,369.704643 2148.3841,376.054532 2148.3841,383.815509 C2148.3841,391.576483 2146.97485,397.22083 2143.45176,402.159632 C2139.92867,407.098433 2134.29171,409.215064 2125.13166,409.215064 L1908.10893,409.215064 C1898.94888,409.215064 1892.6073,407.098433 1889.78883,403.570717 C1886.97035,400.043001 1885.56111,392.987569 1885.56111,383.815509 C1885.56111,374.643446 1886.97035,368.293556 1889.78883,364.060298 C1892.6073,359.827038 1898.94888,358.415951 1908.10893,358.415951 L1994.07248,358.415951 L1994.07248,155.92505 L1938.40756,155.92505 L1938.40756,155.92505 Z"
          id="Shape_12_" fill="#000000"></path>
        <path
          d="M2571.15563,385.226593 C2571.15563,402.159632 2561.99559,410.626151 2542.97087,410.626151 L2241.39383,410.626151 C2230.11993,410.626151 2221.6645,409.920606 2214.6183,408.509519 C2207.5721,407.098433 2202.63977,404.276261 2198.41205,400.748545 C2194.18434,397.22083 2192.07049,391.576483 2190.66125,385.226593 C2189.252,378.876706 2188.54738,370.410188 2188.54738,359.827038 L2188.54738,80.4319263 C2188.54738,69.848778 2189.252,61.3822596 2190.66125,55.0323705 C2192.07049,48.6824816 2194.88896,43.038136 2198.41205,39.51042 C2202.63977,35.2771606 2207.5721,33.1605309 2214.6183,31.0439014 C2221.6645,29.6328149 2230.11993,28.9272717 2241.39383,28.9272717 L2537.33391,28.9272717 C2547.19858,28.9272717 2553.54016,31.0439014 2557.06325,35.2771606 C2560.58636,39.51042 2561.99559,45.8603089 2561.99559,54.3268273 C2561.99559,63.4988891 2560.58636,69.848778 2557.06325,74.0820374 C2553.54016,77.6097534 2547.19858,79.7263829 2537.33391,79.7263829 L2255.48621,79.7263829 C2249.84927,79.7263829 2245.62154,80.4319263 2243.50769,82.5485558 C2241.39383,84.6651855 2240.68922,87.4873584 2240.68922,92.4261608 L2240.68922,347.832804 C2240.68922,352.066064 2241.39383,355.59378 2243.50769,357.710409 C2245.62154,359.827038 2249.14465,361.238125 2255.48621,361.238125 L2543.67549,361.238125 C2553.54016,361.238125 2561.29096,363.354754 2565.5187,366.88247 C2568.33717,368.999101 2571.15563,376.054532 2571.15563,385.226593 L2571.15563,385.226593 Z M2526.06001,335.83857 C2519.71843,341.482914 2513.37685,344.305088 2508.44454,344.305088 C2502.80758,344.305088 2496.466,340.071828 2489.41982,331.605309 C2481.669,323.844335 2469.69048,312.555643 2455.59809,299.150322 C2440.80109,285.745001 2424.59484,270.928594 2407.68398,254.701099 C2399.93316,262.462075 2392.18236,270.223051 2385.13615,277.278483 C2378.08997,284.333915 2370.33915,291.389346 2361.88372,297.739236 C2354.13292,304.794667 2344.97287,311.850099 2335.81282,318.905533 C2325.94815,325.960964 2315.37886,333.72194 2303.40032,342.188459 C2297.05876,346.421717 2291.4218,348.538346 2284.3756,349.949433 C2277.32942,351.36052 2272.39708,348.538346 2267.46475,342.188459 C2263.23703,336.544112 2261.12317,330.194223 2261.12317,323.138791 C2261.12317,316.083359 2265.35088,309.73347 2271.69246,304.794667 C2289.30794,292.800433 2306.92343,280.100654 2323.12966,266.695334 C2339.33591,253.290013 2355.54216,238.473607 2371.04377,221.540568 C2361.1791,213.07405 2352.01905,204.607531 2343.56362,197.5521 C2335.1082,190.496667 2326.65277,183.441235 2318.90195,177.091346 C2311.15114,170.741457 2303.40032,164.391568 2296.35414,158.747223 C2289.30794,153.102877 2281.55713,147.458531 2273.80633,141.108643 C2266.76013,136.16984 2262.53241,129.819951 2262.53241,123.470062 C2262.53241,117.120173 2264.64628,110.770284 2268.87399,105.125939 C2274.51093,98.7760497 2280.85251,95.2483336 2287.19409,95.953877 C2293.53565,96.6594202 2300.58185,99.481593 2306.92343,105.125939 C2314.67423,111.475828 2322.42504,117.825717 2330.17586,124.175605 C2337.92667,129.819951 2344.97287,136.16984 2352.72367,142.519729 C2360.47448,148.869618 2368.2253,155.219507 2375.97611,162.274939 C2383.72693,169.330371 2392.88698,176.385803 2402.04703,184.852322 C2408.38859,177.091346 2414.02554,170.035914 2419.6625,162.980482 C2425.29946,156.630593 2430.23179,149.575161 2434.45951,143.225272 C2439.39184,136.875383 2443.61956,129.819951 2447.84727,122.764519 C2452.07498,115.709087 2456.3027,108.653655 2460.53043,100.892679 C2464.75814,93.1317041 2468.98586,87.4873584 2474.62281,85.3707287 C2480.25975,82.5485558 2486.60133,82.5485558 2495.05676,86.0762719 C2501.39834,88.8984447 2506.33067,93.8372473 2509.14914,100.187136 C2511.96763,106.537025 2511.26301,113.592457 2506.33067,121.353433 C2501.39834,129.819951 2497.17062,138.28647 2492.23829,146.047445 C2487.30595,153.80842 2482.37362,161.569396 2476.73666,169.330371 C2471.0997,177.091346 2465.46276,184.852322 2459.12118,192.613297 C2452.77961,200.374272 2445.73342,208.840791 2437.9826,218.718397 C2456.3027,234.945889 2472.50895,249.762297 2486.60133,263.167618 C2500.69371,275.867396 2514.08148,287.861631 2526.06001,299.150322 C2533.81082,306.911296 2537.33391,313.261186 2535.92468,319.611075 C2535.92468,324.549878 2532.40159,330.194223 2526.06001,335.83857 L2526.06001,335.83857 Z"
          id="Shape_13_" fill="#000000"></path>
      </g>
    </g>
  </g>
</svg>