<svg xmlns="http://www.w3.org/2000/svg" width="500" height="500" viewBox="0 0 500 500"><path fill="#4882F2" d="M207.869647 129.998167C207.869647 91.961095 207.856803 53.9240488 207.831115 15.8870287 207.678198 8.22120916 213.138739 1.58932607 220.691389.268094934 221.535808.13857357 222.389616.0802237901 223.243805.0936611995 233.514725.0822805416 243.785651.0804055423 254.056584.0880362016 257.608505.0897609396 259.179585 1.6917486 259.179703 5.30468282 259.181375 49.9225846 259.181806 94.5404669 259.180996 139.158329 259.180996 139.816415 259.158339 140.475735 259.19058 141.132292 259.252068 143.094587 260.54744 144.803533 262.420133 145.392944 264.456373 146.030023 266.656236 145.114338 267.639033 143.220597 269.586792 139.793288 271.480201 136.334914 273.378236 132.879597 288.025365 106.214585 302.669613 79.5479854 317.310979 52.8797983 324.5519 39.6892369 331.784896 26.4943375 339.009967 13.2951002 341.341116 8.60945323 345.047136 4.74711338 349.632531 2.22447706 352.316422.805561861 355.307502.0669360991 358.343379.0733535227 368.680048.107380707 379.016854.0821956114 389.35366.0881537973 393.778142.0907017058 395.755535 3.35990347 393.627874 7.2481686 382.872147 26.9039106 372.10317 46.5523942 361.320944 66.1936196 352.038717 83.1347807 342.666941 100.028119 333.533611 117.049206 328.9606 125.073563 328.960489 134.915279 333.533317 142.939739 343.433842 161.33995 353.582044 179.607004 363.622724 197.931954 371.737107 212.741325 379.84695 227.553206 387.952251 242.367595 389.908673 245.940547 391.898687 249.495585 393.81981 253.08741 394.481873 254.089531 394.703717 255.319426 394.433502 256.489707 394.163287 257.659988 393.424689 258.66812 392.390296 259.278534 391.655183 259.721962 390.807639 259.943629 389.949557 259.916883 379.086118 259.903163 368.220288 260.040986 357.360083 259.853028 351.275364 259.747721 346.526964 256.6096 342.63227 252.09598 340.124656 248.797672 337.970006 245.245376 336.203701 241.497425 325.802551 222.6215 315.424684 203.73277 305.070102 184.831235 304.444205 183.204089 303.015895 182.020492 301.300804 181.707735 299.20457 181.414568 297.1736 182.569186 296.353315 184.52041 294.00481 188.853187 291.611481 193.16174 289.237908 197.480954 279.997114 214.296288 270.755223 231.110988 261.512234 247.925054 259.843714 251.144216 257.625123 254.046815 254.956701 256.501706 252.503722 258.745309 249.287188 259.968549 245.963231 259.9219 238.392023 259.8789 230.820227 259.921391 223.248745 259.905261 219.150935 259.957383 215.206096 258.350675 212.310815 255.450311 209.415534 252.549948 207.815747 248.602296 207.875057 244.504585 207.862343 206.335792 207.86054 168.166986 207.869647 129.998167ZM101.940921 72.3507581C101.940921 53.3975529 102.095951 34.4424662 101.867169 15.4920049 101.966203 6.96268046 108.884398.0873518982 117.414173.0413310792 138.548231.179153329 159.683975.139327559 180.818483.0319038179 182.270387-.135864609 183.720021.3639835 184.759963 1.39096433 185.799905 2.41794516 186.317893 3.86119717 186.168346 5.31509004 186.038991 7.94112131 186.164662 10.5788142 186.136243 13.2109016 186.099004 16.6651207 184.489098 18.2457844 181.001992 18.2474895 165.397679 18.2551332 149.792249 18.3522673 134.189798 18.182557 131.911172 18.12846 129.708962 19.0056093 128.091526 20.6115245 126.474089 22.2174396 125.58122 24.4133225 125.619026 26.6922774 125.74407 36.1014094 125.629747 45.5134813 125.66285 54.9241616 125.483018 57.1946484 126.310336 59.429408 127.92528 61.0354603 129.540225 62.6415126 131.779518 63.456479 134.048977 63.2641129 147.612226 63.2655371 161.175468 63.2678367 174.738703 63.2710118 181.774958 63.074991 188.021841 67.744625 189.825497 74.5486035 190.240229 76.00369 190.449096 77.5096975 190.446044 79.0227308 190.439386 95.7384216 190.435179 112.454099 190.433388 129.169764 190.548641 136.350435 185.670433 142.651489 178.689823 144.338619 177.599316 144.587339 176.48138 144.694977 175.363451 144.658892 155.874518 144.663047 136.385018 144.576045 116.896928 144.703421 108.659025 144.499835 102.043134 137.843793 101.889394 129.604809 102.04952 110.521289 101.940921 91.4355529 101.940921 72.3507581ZM166.507195 104.176683C166.507195 99.3783048 166.400497 94.5769477 166.535634 89.7823131 166.590399 87.5294934 165.716073 85.3533345 164.11788 83.7646319 162.519688 82.1759293 160.33836 81.3145791 158.085907 81.3827604 150.131827 81.5416715 142.170847 81.521641 134.215591 81.3958724 131.930128 81.3051209 129.709092 82.1647005 128.080179 83.7703838 126.451266 85.3760671 125.559875 87.5845279 125.617791 89.8710587 125.740352 99.3347748 125.739346 108.799758 125.614773 118.266009 125.567051 120.484496 126.426298 122.626464 127.993956 124.196945 129.561614 125.767425 131.702033 126.630523 133.920602 126.586792 142.008173 126.488116 150.096724 126.489279 158.186255 126.590281 160.442427 126.691348 162.636455 125.835426 164.228165 124.233245 165.819874 122.631063 166.661391 120.43147 166.545531 118.176009 166.37049 113.51563 166.507352 108.843569 166.507195 104.176644L166.507195 104.176683ZM454.832399 214.16997C454.832399 227.660009 454.832157 241.150047 454.831674 254.640086 454.831145 258.474924 453.414645 259.906868 449.618085 259.907789 438.886817 259.909749 428.155503 259.909749 417.424144 259.907789 413.530705 259.906868 412.060248 258.44037 412.059817 254.542697 412.057308 224.732972 412.013327 194.923168 412.077672 165.113579 411.808752 150.776287 417.5603 136.9824 427.934992 127.083105 435.541746 119.697013 445.28519 114.89953 455.777556 113.373966 459.549199 112.807844 463.361142 112.55406 467.174546 112.615199 473.099688 112.645989 479.026985 112.713646 484.949461 112.58529 486.297664 112.504457 487.616842 112.999525 488.578987 113.947397 489.541132 114.89527 490.055858 116.206902 489.995182 117.556162 489.84317 126.963824 489.942578 136.375406 489.93562 145.785616 490.106017 147.086268 489.669376 148.393094 488.751332 149.330072 487.833289 150.26705 486.535648 150.730276 485.231789 150.586463 481.287011 150.488532 477.339804 150.58982 473.405241 150.889939 463.835097 152.51206 456.425191 160.158069 455.103947 169.77437 454.888355 172.007298 454.834477 174.230878 454.833908 176.463747 454.830733 189.03241 454.83023 201.601151 454.832399 214.16997ZM84.2179438 72.4999479C84.2179438 91.517576 84.1397426 110.535655 84.2543593 129.552597 84.0976456 137.870415 77.3832465 144.570874 69.0651205 144.7103 47.7352067 144.566814 26.4033329 144.614068 5.07296833 144.713534 3.69009228 144.8627 2.31433094 144.375589 1.33341497 143.389486.352499004 142.403382-.127348029 141.025071.0291091101 139.643.227806773 136.827405.0550193794 133.986644.0757554345 131.157172-.0297510147 129.956035.383615438 128.76714 1.21152765 127.890544 2.03943986 127.013947 3.20280328 126.533395 4.40800342 126.570172 4.93244138 126.535364 5.46105399 126.562783 5.98770667 126.562783 21.1958392 126.562607 36.4040893 126.535344 51.612065 126.584342 54.6971336 126.864623 57.6781615 125.388388 59.325172 122.764734 60.1205438 121.468564 60.5303852 119.972708 60.5067547 118.452144 60.5180243 108.844569 60.5519899 99.2369939 60.4963279 89.6296934 60.5620736 87.4240756 59.7041254 85.2911363 58.1294304 83.7453652 56.5547354 82.1995941 54.4062592 81.3813308 52.202239 81.4879499 39.1667081 81.4732896 26.1311575 81.4713297 13.0955874 81.4820701 9.01526872 81.4814037 7.62573743 80.0980462 7.62346392 76.0489492 7.62205277 73.4825586 7.61672176 70.9161288 7.62479667 68.3497774 7.42243821 66.9478737 7.89392355 65.532732 8.89666178 64.5323326 9.89940002 63.5319331 11.3156388 63.0637536 12.7170661 63.2693851 25.8184507 63.2584683 38.9213249 63.1520245 52.0202987 63.33224 54.2726145 63.4105439 56.4582132 62.560214 58.0653948 60.9803326 59.6725763 59.4004513 60.5602221 57.22974 60.5205134 54.9764134 60.4966415 45.5005719 60.495067 36.0246716 60.51579 26.5487125 60.5619431 24.290426 59.672332 22.1135515 58.0577671 20.5339413 56.4432021 18.9543312 54.2473807 18.1125717 51.990645 18.2081341 36.4544595 18.3211829 20.9169216 18.2461176 5.3799325 18.2581123 4.06132692 18.4091383 2.73376188 18.0633711 1.65636026 17.2883.646265916 16.5173844.0558385523 15.3176463.0612127569 14.046988.0935123967 10.7570502.0348909024 7.46603438.0849671036 4.17654734.129888645 1.97174183 1.88268727.182555889 4.08610458.0923480467 4.47938405.0658497985 4.87595621.0863310628 5.27090162.0863310628 26.4042998.086213467 47.5376915.0866642508 68.6710766.0876834142 76.150193-.117853169 82.6680081 5.14663283 84.040433 12.5016227 84.2036565 13.4743954 84.2619915 14.4618785 84.2144355 15.4471029 84.2191655 34.4647179 84.2203349 53.4823329 84.2179438 72.4999479Z" transform="translate(5 120)"/></svg>