<svg xmlns="http://www.w3.org/2000/svg" width="500" height="500" viewBox="0 0 500 500"><g fill="none" transform="translate(5 5)"><circle cx="245" cy="245" r="245" fill="#C71D23"/><path fill="#FFF" d="M369.012413,217.782252 L229.877377,217.782252 C223.196687,217.785421 217.780428,223.200262 217.77551,229.88095 L217.76759,260.126485 C217.762571,266.80841 223.177924,272.226601 229.859851,272.22835 C229.86094,272.228351 229.86203,272.228351 229.86312,272.225082 L314.568268,272.224377 C321.250195,272.22422 326.667012,277.640947 326.667068,284.322873 C326.667068,284.322907 326.667068,284.322941 326.666967,284.322975 L326.666967,287.347312 L326.666967,287.347312 L326.666967,290.372018 C326.666967,310.417798 310.416651,326.668114 290.370871,326.668114 L175.424228,326.668114 C168.743261,326.667781 163.327214,321.251884 163.326697,314.570916 L163.323529,199.635417 C163.321975,179.589637 179.571843,163.338873 199.617623,163.338321 C199.617957,163.338321 199.618291,163.338321 199.618624,163.339321 L368.978645,163.339321 C375.657641,163.331815 381.073199,157.919616 381.084848,151.240625 L381.103607,120.995087 C381.115254,114.313166 375.701843,108.893036 369.019917,108.888891 C369.017416,108.888891 369.014914,108.888891 369.012413,108.89639 L199.62913,108.89639 C149.514678,108.89639 108.888889,149.52218 108.888889,199.636631 L108.888889,369.012413 C108.888889,375.69434 114.305661,381.111111 120.987588,381.111111 L299.446682,381.111111 C344.548701,381.111111 381.111111,344.548701 381.111111,299.446682 L381.111111,229.880951 C381.111111,223.199024 375.69434,217.782252 369.012413,217.782252 Z"/></g></svg>