<svg xmlns="http://www.w3.org/2000/svg" width="500" height="500" viewBox="0 0 500 500"><g fill="none" transform="translate(5 31)"><path fill="#0066DA" d="M37.0446735,375.21764 L58.6540664,412.542955 C63.1443299,420.400916 69.5990836,426.575029 77.1764032,431.065292 L154.352806,297.479954 L0,297.479954 C0,306.17984 2.24513173,314.879725 6.73539519,322.737686 L37.0446735,375.21764 Z"/><path fill="#00AC47" d="M245,140.320733 L167.823597,6.73539519 C160.246277,11.2256586 153.791523,17.3997709 149.30126,25.257732 L6.73539519,272.222222 C2.32771328,279.910721 0.0058685663,288.617639 0,297.479954 L154.352806,297.479954 L245,140.320733 Z"/><path fill="#EA4335" d="M412.823597,431.065292 C420.400916,426.575029 426.85567,420.400916 431.345934,412.542955 L440.32646,397.107675 L483.264605,322.737686 C487.754868,314.879725 490,306.17984 490,297.479954 L335.635968,297.479954 L368.482245,362.027491 L412.823597,431.065292 Z"/><path fill="#00832D" d="M245,140.320733 L322.176403,6.73539519 C314.599084,2.24513173 305.899198,0 296.918671,0 L193.081329,0 C184.100802,0 175.400916,2.5257732 167.823597,6.73539519 L245,140.320733 Z"/><path fill="#2684FC" d="M335.647194,297.479954 L154.352806,297.479954 L77.1764032,431.065292 C84.7537228,435.555556 93.4536082,437.800687 102.434135,437.800687 L387.565865,437.800687 C396.546392,437.800687 405.246277,435.274914 412.823597,431.065292 L335.647194,297.479954 Z"/><path fill="#FFBA00" d="M411.981672,148.739977 L340.69874,25.257732 C336.208477,17.3997709 329.753723,11.2256586 322.176403,6.73539519 L245,140.320733 L335.647194,297.479954 L489.719359,297.479954 C489.719359,288.780069 487.474227,280.080183 482.983963,272.222222 L411.981672,148.739977 Z"/></g></svg>