<svg xmlns="http://www.w3.org/2000/svg" width="500" height="500" viewBox="0 0 500 500"><path fill="#0F88EB" d="M130.567028,195.067445 L148.501925,195.072352 L154.406721,215.289137 L186.571929,195.072352 L224.492474,195.072352 L224.492474,28.2838718 L130.567028,28.2838718 L130.567028,195.067445 Z M149.653482,46.3906529 L205.40847,46.3906529 L205.40847,176.965571 L184.018901,176.965571 L162.658733,190.39354 L158.770388,176.997466 L149.655933,176.968024 L149.655933,46.3931064 L149.653482,46.3906529 Z M114.709835,104.599783 L74.6503325,104.599783 C75.9856495,83.826055 76.3335665,65.04947 76.3335665,48.2798428 L115.503675,48.2798428 C115.503675,48.2798428 117.010501,30.9827144 108.937347,31.1789939 L41.179209,31.1789939 C43.8498425,21.119671 47.2065104,10.736487 51.224711,0 C51.224711,0 32.7924396,0 26.5152257,16.5365454 C23.9180959,23.357257 16.40112,49.6096362 3.01365068,76.426319 C7.5218761,75.9356205 22.4357718,75.5185265 31.219461,59.399075 C32.8365419,54.884647 33.1428072,54.2958085 35.1519076,48.2602149 L57.2520125,48.2602149 C57.2520125,56.307673 56.335667,99.5382265 55.963248,104.567888 L15.9502975,104.567888 C6.9583479,104.567888 4.03535177,122.674669 4.03535177,122.674669 L54.2457125,122.674669 C50.876794,160.902549 32.7948898,193.116918 0,218.584179 C15.6881344,223.069165 31.3223661,217.872666 39.0476024,210.99307 C39.0476024,210.99307 56.644382,194.971759 66.2929645,157.899474 L107.609381,207.690668 C107.609381,207.690668 113.668533,187.076417 106.658733,177.031815 C100.851943,170.191475 85.176059,151.687229 78.4921245,144.979377 L67.295065,153.878198 C70.6345815,143.161339 72.643682,132.75362 73.322366,122.694297 L120.521526,122.694297 C120.521526,122.694297 120.455373,104.587516 114.709835,104.587516 L114.709835,104.599783 Z M430.168008,103.36813 C446.118306,83.7082875 464.60203,58.464294 464.60203,58.464294 C464.60203,58.464294 450.325166,47.1168869 443.638782,55.3483575 C439.047252,61.5998585 415.437872,92.305328 415.437872,92.305328 L430.168008,103.370583 L430.168008,103.36813 Z M315.249912,58.071735 C308.355268,51.7490825 295.413721,59.708215 295.413721,59.708215 C295.413721,59.708215 325.672733,101.908301 326.897795,103.755781 L341.794539,93.230295 C341.794539,93.230295 322.144557,64.396841 315.259713,58.071735 L315.249912,58.071735 Z M490,112.789544 C474.858243,112.789544 389.770389,113.505964 389.660133,113.505964 L389.660133,36.0737132 C393.342667,36.0737132 399.171509,35.76948 407.154007,35.1511997 C438.449423,33.3037192 460.845993,32.084333 474.353518,31.4611456 C474.353518,31.4611456 483.705636,10.6162659 473.900245,5.8221398 C471.548128,4.91434725 456.161358,9.33063535 456.161358,9.33063535 C456.161358,9.33063535 329.661533,21.9734867 278.257963,23.168338 C279.483024,29.9301658 284.089254,36.2601787 290.337067,38.1591826 C300.529577,40.8261299 307.708436,39.4595341 327.970949,38.8388003 C346.983899,37.6120536 361.415121,36.9741453 371.240112,36.9741453 L371.240112,113.498604 L269.045502,113.498604 C269.045502,113.498604 271.20161,130.599453 288.572978,131.016547 L371.215611,131.016547 L371.215611,185.38596 C371.215611,196.093005 362.645083,202.241459 352.472173,201.579016 C341.691635,201.662435 332.503675,200.695759 320.554427,200.190339 C322.080854,203.232671 325.39832,211.221245 335.340917,216.932978 C342.904445,220.618125 347.723836,221.97 355.260413,221.97 C377.892195,221.97 390.223661,208.721135 389.628282,187.228533 L389.628282,131.019 L483.308716,131.019 C490.722786,131.019 489.973049,112.784637 489.973049,112.784637 L490,112.789544 Z" transform="translate(5 139)"/></svg>