<svg xmlns="http://www.w3.org/2000/svg" width="500" height="500" viewBox="0 0 500 500"><g fill="none" fill-rule="evenodd" transform="translate(29 5)"><path fill="#F9AB00" d="M442.629966,428.492872 C442.629966,461.818194 415.553142,489.936435 382.22782,489.936435 L374.937906,489.936435 C343.695416,485.770769 320.784257,457.652529 321.825674,426.41004 L321.825674,63.9971627 C320.784257,32.7546733 343.695416,5.67784919 374.937906,0.470767629 C408.263228,-3.69489762 438.464301,20.2576776 442.629966,53.5829996 L442.629966,428.492872 Z"/><path fill="#E37400" d="M60.4301791,369.132142 C93.7555011,369.132142 120.832325,396.208966 120.832325,429.534288 C120.832325,462.85961 93.7555011,489.936435 60.4301791,489.936435 C27.1048571,489.936435 0.0280329944,462.85961 0.0280329944,429.534288 C-1.01338332,396.208966 27.1048571,369.132142 60.4301791,369.132142 L60.4301791,369.132142 Z M219.766875,184.801455 C186.441553,186.884288 160.406145,215.002528 160.406145,248.32785 L160.406145,411.830211 C160.406145,455.569696 180.193055,482.64652 208.311296,488.895018 C241.636618,495.143516 272.879107,474.31519 280.169021,440.989868 C281.210437,436.824203 281.210437,432.658537 281.210437,428.492872 L281.210437,246.245017 C281.210437,212.919695 254.133613,184.801455 220.808291,184.801455 L219.766875,184.801455 Z"/></g></svg>