<svg xmlns="http://www.w3.org/2000/svg" width="500" height="500" viewBox="0 0 500 500"><path fill="#FF6A00" stroke="#000" d="M408.307977,0.149976268 C452.881092,0.149976268 489.087239,35.8446907 490,79.9381548 L490,218.967554 C490,263.810908 453.033218,299.505618 408.307977,299.505618 L279.608817,299.505618 L291.170443,253.162487 L401.31015,229.615975 C411.198384,227.366308 418.196211,218.967554 418.956844,208.319129 L418.956844,91.3364631 C418.956844,80.6880424 411.35051,72.2892885 401.31015,70.0396217 L291.170443,46.4931093 L279.608817,0.149976268 Z M209.47842,0 L197.916794,46.343133 L87.7770864,69.8896413 C77.8888525,72.1393101 70.8910256,80.5380661 70.1303924,91.1864868 L70.1303924,208.169153 C70.1303924,218.817574 77.7367266,227.216329 87.7770864,229.465998 L198.068924,252.412597 L209.63055,298.755728 L81.6920227,298.755728 C36.9667803,298.755728 0,262.311128 0,218.217664 L0,79.9381548 C0,35.8446886 36.206145,0.149976268 81.5398927,0 L209.47842,0 Z M294.004143,144.053651 L294.004143,155.451961 L199.989863,155.451961 L199.989863,144.053651 L294.004143,144.053651 Z" transform="translate(5 100)"/></svg>