<svg xmlns="http://www.w3.org/2000/svg" width="500" height="500" viewBox="0 0 500 500"><g fill="none" transform="translate(5 66)"><path fill="#4285F4" d="M33.1333333,367.111111 L110.444444,367.111111 L110.444444,178.222222 L0,94.8888889 L0,333.777778 C0,352.194444 14.8271667,367.111111 33.1333333,367.111111 Z"/><path fill="#34A853" d="M379.555556,367.111111 L456.866667,367.111111 C475.172833,367.111111 490,352.194444 490,333.777778 L490,94.8888889 L379.555556,178.222222 L379.555556,367.111111 Z"/><path fill="#FBBC04" d="M379.555556,33.3227602 L379.555556,177.333333 L490,94.2503104 L490,49.9393648 C490,8.86865717 443.254389,-14.5884496 410.48,10.0595138 L379.555556,33.3227602 Z"/><polygon fill="#EA4335" points="112 178.535 112 34.222 245.778 134.131 379.556 34.222 379.556 178.535 245.778 278.444"/><path fill="#C5221F" d="M0,49.9393648 L0,94.2503104 L110.444444,177.333333 L110.444444,33.3227602 L79.52,10.0595138 C46.7456111,-14.5884496 0,8.86865717 0,49.9393648 Z"/></g></svg>