<svg xmlns="http://www.w3.org/2000/svg" width="500" height="500" viewBox="0 0 500 500"><defs><radialGradient id="b" cx="6.533%" cy="1.94%" r="140.093%" fx="6.533%" fy="1.94%"><stop offset="0%" stop-color="#FFF" stop-opacity=".1"/><stop offset="100%" stop-color="#FFF" stop-opacity="0"/></radialGradient><linearGradient id="a" x1="0%" x2="100%" y1="50%" y2="50%"><stop offset="0%" stop-color="#FFF" stop-opacity=".2"/><stop offset="100%" stop-color="#FFF" stop-opacity=".02"/></linearGradient></defs><g fill="none" transform="translate(5 5)"><path fill="#DBDBDB" d="M457.402064,490 C475.32111,490 490,475.569468 490,457.899429 L490,130.463788 C490,112.793749 475.32111,98.3632175 457.402064,98.3632175 L139.228534,98.3632175 L266.920148,490 L457.402064,490 Z"/><path fill="#DCDCDC" d="M457.402064,113.08825 C462.164112,113.08825 466.680693,114.953421 470.068129,118.291095 C473.406472,121.579685 475.272017,125.899028 475.272017,130.463788 L475.272017,457.899429 C475.272017,462.464189 473.455566,466.783532 470.068129,470.072123 C466.680693,473.409797 462.164112,475.274967 457.402064,475.274967 L277.622483,475.274967 L159.504058,113.08825 L457.402064,113.08825 M457.402064,98.3632175 L139.228534,98.3632175 L266.920148,490 L457.402064,490 C475.32111,490 490,475.569468 490,457.899429 L490,130.463788 C490,112.793749 475.32111,98.3632175 457.402064,98.3632175 L457.402064,98.3632175 Z"/><polygon fill="#4352B8" points="236.777 397.478 266.92 490 350.722 397.478"/><path fill="#607988" d="M459.562168,233.686267 L459.562168,214.494641 L367.021341,214.494641 L367.021341,183.473906 L336.976255,183.473906 L336.976255,214.494641 L277.917042,214.494641 L277.917042,233.686267 L395.446348,233.686267 C389.162409,255.822899 375.269011,276.732445 361.719267,292.979064 C337.712654,264.559752 337.614467,255.332065 337.614467,255.332065 L312.675083,255.332065 C312.675083,255.332065 313.706041,269.173595 347.38403,308.636682 C336.436229,319.827707 328.139465,326.453972 328.139465,326.453972 L335.798016,350.406691 C335.798016,350.406691 347.38403,340.442753 361.866546,325.079635 C376.398156,340.83542 395.151788,359.781629 419.403867,382.360012 L435.162809,366.604227 C409.192466,343.044175 390.144274,324.343384 376.15269,309.323851 C394.906322,287.138135 413.954514,259.209656 417.980162,233.637183 L459.513075,233.637183 L459.513075,233.686267 L459.562168,233.686267 Z"/><path fill="#4285F4" d="M32.5979361,0 C14.6788899,0 0,14.6759491 0,32.6404888 L0,364.93539 C0,382.850846 14.6788899,397.526796 32.5979361,397.526796 L350.771466,397.526796 L223.079852,0 L32.5979361,0 Z"/><path fill="url(#a)" d="M262.30538,98.3632175 L457.402064,98.3632175 C475.32111,98.3632175 490,112.793749 490,130.463788 L490,326.895723 L262.30538,98.3632175 Z"/><path fill="#EEE" d="M182.332432,211.353301 C181.1051,226.225583 168.389941,248.264049 137.608456,248.264049 C110.950807,248.264049 89.3497646,226.225583 89.3497646,199.08244 C89.3497646,171.939297 110.950807,149.900831 137.608456,149.900831 C152.778279,149.900831 162.891494,156.478013 168.684501,161.828108 L188.910931,142.391065 C175.606653,130.120204 158.276726,122.463187 137.608456,122.463187 C95.3391444,122.463187 61.0229436,156.772513 61.0229436,199.033357 C61.0229436,241.2942 95.3391444,275.603526 137.608456,275.603526 C181.890592,275.603526 211.150185,244.533707 211.150185,200.702194 C211.150185,194.419513 210.364693,189.80567 209.333734,185.093659 L137.657549,185.093659 L137.657549,211.304217 L182.332432,211.353301 Z"/><path fill="url(#b)" d="M457.402064,98.3632175 L254.695922,98.3632175 L223.079852,0 L32.5979361,0 C14.6788899,0 0,14.6759491 0,32.6404888 L0,364.93539 C0,382.850846 14.6788899,397.526796 32.5979361,397.526796 L236.776876,397.526796 L266.920148,490 L457.402064,490 C475.32111,490 490,475.569468 490,457.899429 L490,130.463788 C490,112.793749 475.32111,98.3632175 457.402064,98.3632175 Z"/></g></svg>