<svg xmlns="http://www.w3.org/2000/svg" width="500" height="500" viewBox="0 0 500 500"><g fill="none" transform="translate(5 22)"><path fill="#E4E4E4" d="M175,0 L140,35 L140,87.5 L0,87.5 L0,411.25 C0,425.7925 11.7075,437.5 26.25,437.5 L463.75,437.5 C478.2925,437.5 490,425.7925 490,411.25 L490,87.5 L350,87.5 L350,35 L315,0 L175,0 Z M175,35 L315,35 L315,87.5 L175,87.5 L175,35 Z"/><path fill="#000" d="M175,35 L175,52.5 L315,52.5 L315,35 L175,35 Z M0,411.25 L0,428.75 C0,443.2925 11.7075,455 26.25,455 L463.75,455 C478.2925,455 490,443.2925 490,428.75 L490,411.25 C490,425.7925 478.2925,437.5 463.75,437.5 L26.25,437.5 C11.7075,437.5 0,425.7925 0,411.25 Z" opacity=".2"/><path fill="#DD4D3E" d="M244.62403,192.5 L244.62403,192.534177 C158.808282,192.534177 83.7927335,236.53798 40.1611332,303.10546 L117.783204,437.5 L134.565429,437.5 C134.565398,437.465262 134.565429,437.432205 134.565429,437.397467 C134.565429,376.354405 184.021582,358.462615 244.62403,351.674802 L463.27148,327.16796 C423.134407,247.107105 340.526497,192.5 244.62403,192.5 Z"/><path fill="#109F5B" d="M40.263671,303.652335 C17.6829747,337.994737 4.32199075,377.417985 0.9912105,418.05176 C3.9896115,429.251182 14.0791875,437.5 26.25,437.5 L117.441406,437.5 L40.263671,303.652335 Z"/><path fill="#FFCE41" d="M457.221678,314.76074 L245,315.034177 C262.736548,315.513677 283.86876,332.46472 300.371085,342.001958 C335.79777,362.476398 355.44173,399.435085 355.400395,437.5 L463.75,437.5 C476.03178,437.5 486.18409,429.10042 489.077155,417.744145 C486.492405,386.281402 477.95237,355.531925 463.75,327.304688 L457.221678,314.76074 Z"/><path fill="#FFF" d="M245,315 C177.135,315 122.5,369.635 122.5,437.5 L367.5,437.5 C367.5,369.635 312.865,315 245,315 Z"/><path fill="#4587F3" d="M245,332.5 C186.83,332.5 140,379.33 140,437.5 L350,437.5 C350,379.33 303.17,332.5 245,332.5 Z"/></g></svg>