<svg xmlns="http://www.w3.org/2000/svg" xmlns:xlink="http://www.w3.org/1999/xlink" width="500" height="500" viewBox="0 0 500 500"><defs><path id="a" d="M473.295455,200.454545 L245,200.454545 L245,295.113636 L376.409091,295.113636 C364.159091,355.25 312.931818,389.772727 245,389.772727 C164.818182,389.772727 100.227273,325.181818 100.227273,245 C100.227273,164.818182 164.818182,100.227273 245,100.227273 C279.522727,100.227273 310.704545,112.477273 335.204545,132.522727 L406.477273,61.25 C363.045455,23.3863636 307.363636,0 245,0 C109.136364,0 0,109.136364 0,245 C0,380.863636 109.136364,490 245,490 C367.5,490 478.863636,400.909091 478.863636,245 C478.863636,230.522727 476.636364,214.931818 473.295455,200.454545 Z"/><path id="c" d="M473.295455,200.454545 L245,200.454545 L245,295.113636 L376.409091,295.113636 C364.159091,355.25 312.931818,389.772727 245,389.772727 C164.818182,389.772727 100.227273,325.181818 100.227273,245 C100.227273,164.818182 164.818182,100.227273 245,100.227273 C279.522727,100.227273 310.704545,112.477273 335.204545,132.522727 L406.477273,61.25 C363.045455,23.3863636 307.363636,0 245,0 C109.136364,0 0,109.136364 0,245 C0,380.863636 109.136364,490 245,490 C367.5,490 478.863636,400.909091 478.863636,245 C478.863636,230.522727 476.636364,214.931818 473.295455,200.454545 Z"/><path id="e" d="M473.295455,200.454545 L245,200.454545 L245,295.113636 L376.409091,295.113636 C364.159091,355.25 312.931818,389.772727 245,389.772727 C164.818182,389.772727 100.227273,325.181818 100.227273,245 C100.227273,164.818182 164.818182,100.227273 245,100.227273 C279.522727,100.227273 310.704545,112.477273 335.204545,132.522727 L406.477273,61.25 C363.045455,23.3863636 307.363636,0 245,0 C109.136364,0 0,109.136364 0,245 C0,380.863636 109.136364,490 245,490 C367.5,490 478.863636,400.909091 478.863636,245 C478.863636,230.522727 476.636364,214.931818 473.295455,200.454545 Z"/><path id="g" d="M473.295455,200.454545 L245,200.454545 L245,295.113636 L376.409091,295.113636 C364.159091,355.25 312.931818,389.772727 245,389.772727 C164.818182,389.772727 100.227273,325.181818 100.227273,245 C100.227273,164.818182 164.818182,100.227273 245,100.227273 C279.522727,100.227273 310.704545,112.477273 335.204545,132.522727 L406.477273,61.25 C363.045455,23.3863636 307.363636,0 245,0 C109.136364,0 0,109.136364 0,245 C0,380.863636 109.136364,490 245,490 C367.5,490 478.863636,400.909091 478.863636,245 C478.863636,230.522727 476.636364,214.931818 473.295455,200.454545 Z"/></defs><g fill="none" fill-rule="evenodd" transform="translate(11 5)"><mask id="b" fill="#fff"><use xlink:href="#a"/></mask><polygon fill="#FBBC05" fill-rule="nonzero" points="-22.273 389.773 -22.273 100.227 167.045 245" mask="url(#b)"/><mask id="d" fill="#fff"><use xlink:href="#c"/></mask><polygon fill="#EA4335" fill-rule="nonzero" points="-22.273 100.227 167.045 245 245 177.068 512.273 133.636 512.273 -22.273 -22.273 -22.273" mask="url(#d)"/><mask id="f" fill="#fff"><use xlink:href="#e"/></mask><polygon fill="#34A853" fill-rule="nonzero" points="-22.273 389.773 311.818 133.636 399.795 144.773 512.273 -22.273 512.273 512.273 -22.273 512.273" mask="url(#f)"/><mask id="h" fill="#fff"><use xlink:href="#g"/></mask><polygon fill="#4285F4" fill-rule="nonzero" points="512.273 512.273 167.045 245 122.5 211.591 512.273 100.227" mask="url(#h)"/></g></svg>