<svg xmlns="http://www.w3.org/2000/svg" width="500" height="500" viewBox="0 0 500 500"><g fill="none" transform="translate(5 77)"><path fill="#F61C0D" d="M388.233279,0 L101.766721,0 C45.5624608,0 0,45.5624608 0,101.766721 L0,244.969707 C0,301.173967 45.5624608,346.736428 101.766721,346.736428 L388.233279,346.736428 C444.437539,346.736428 490,301.173967 490,244.969707 L490,101.766721 C490,45.5624608 444.437539,0 388.233279,0 Z"/><path fill="#FFF" d="M319.409155,180.335552 L185.419424,244.240555 C181.849128,245.943328 177.725059,243.340275 177.725059,239.385207 L177.725059,107.580808 C177.725059,103.569407 181.957545,100.969542 185.535281,102.782857 L319.525012,170.682254 C323.508778,172.70071 323.439689,178.413821 319.409155,180.335552 Z"/></g></svg>