<svg xmlns="http://www.w3.org/2000/svg" width="500" height="500" viewBox="0 0 500 500"><g fill="none" transform="translate(5 205)"><path fill="#000" d="M16.4823261,69.8403649 C10.0570125,69.8403649 5.02850627,68.1641961 0,64.5324971 L0,63.6944128 L3.63169897,56.1516534 C6.14595211,58.386545 10.336374,60.9007982 14.2474344,60.9007982 C17.3204105,60.9007982 20.3933865,59.7833523 20.3933865,56.1516534 C20.3933865,53.0786773 17.5997719,51.9612315 14.2474344,50.5644242 C13.1299886,50.0057013 11.7331813,49.4469783 10.336374,48.8882554 C4.74914481,46.0946408 0.838084379,42.7423033 0.838084379,35.7582668 C0.838084379,23.1870011 12.8506271,21.7901938 18.1584949,21.7901938 C23.7457241,21.7901938 29.3329532,23.1870011 32.9646522,25.4218928 L32.9646522,26.5393387 L29.3329532,34.0820981 C26.5393387,32.1265678 23.1870011,31.009122 19.8346636,31.009122 C15.3648803,31.009122 14.5267959,33.2440137 14.5267959,35.1995439 C14.5267959,38.27252 17.3204105,39.3899658 21.2314709,40.7867731 C22.0695553,41.0661345 22.9076397,41.345496 23.7457241,41.9042189 C30.4503991,44.6978335 34.3614595,47.7708096 34.3614595,55.313569 C34.0820981,67.8848347 23.1870011,69.8403649 16.4823261,69.8403649 L16.4823261,69.8403649 Z M59.2246294,69.8403649 C40.5074116,69.8403649 37.713797,54.7548461 37.713797,45.8152794 C37.713797,35.1995439 41.345496,22.3489168 58.386545,22.3489168 C74.5895097,22.3489168 77.9418472,34.0820981 77.9418472,44.4184721 C77.9418472,45.8152794 77.6624857,48.3295325 77.1037628,50.0057013 C74.8688712,50.0057013 66.7673888,50.0057013 60.3420753,49.7263398 L51.4025086,49.7263398 L51.4025086,50.2850627 C51.4025086,52.7993158 52.2405929,61.1801596 60.9007982,61.1801596 C64.2531357,61.1801596 67.3261117,59.7833523 70.1197263,56.7103763 L75.4275941,63.1356899 L75.4275941,63.9737742 C70.3990878,67.6054732 65.3705815,69.8403649 59.2246294,69.8403649 Z M58.386545,31.5678449 C53.9167617,31.5678449 51.68187,35.1995439 51.4025086,42.4629418 L51.4025086,43.0216648 L64.8118586,43.0216648 L64.8118586,42.4629418 C65.0912201,35.1995439 62.8563284,31.5678449 58.386545,31.5678449 Z M103.36374,89.395667 C97.2177879,89.395667 91.0718358,87.7194983 86.0433295,84.9258837 L89.395667,76.2656784 L89.95439,76.2656784 C92.7480046,77.9418472 96.659065,80.1767389 101.40821,80.1767389 C106.716078,80.1767389 109.789054,77.3831243 109.789054,72.6339795 C109.789054,72.0752566 110.068415,67.8848347 110.347777,65.0912201 L110.347777,64.8118586 L109.230331,64.2531357 L108.950969,64.5324971 C105.877993,67.3261117 102.805017,69.8403649 97.4971494,69.8403649 C87.4401368,69.8403649 82.4116306,62.2976055 82.4116306,46.0946408 C82.4116306,34.640821 86.322691,22.6282782 97.4971494,22.6282782 C101.687571,22.6282782 105.877993,24.5838084 109.230331,28.2155074 L109.509692,28.4948689 L110.347777,28.2155074 L111.185861,24.5838084 L112.023945,23.7457241 L123.477765,24.0250855 C123.477765,25.7012543 123.198404,29.8916762 123.198404,32.1265678 L123.198404,71.2371722 C123.477765,87.9988597 108.112885,89.395667 103.36374,89.395667 L103.36374,89.395667 Z M103.36374,32.4059293 C96.659065,32.4059293 96.659065,42.4629418 96.659065,45.8152794 C96.659065,50.2850627 96.659065,60.3420753 102.246294,60.3420753 C104.481186,60.3420753 107.2748,58.6659065 109.230331,55.8722919 L109.230331,55.5929304 L109.509692,35.4789054 L109.509692,35.1995439 C107.833523,33.8027366 105.598632,32.4059293 103.36374,32.4059293 Z M179.350057,68.4435576 C179.350057,66.4880274 179.90878,39.9486887 179.90878,39.6693273 C179.90878,35.1995439 179.350057,32.4059293 175.718358,32.4059293 C173.762828,32.4059293 171.248575,33.5233751 169.293044,35.1995439 L169.013683,34.9201824 L169.013683,68.1641961 L155.324971,68.1641961 C155.324971,66.2086659 155.604333,39.6693273 155.604333,39.3899658 C155.604333,34.9201824 155.04561,32.1265678 151.413911,32.1265678 C149.737742,32.1265678 146.944128,33.2440137 144.988597,34.9201824 L144.709236,35.1995439 L144.988597,68.4435576 L131.020525,68.4435576 L131.020525,34.9201824 C131.020525,31.8472064 130.741163,25.9806157 130.741163,23.4663626 L142.753706,23.1870011 L143.59179,23.7457241 L144.150513,27.6567845 L144.988597,27.936146 L145.267959,27.6567845 C149.179019,24.304447 154.766249,22.0695553 158.95667,22.0695553 C162.867731,22.0695553 165.940707,24.0250855 167.616876,27.936146 L167.896237,28.7742303 L168.45496,28.2155074 C172.645382,24.5838084 178.232611,22.3489168 182.981756,22.3489168 C189.686431,22.3489168 193.597491,27.0980616 193.597491,35.7582668 C193.597491,36.3169897 193.31813,66.4880274 193.31813,68.4435576 L179.350057,68.4435576 L179.350057,68.4435576 Z M221.254276,69.8403649 C202.537058,69.8403649 199.743444,54.7548461 199.743444,45.8152794 C199.743444,35.1995439 203.375143,22.3489168 220.416192,22.3489168 C236.619156,22.3489168 239.971494,34.0820981 239.971494,44.4184721 C239.971494,45.8152794 239.692132,48.3295325 239.133409,50.0057013 C236.898518,50.0057013 228.797035,50.0057013 222.371722,49.7263398 L213.432155,49.7263398 L213.432155,50.2850627 C213.432155,52.7993158 214.270239,61.1801596 222.930445,61.1801596 C226.282782,61.1801596 229.355758,59.7833523 232.149373,56.7103763 L237.457241,63.1356899 L237.457241,63.9737742 C232.428734,67.6054732 227.400228,69.8403649 221.254276,69.8403649 L221.254276,69.8403649 Z M220.416192,31.5678449 C215.946408,31.5678449 213.711517,35.1995439 213.432155,42.4629418 L213.432155,43.0216648 L226.841505,43.0216648 L226.841505,42.4629418 C226.841505,35.1995439 224.885975,31.5678449 220.416192,31.5678449 Z M270.421893,68.4435576 C270.421893,66.4880274 270.980616,39.9486887 270.980616,39.6693273 C270.980616,34.9201824 270.142531,32.4059293 266.510832,32.4059293 C264.555302,32.4059293 262.041049,33.5233751 259.526796,35.1995439 L259.247434,35.4789054 L259.526796,68.722919 L245.558723,68.722919 L245.558723,34.9201824 C245.558723,31.8472064 245.279361,26.2599772 245.279361,23.4663626 L257.291904,23.1870011 L258.129989,23.7457241 L258.688712,27.6567845 L259.526796,27.936146 L259.806157,27.6567845 C263.996579,24.304447 269.86317,22.0695553 274.332953,22.0695553 C281.31699,22.0695553 284.948689,26.8187001 284.948689,35.4789054 C284.948689,36.0376283 284.669327,66.2086659 284.669327,68.1641961 L270.421893,68.1641961 L270.421893,68.4435576 L270.421893,68.4435576 Z M307.018244,68.4435576 C295.564424,68.4435576 294.446978,61.4595211 294.446978,54.4754846 C294.446978,52.5199544 294.446978,42.4629418 294.72634,33.8027366 L294.72634,33.2440137 L289.697834,33.2440137 L289.977195,23.4663626 L295.005701,23.4663626 L295.005701,10.6157355 L295.564424,10.0570125 L308.694413,10.0570125 C308.694413,11.7331813 308.694413,16.7616876 308.415051,22.9076397 L308.415051,23.4663626 L315.957811,23.4663626 L315.678449,33.2440137 L308.13569,33.2440137 L308.13569,33.8027366 C308.415051,42.1835804 308.415051,51.1231471 308.415051,52.7993158 C308.415051,57.5484607 308.415051,59.2246294 312.884835,59.2246294 L315.399088,59.2246294 L315.399088,67.8848347 L314.840365,68.4435576 L307.018244,68.4435576 Z"/><path fill="#009A61" d="M326.294185,68.4435576 C326.294185,64.5324971 326.294185,42.1835804 326.573546,33.8027366 L326.573546,33.2440137 L321.265678,33.2440137 L321.54504,23.4663626 L326.573546,23.4663626 L326.573546,22.9076397 C326.573546,22.6282782 326.294185,15.0855188 326.294185,15.0855188 C326.294185,2.7936146 334.116306,0 340.541619,0 C344.45268,0 347.805017,0.558722919 350.877993,1.95553022 L350.877993,3.07297605 L348.084379,10.8950969 C346.687571,10.0570125 345.290764,9.77765108 344.173318,9.77765108 C341.100342,9.77765108 339.982896,12.0125428 339.982896,16.7616876 L339.982896,23.4663626 L348.084379,23.4663626 L347.805017,33.2440137 L339.982896,33.2440137 L339.982896,33.8027366 C340.262258,41.9042189 340.262258,64.5324971 340.262258,68.4435576 L326.294185,68.4435576 L326.294185,68.4435576 Z M362.052452,69.5610034 C352.2748,69.5610034 351.157355,60.0627138 351.157355,56.1516534 C351.157355,41.6248575 362.611174,40.7867731 374.903079,39.9486887 L375.461802,39.9486887 L375.741163,39.3899658 L375.741163,36.8757127 C375.741163,33.5233751 373.785633,31.5678449 369.595211,31.5678449 C364.287343,31.5678449 359.538198,32.9646522 356.185861,34.3614595 L353.112885,26.2599772 L353.112885,25.7012543 C359.81756,23.1870011 366.801596,22.0695553 374.064994,22.0695553 C384.401368,22.0695553 389.709236,26.8187001 389.709236,36.0376283 L389.709236,58.1071836 C389.709236,61.7388826 389.988597,66.2086659 389.988597,68.4435576 L378.534778,68.4435576 L377.696693,67.6054732 L376.579247,63.9737742 L375.741163,63.6944128 L375.461802,63.9737742 C371.550741,67.8848347 367.360319,69.5610034 362.052452,69.5610034 L362.052452,69.5610034 Z M374.623717,46.6533637 C367.639681,46.9327252 364.287343,46.9327252 364.287343,54.1961231 C364.287343,59.7833523 366.522235,60.9007982 368.477765,60.9007982 C370.712657,60.9007982 373.506271,59.5039909 375.461802,57.5484607 L375.741163,57.2690992 L375.741163,47.4914481 L375.461802,47.2120867 L374.903079,46.9327252 C374.903079,46.6533637 374.623717,46.6533637 374.623717,46.6533637 L374.623717,46.6533637 Z M408.147092,69.5610034 C400.604333,69.5610034 396.972634,65.0912201 396.972634,56.1516534 C396.972634,55.5929304 397.251995,25.4218928 397.251995,23.1870011 L410.661345,23.1870011 L411.220068,23.7457241 C411.220068,25.1425314 410.940707,51.9612315 410.940707,52.5199544 C410.940707,57.2690992 412.616876,59.7833523 415.41049,59.7833523 C417.924743,59.7833523 420.997719,58.386545 422.95325,56.4310148 L423.232611,56.1516534 L422.95325,22.9076397 L436.3626,22.9076397 L436.921323,23.4663626 L436.921323,57.2690992 C436.921323,60.9007982 437.200684,65.3705815 437.200684,67.6054732 L425.746864,67.6054732 L424.90878,66.7673888 L423.791334,62.8563284 L422.673888,62.5769669 L422.394527,62.8563284 C418.483466,67.6054732 414.013683,69.5610034 408.147092,69.5610034 L408.147092,69.5610034 Z M445.022805,68.4435576 C444.743444,66.2086659 444.743444,61.1801596 444.743444,58.1071836 L444.743444,12.2919042 C444.743444,9.21892816 444.743444,4.46978335 444.464082,1.95553022 L458.152794,1.67616876 L458.711517,2.23489168 L458.711517,58.1071836 C458.711517,61.4595211 458.990878,66.2086659 458.990878,68.4435576 L445.022805,68.4435576 Z M481.060433,68.4435576 C469.606613,68.4435576 468.489168,61.4595211 468.489168,54.4754846 C468.489168,52.5199544 468.489168,42.4629418 468.768529,33.8027366 L468.768529,33.2440137 L463.740023,33.2440137 L464.019384,23.4663626 L469.047891,23.4663626 L469.047891,10.6157355 L469.606613,10.0570125 L482.736602,10.0570125 C482.736602,11.7331813 482.736602,16.7616876 482.457241,22.9076397 L482.457241,23.4663626 L490,23.4663626 L489.720639,33.2440137 L482.177879,33.2440137 L482.177879,33.8027366 C482.457241,42.1835804 482.457241,51.1231471 482.457241,52.7993158 C482.457241,57.5484607 482.457241,59.2246294 486.927024,59.2246294 L489.441277,59.2246294 L489.441277,67.8848347 L488.882554,68.4435576 L481.060433,68.4435576 Z"/></g></svg>