<svg xmlns="http://www.w3.org/2000/svg" width="500" height="500" viewBox="0 0 500 500"><g fill="none" transform="translate(27 5)"><path fill="#EA4335" d="M191.31802,227.590922 L1.33989609,449.98496 C8.24993164,473.500137 30.2050861,490 54.744326,490 C65.4252119,490 74.7757725,487.329779 82.786437,481.989336 L82.786437,481.989336 L316.464315,348.516544 L191.31802,227.590922 Z"/><path fill="#FBBC04" d="M415.281652,196.294777 L415.281652,196.294777 L315.124419,138.870659 L208.305989,244.358764 L316.464315,348.516544 L416.611977,292.432322 C433.973202,283.081761 445.993984,264.390211 445.993984,244.358764 C444.654088,224.327317 432.642877,205.635767 415.281652,196.294777 L415.281652,196.294777 Z"/><path fill="#34A853" d="M190.858627,261.710418 L315.13399,138.870659 L84.1263331,8.01066448 C76.1156686,2.67022149 65.4252119,0 54.744326,0 C29.3820071,0 6.68033908,17.361225 1.33989609,40.0628931 C1.33989609,40.0628931 1.33989609,40.0628931 1.33989609,40.0628931 L190.858627,261.710418 Z"/><path fill="#4285F4" d="M1.3303254,40.0628931 C0,44.06344 0,49.4134537 0,54.744326 L0,435.313098 C0,440.64397 0,444.654088 1.33989609,449.994531 L208.32513,244.358764 L1.3303254,40.0628931 Z"/></g></svg>