<svg xmlns="http://www.w3.org/2000/svg" width="500" height="500" viewBox="0 0 500 500"><g transform="translate(5 171)"><path d="M426.436782,99.2704174 C426.436782,103.437387 428.444041,106.740472 434.059286,106.740472 C440.665457,106.740472 447.703569,101.99758 448.127042,91.2329099 C445.044511,90.7385759 441.931787,90.4556009 438.810647,90.3859362 C432.179068,90.3774955 426.436782,92.2407743 426.436782,99.2704174 L426.436782,99.2704174 Z"/><path d="M0,0 L0,157.142166 L490,157.142166 L490,0 L0,0 Z M138.712644,118.513007 L111.610405,118.513007 L111.610405,82.0435572 C111.610405,70.8469449 107.875378,66.5359952 100.557774,66.5359952 C91.6563823,66.5359952 88.0653358,72.8542045 88.0653358,81.8995765 L88.0653358,104.46219 L96.6364186,104.46219 L96.6364186,118.529946 L69.5341803,118.529946 L69.5341803,82.0435572 C69.5341803,70.8469449 65.8076225,66.5359952 58.4815487,66.5359952 C49.5801573,66.5359952 45.9891107,72.8542045 45.9891107,81.8995765 L45.9891107,104.46219 L58.3036903,104.46219 L58.3036903,118.529946 L18.8191168,118.529946 L18.8191168,104.46219 L27.4325469,104.46219 L27.4325469,67.8318209 L18.1161525,67.8318209 L18.1161525,53.7640653 L45.9552329,53.7640653 L45.9552329,63.5208711 C49.8342408,56.6352087 56.584392,52.4682396 65.6212946,52.4682396 C74.9376891,52.4682396 83.5680581,56.92317 86.7271627,66.400484 C90.3182093,57.7870538 97.6358137,52.4682396 107.833031,52.4682396 C119.461585,52.4682396 130.090744,59.5063521 130.090744,74.8699335 L130.090744,104.46219 L138.704174,104.46219 L138.712644,118.513007 Z M179.916515,119.944344 C159.962492,119.944344 146.174229,107.739867 146.174229,87.0659407 C146.174229,68.1113128 157.658802,52.4597701 180.898972,52.4597701 C204.139141,52.4597701 215.505157,68.1113128 215.505157,86.2020569 C215.522081,106.884453 200.590442,119.952813 179.916515,119.952813 L179.916515,119.944344 Z M283.006655,118.513007 L226.430732,118.513007 L224.567453,108.747731 L260.139141,67.8233515 L239.897157,67.8233515 L237.026013,77.876588 L223.669691,76.4452511 L225.964912,53.7555959 L282.879613,53.7555959 L284.31095,63.5208711 L248.400484,104.46219 L269.328494,104.46219 L272.343618,94.4089534 L286.987296,95.8402904 L283.006655,118.513007 Z M318.036298,118.513007 L298.649728,118.513007 L298.649728,95.2558984 L318.036298,95.2558984 L318.036298,118.513007 Z M318.036298,77.0127042 L298.649728,77.0127042 L298.649728,53.7640653 L318.036298,53.7640653 L318.036298,77.0127042 Z M328.199637,118.513007 L356.225045,19.7676951 L374.45977,19.7676951 L346.45977,118.513007 L328.199637,118.513007 Z M365.820932,118.513007 L393.829401,19.7676951 L412.064126,19.7676951 L384.081065,118.513007 L365.820932,118.513007 Z M462.3049,119.944344 C453.69147,119.944344 448.957048,114.913491 448.093164,107.019964 C444.358137,113.626134 437.751966,119.944344 427.275257,119.944344 C417.958863,119.944344 407.321234,114.913491 407.321234,101.421658 C407.321234,85.4821537 422.684815,81.7555959 437.472474,81.7555959 C441.024087,81.7250205 444.574117,81.9173728 448.101633,82.3315185 L448.101633,80.1802783 C448.101633,73.5741077 447.957653,65.6805808 437.472474,65.6805808 C433.593466,65.6805808 430.578342,65.968542 427.563218,67.5438596 L425.166364,76.7332123 L410.378705,75.1494253 L413.249849,58.354507 C424.590442,53.7555959 430.332728,52.4258923 440.961887,52.4258923 C454.894132,52.4258923 466.666667,59.6079855 466.666667,74.3956443 L466.666667,102.539625 C466.666667,106.274652 468.098004,107.570478 471.121597,107.570478 C472.046551,107.556736 472.96483,107.411294 473.84876,107.138536 L473.99274,116.903811 C470.411486,118.854513 466.408047,119.901163 462.330309,119.952813 L462.3049,119.944344 Z"/><path d="M180.627949,66.6799758 C171.150635,66.6799758 165.264368,73.7096189 165.264368,85.922565 C165.264368,97.1191773 170.430732,105.732607 180.509377,105.732607 C190.130672,105.732607 196.448881,97.9830611 196.448881,85.6346038 C196.423472,72.5662432 189.393829,66.6799758 180.627949,66.6799758 L180.627949,66.6799758 Z"/></g></svg>